<?xml version="1.0" standalone="no"?>
<!DOCTYPE svg PUBLIC "-//W3C//DTD SVG 1.1//EN" "http://www.w3.org/Graphics/SVG/1.1/DTD/svg11.dtd" >
<svg xmlns="http://www.w3.org/2000/svg" xmlns:xlink="http://www.w3.org/1999/xlink" version="1.1">
<metadata>
Created by FontForge 20170731 at Fri May  5 14:18:41 2017
 By Aleksey,,,
Copyright 2015 The Frank Ruhl Libre Project Authors.
</metadata>
<defs>
<font id="FrankRuhlLibre-Light" horiz-adv-x="0" >
  <font-face 
    font-family="Frank Ruhl Libre Light"
    font-weight="300"
    font-stretch="normal"
    units-per-em="1000"
    panose-1="0 0 4 0 0 0 0 0 0 0"
    ascent="800"
    descent="-200"
    x-height="467"
    cap-height="660"
    bbox="-618 -280 1037 940"
    underline-thickness="50"
    underline-position="-150"
    unicode-range="U+0020-FB4F"
  />
<missing-glyph horiz-adv-x="778" 
d="M139 625h500v-625h-500v625zM623 16v593h-469v-593h469z" />
    <glyph glyph-name="fi" unicode="fi" horiz-adv-x="534" 
d="M450 45q4 -11 18 -14.5t49 -3.5v-27h-208v27q36 0 49.5 3.5t17.5 14t4 38.5v309q0 25 -6 33.5t-24 8.5h-185v-352q0 -27 5 -37.5t22.5 -14t62.5 -3.5v-27h-227v27q36 0 49.5 3.5t17.5 14t4 38.5v351h-73v33h73v35q0 91 50.5 147t146.5 56q65 0 102.5 -24.5t37.5 -61.5
q0 -21 -12 -34.5t-31 -13.5q-17 0 -29 11t-12 29q0 10 3.5 16t10.5 13t7 13q0 24 -67 24q-73 0 -107 -36.5t-34 -123.5v-50h219l35 6h27v-390q0 -27 4 -38z" />
    <glyph glyph-name="fl" unicode="fl" horiz-adv-x="558" 
d="M28 27q35 0 49 4t18 14.5t4 37.5v351h-73v33h73v17q0 100 49.5 160.5t134.5 60.5q72 0 119 -27l40 15h27v-610q0 -27 4 -37.5t18.5 -14.5t49.5 -4v-27h-209v27q36 0 50 4t17.5 14.5t3.5 37.5v515q-10 35 -45.5 54t-79.5 19q-51 0 -82 -36.5t-31 -138.5v-29h116v-33h-116
v-352q0 -27 5 -37.5t22.5 -14t62.5 -3.5v-27h-227v27z" />
    <glyph glyph-name=".notdef" horiz-adv-x="778" 
d="M139 625h500v-625h-500v625zM623 16v593h-469v-593h469z" />
    <glyph glyph-name=".null" 
 />
    <glyph glyph-name="nonmarkingreturn" horiz-adv-x="333" 
 />
    <glyph glyph-name="space" unicode=" " horiz-adv-x="242" 
 />
    <glyph glyph-name="exclam" unicode="!" horiz-adv-x="267" 
d="M95 536q-2 13 -4.5 42t-2.5 44q0 53 46 53q25 0 35 -14.5t10 -44.5q0 -15 -1 -27.5t-2 -22.5l-3 -30l-24 -370h-31zM101 4.5q-13 13.5 -13 32.5t13 33t32 14t32.5 -14t13.5 -33t-13.5 -32.5t-32.5 -13.5t-32 13.5z" />
    <glyph glyph-name="quotedbl" unicode="&#x22;" horiz-adv-x="287" 
d="M73.5 491q-2.5 4 -4.5 15l-14 90q-6 30 -6 45q0 34 34 34q21 0 27.5 -9.5t6.5 -24.5q0 -18 -4 -45l-15 -90q-1 -10 -4 -14.5t-11 -4.5q-7 0 -9.5 4zM189 506l-15 90q-4 40 -4 45q0 15 6.5 24.5t27.5 9.5q34 0 34 -34q0 -15 -6 -45l-14 -90q-1 -10 -4 -14.5t-10 -4.5
q-14 0 -15 19z" />
    <glyph glyph-name="numbersign" unicode="#" horiz-adv-x="497" 
d="M375 405l-22 -161h94v-36h-99l-29 -208h-42l29 208h-146l-29 -208h-42l29 208h-94v36h99l22 161h-95v36h100l30 219h42l-30 -219h146l30 219h42l-30 -219h93v-36h-98zM333 405h-146l-22 -161h146z" />
    <glyph glyph-name="dollar" unicode="$" horiz-adv-x="523" 
d="M414.5 39.5q-55.5 -45.5 -142.5 -50.5v-86h-38v86q-74 4 -128 38t-54 89q0 29 14 43.5t38 14.5q23 0 36 -12.5t13 -37.5q0 -14 -12 -28q-4 -5 -7 -10.5t-3 -11.5q0 -20 31.5 -36t71.5 -19v294l-16 7q-80 35 -121 77t-41 112q0 81 50.5 119.5t127.5 42.5v61h38v-61
q71 -4 120.5 -38t49.5 -89q0 -29 -14 -43.5t-38 -14.5q-23 0 -36 12.5t-13 37.5q0 14 12 28q4 5 7 10.5t3 11.5q0 20 -27 36.5t-64 20.5v-265l22 -9q56 -25 91.5 -46.5t60 -58.5t24.5 -93q0 -86 -55.5 -131.5zM155 447q23 -28 79 -52v248q-47 -5 -74.5 -34.5t-27.5 -86.5
q0 -47 23 -75zM362 66.5q32 40.5 32 92.5q0 47 -28 78t-88 57l-6 3v-278q58 7 90 47.5z" />
    <glyph glyph-name="percent" unicode="%" horiz-adv-x="848" 
d="M116 371.5q-38 48.5 -38 126.5q0 77 38 125.5t99 48.5q62 0 100 -48t38 -126q0 -79 -38 -127t-100 -48q-61 0 -99 48.5zM587 672h38l-368 -684h-37zM281.5 379.5q19.5 38.5 19.5 118.5q0 79 -19.5 117.5t-66.5 38.5q-46 0 -65.5 -38.5t-19.5 -117.5q0 -80 19.5 -118.5
t65.5 -38.5q47 0 66.5 38.5zM533 36.5q-38 48.5 -38 126.5q0 77 38 125.5t99 48.5q62 0 100 -48t38 -126q0 -79 -38 -127t-100 -48q-61 0 -99 48.5zM698.5 44.5q19.5 38.5 19.5 118.5q0 79 -19.5 117.5t-66.5 38.5q-46 0 -65.5 -38.5t-19.5 -117.5q0 -80 19.5 -118.5
t65.5 -38.5q47 0 66.5 38.5z" />
    <glyph glyph-name="ampersand" unicode="&#x26;" horiz-adv-x="717" 
d="M591 49.5q42 -22.5 84 -22.5v-27h-43q-55 0 -92.5 11.5t-67.5 37.5q-78 -61 -202 -61q-109 0 -168.5 45t-59.5 120q0 65 40 110t110 87q-50 56 -65.5 93.5t-15.5 68.5q0 82 47 121t119 39t117 -36t45 -94q0 -42 -23.5 -74t-54.5 -53t-84 -50l221 -243q28 32 43 72t15 78
q0 23 -15 37.5t-65 14.5v26h195v-26q-33 0 -49.5 -6t-22 -16t-8.5 -27q-8 -45 -23.5 -90t-47.5 -87q29 -26 71 -48.5zM205.5 617.5q-28.5 -27.5 -28.5 -75.5q0 -38 19 -73.5t59 -80.5q71 43 97.5 74.5t26.5 78.5q0 52 -26 78t-71 26q-48 0 -76.5 -27.5zM171.5 74.5
q51.5 -38.5 131.5 -38.5t142 40l-231 250q-94 -68 -94 -149q0 -64 51.5 -102.5z" />
    <glyph glyph-name="quotesingle" unicode="'" horiz-adv-x="166" 
d="M73 491.5q-3 4.5 -4 14.5l-15 90q-5 33 -5 45q0 34 34 34t34 -34q0 -12 -5 -45l-14 -90q-2 -10 -5 -14.5t-10 -4.5t-10 4.5z" />
    <glyph glyph-name="parenleft" unicode="(" horiz-adv-x="335" 
d="M137 -1q-49 114 -49 267t49 267t175 124v-20q-54 -13 -92 -67.5t-57 -134.5t-19 -169t19.5 -168.5t57.5 -134.5t91 -69v-18q-126 9 -175 123z" />
    <glyph glyph-name="parenright" unicode=")" horiz-adv-x="335" 
d="M23 -106q53 14 91 69t57.5 134.5t19.5 168.5t-19 169t-57 134.5t-92 67.5v20q126 -10 175 -124t49 -267t-49 -267t-175 -123v18z" />
    <glyph glyph-name="asterisk" unicode="*" horiz-adv-x="336" 
d="M144 359q-9 6 -7 16l14 104l-3 1l-83 -65q-5 -3 -9 -3q-13 0 -25 19q-6 12 -6 22q0 12 9 16l98 40v3l-97 40q-11 5 -11 16q0 9 7 21q12 20 25 20q3 0 9 -4l84 -65l2 1l-14 105q-1 10 7.5 15.5t22.5 5.5q15 0 24 -5.5t7 -15.5l-14 -106l1 -1l85 66q6 4 9 4q12 0 24 -20
q8 -13 8 -22q0 -11 -11 -16l-98 -40l-1 -2l99 -40q11 -5 11 -15t-8 -23q-12 -19 -24 -19q-3 0 -9 4l-84 65l-2 -2l14 -104q1 -11 -7.5 -16.5t-23.5 -5.5q-14 0 -23 6z" />
    <glyph glyph-name="plus" unicode="+" horiz-adv-x="541" 
d="M244 209h-208v51h208v209h52v-209h209v-51h-209v-209h-52v209z" />
    <glyph glyph-name="comma" unicode="," horiz-adv-x="248" 
d="M78 -69q29 9 42 21.5t13 32.5q0 15 -14 17q-16 2 -28.5 12.5t-12.5 33.5q0 22 14 34.5t34 12.5q21 0 34.5 -16t13.5 -48q0 -42 -21 -77.5t-70 -45.5z" />
    <glyph glyph-name="hyphen" unicode="-" horiz-adv-x="319" 
d="M57 276h205v-59h-205v59z" />
    <glyph glyph-name="period" unicode="." horiz-adv-x="262" 
d="M98.5 4.5q-13.5 13.5 -13.5 32.5t13.5 33t32.5 14t32.5 -14t13.5 -33t-13.5 -32.5t-32.5 -13.5t-32.5 13.5z" />
    <glyph glyph-name="slash" unicode="/" horiz-adv-x="341" 
d="M296 672h44l-295 -684h-44z" />
    <glyph glyph-name="zero" unicode="0" horiz-adv-x="559" 
d="M158.5 30q-50.5 42 -77 119t-26.5 181t26.5 181t77 119t120.5 42t121 -42t77.5 -119t26.5 -181t-26.5 -181t-77.5 -119t-121 -42t-120.5 42zM364.5 48q31.5 32 45.5 100t14 182t-14 182t-45.5 100t-85.5 32t-85 -32t-45 -100t-14 -182q0 -121 13.5 -188.5t44.5 -96.5
t86 -29q54 0 85.5 32z" />
    <glyph glyph-name="one" unicode="1" horiz-adv-x="458" 
d="M110 27h46q38 0 50 9.5t12 39.5v514q-63 -34 -143 -67v33q41 20 88.5 52t69.5 52h57v-584q0 -30 12.5 -39.5t49.5 -9.5h46v-27h-288v27z" />
    <glyph glyph-name="two" unicode="2" horiz-adv-x="531" 
d="M50 8q0 59 43 121t132 140q7 6 52 45t70 88t25 103q0 67 -33.5 103t-94.5 36q-41 0 -68.5 -17t-27.5 -41q0 -6 3 -11.5t7 -10.5q12 -14 12 -28q0 -25 -13 -37.5t-36 -12.5q-24 0 -38 14.5t-14 43.5q0 59 55.5 93.5t132.5 34.5q93 0 144 -48.5t51 -130.5q0 -51 -19 -88.5
t-50 -64.5t-87 -68q-97 -72 -140 -116t-43 -80h222q41 0 63 7.5t31 21t14 35.5h28l-35 -140h-386v8z" />
    <glyph glyph-name="three" unicode="3" horiz-adv-x="539" 
d="M101 22.5q-56 34.5 -56 93.5q0 30 14.5 44t39.5 14q22 0 34.5 -11t12.5 -34q0 -11 -2.5 -17.5t-8.5 -15.5q-9 -11 -9 -21q0 -24 30.5 -41.5t74.5 -17.5q74 0 113.5 45t39.5 126q0 80 -39 119.5t-118 39.5q-24 0 -39 -1v32q12 -1 39 -1q59 0 93 35t34 99q0 60 -31.5 97
t-87.5 37q-39 0 -66.5 -17.5t-27.5 -41.5q0 -10 9 -21q6 -9 8.5 -15.5t2.5 -17.5q0 -23 -12.5 -34t-34.5 -11q-25 0 -39.5 14t-14.5 44q0 59 56.5 93.5t136.5 34.5q85 0 133 -41t48 -116q0 -62 -32 -100.5t-93 -48.5v-2q69 -2 112 -50.5t43 -127.5q0 -92 -60.5 -145
t-163.5 -53q-83 0 -139 34.5z" />
    <glyph glyph-name="four" unicode="4" horiz-adv-x="523" 
d="M244 27h43q20 0 26.5 9t6.5 30v123h-285v51q140 217 303 428h52v-423h93v-56h-93v-123q0 -22 5.5 -30.5t25.5 -8.5h35v-27h-212v27zM320 245v340h-3q-110 -142 -241 -340h244z" />
    <glyph glyph-name="five" unicode="5" horiz-adv-x="519" 
d="M100.5 17q-45.5 29 -45.5 81q0 30 14.5 45.5t39.5 15.5q22 0 34.5 -12.5t12.5 -36.5q0 -20 -12 -34q-8 -12 -8 -21q0 -21 23.5 -30t58.5 -9q73 0 114.5 42t41.5 134q0 84 -36.5 127t-106.5 43q-38 0 -66.5 -13t-56.5 -40h-19l27 351h244q24 0 32.5 5t15.5 19h23l-27 -97
h-264l-20 -230l3 -1q64 51 150 51q87 0 134 -54.5t47 -140.5q0 -66 -28 -117t-81 -79t-125 -28q-74 0 -119.5 29z" />
    <glyph glyph-name="six" unicode="6" horiz-adv-x="540" 
d="M112.5 65q-57.5 77 -57.5 213q0 118 44 207t125.5 139.5t191.5 54.5v-27q-81 -6 -142.5 -49.5t-98 -119.5t-42.5 -177h1q25 56 68 86t96 30q47 0 89 -25t67.5 -74t25.5 -118q0 -62 -25.5 -111.5t-72.5 -77.5t-110 -28q-102 0 -159.5 77zM370 63q33 47 33 132t-33.5 128
t-96.5 43q-65 0 -103 -43t-38 -121q0 -77 37 -131.5t106 -54.5q62 0 95 47z" />
    <glyph glyph-name="seven" unicode="7" horiz-adv-x="511" 
d="M166 4.5q-8 16.5 -8 46.5q0 137 111 326q26 44 67 110.5t67 99.5h-256q-34 0 -47 -10t-26 -40l-7 -17h-27l18 140h393v-63q-30 -38 -70 -103t-67 -114q-36 -66 -53.5 -120.5t-21.5 -100t-5 -112.5q0 -28 -8 -43.5t-30 -15.5t-30 16.5z" />
    <glyph glyph-name="eight" unicode="8" horiz-adv-x="519" 
d="M101.5 30.5q-51.5 42.5 -51.5 116.5q0 56 34.5 102.5t114.5 89.5q-67 41 -95 81.5t-28 88.5q0 55 29 91.5t73.5 54t92.5 17.5q68 0 118.5 -34.5t50.5 -107.5q0 -49 -27.5 -92.5t-89.5 -82.5q72 -43 104 -85t32 -99q0 -52 -24.5 -93.5t-72.5 -65.5t-117 -24
q-92 0 -143.5 42.5zM372.5 441q23.5 36 23.5 80q0 55 -34 89t-94 34q-55 0 -92.5 -29.5t-37.5 -81.5q0 -31 16 -54t46.5 -45t97.5 -63q51 34 74.5 70zM355.5 50q41.5 34 41.5 94q0 33 -16 57.5t-51.5 51t-109.5 71.5q-56 -33 -91 -77t-35 -98q0 -60 44.5 -96.5t111.5 -36.5
q64 0 105.5 34z" />
    <glyph glyph-name="nine" unicode="9" horiz-adv-x="540" 
d="M124 8q81 6 142.5 49.5t98 119.5t42.5 177h-1q-24 -55 -67.5 -85.5t-95.5 -30.5q-47 0 -89 26.5t-68 77t-26 117.5q0 60 25.5 108.5t73 76.5t110.5 28q102 0 159 -77.5t57 -213.5q0 -118 -44 -206.5t-125.5 -139t-191.5 -54.5v27zM370 337.5q38 43.5 38 120.5
t-36.5 131.5t-105.5 54.5q-62 0 -95.5 -47t-33.5 -129q0 -83 34 -128.5t98 -45.5q63 0 101 43.5z" />
    <glyph glyph-name="colon" unicode=":" horiz-adv-x="262" 
d="M98.5 308q-13.5 13 -13.5 32q0 18 14 32.5t33 14.5t32 -14t13 -33t-12.5 -32t-32.5 -13t-33.5 13zM98.5 4.5q-13.5 13.5 -13.5 32.5t14 33t33 14t32 -14t13 -33q0 -20 -13 -33t-32 -13q-20 0 -33.5 13.5z" />
    <glyph glyph-name="semicolon" unicode=";" horiz-adv-x="254" 
d="M98.5 307.5q-13.5 13.5 -13.5 32.5t13.5 33t32.5 14t32.5 -14t13.5 -33t-13.5 -32.5t-32.5 -13.5t-32.5 13.5zM83 -69q29 9 42 21.5t13 32.5q0 15 -14 17q-16 2 -28.5 12.5t-12.5 33.5q0 22 14 34.5t34 12.5q21 0 34.5 -16t13.5 -48q0 -42 -21 -77.5t-70 -45.5z" />
    <glyph glyph-name="less" unicode="&#x3c;" horiz-adv-x="594" 
d="M62 208v53l469 215v-57l-404 -184l404 -185v-57z" />
    <glyph glyph-name="equal" unicode="=" horiz-adv-x="541" 
d="M36 351h469v-52h-469v52zM36 170h469v-52h-469v52z" />
    <glyph glyph-name="greater" unicode="&#x3e;" horiz-adv-x="594" 
d="M63 50l403 185l-403 184v57l469 -215v-53l-469 -215v57z" />
    <glyph glyph-name="question" unicode="?" horiz-adv-x="450" 
d="M181 209q0 52 17 86t50 74q34 42 51 77t17 90q0 53 -23.5 84t-67.5 31q-32 0 -60.5 -11.5t-28.5 -34.5q0 -8 3 -13t9 -11q8 -7 12 -14.5t4 -21.5q0 -20 -11.5 -31.5t-32.5 -11.5q-22 0 -34.5 17t-12.5 44q0 53 44 82.5t110 29.5q74 0 121.5 -33.5t47.5 -104.5
q0 -41 -14 -74.5t-33.5 -57.5t-52.5 -58q-41 -41 -61 -70.5t-20 -67.5v-43h-34v43zM166 4.5q-13 13.5 -13 32.5t13 33t33 14q19 0 32.5 -14t13.5 -33t-13.5 -32.5t-32.5 -13.5q-20 0 -33 13.5z" />
    <glyph glyph-name="at" unicode="@" horiz-adv-x="726" 
d="M182.5 26.5q-70.5 36.5 -109 105t-38.5 160.5q0 104 48.5 189t131.5 133t183 48q85 0 151.5 -35.5t104 -96.5t37.5 -136q0 -67 -28.5 -120t-74 -83t-93.5 -30q-36 0 -56.5 17t-20.5 45q0 10 5 27l13 38l-3 2q-28 -61 -74 -95t-91 -34q-66 0 -66 76q0 50 24.5 113
t74.5 109t123 46q36 0 67 -20l5 16h44l-65 -234q-5 -17 -5 -28q0 -44 50 -44q39 0 72.5 27.5t52.5 73t19 96.5q0 67 -33.5 119.5t-92.5 81.5t-132 29q-92 0 -167 -45t-117.5 -120t-42.5 -161q0 -65 26.5 -126t89 -102t165.5 -41q78 0 157 22l5 -17q-72 -42 -175 -42
q-94 0 -164.5 36.5zM358 220q30 22 55.5 60.5t40.5 85.5l31 99q-30 18 -56 18q-50 0 -89 -42.5t-61.5 -98.5t-22.5 -92q0 -24 11.5 -38t33.5 -14q27 0 57 22z" />
    <glyph glyph-name="A" unicode="A" horiz-adv-x="632" 
d="M569.5 47q7.5 -12 20 -16t37.5 -4v-27h-204v27h33q30 0 30 24q0 11 -4 22l-66 181h-232l-68 -183q-4 -16 -4 -21q0 -23 28 -23h29v-27h-160v27q26 0 40 5.5t21.5 18.5t17.5 42l214 567h40l212 -575q8 -26 15.5 -38zM403 288l-101 276h-3l-102 -276h206z" />
    <glyph glyph-name="B" unicode="B" horiz-adv-x="606" 
d="M53 27q38 0 53 4t19 15.5t4 42.5v482q0 30 -4 41.5t-19 16t-53 4.5v27h226q116 0 182 -38.5t66 -113.5q0 -53 -34 -93t-93 -53v-2q68 -11 113 -59t45 -122q0 -88 -66 -133.5t-193 -45.5h-246v27zM288 372q81 0 120 30.5t39 94.5q0 76 -47.5 104t-126.5 28
q-33 0 -47.5 -4.5t-18 -14t-3.5 -31.5v-207h84zM476 180q0 76 -46 118t-138 42h-88v-233q0 -32 7 -48t25 -22.5t54 -6.5q186 0 186 150z" />
    <glyph glyph-name="C" unicode="C" horiz-adv-x="649" 
d="M196.5 29.5q-68.5 41.5 -104 117t-35.5 175.5q0 106 37 185t107.5 122t168.5 43q43 0 72 -7.5t58 -19.5q23 -10 34 -10q9 0 15 4t8 10l3 11h27l10 -174h-27q-19 65 -61.5 110.5t-133.5 45.5q-84 0 -135.5 -48.5t-73 -119.5t-21.5 -145q0 -81 25 -151.5t77.5 -115
t131.5 -44.5q58 0 96 19t59 47.5t41 70.5l25 -13q-19 -43 -44 -75t-73 -55.5t-124 -23.5q-94 0 -162.5 41.5z" />
    <glyph glyph-name="D" unicode="D" horiz-adv-x="713" 
d="M53 27q38 0 53 4t19 15.5t4 42.5v482q0 30 -4 41.5t-19 16t-53 4.5v27h286q149 -2 233 -85t84 -233q0 -107 -40.5 -184t-116 -117.5t-179.5 -40.5h-267v27zM494.5 99.5q73.5 69.5 73.5 238.5q0 131 -60.5 209.5t-194.5 81.5q-54 0 -75.5 -3.5t-28 -14.5t-6.5 -39v-453
q0 -38 10.5 -57t31 -25.5t57.5 -6.5q119 0 192.5 69.5z" />
    <glyph glyph-name="E" unicode="E" horiz-adv-x="580" 
d="M53 27q38 0 53 4t19 15.5t4 42.5v482q0 30 -4 41.5t-19 16t-53 4.5v27h451v-156h-27q-7 54 -19.5 79.5t-40.5 35.5t-86 10h-93q-23 0 -29 -6t-6 -31v-232h122q40 0 58 7.5t24.5 23.5t11.5 51h24v-199h-24q-5 36 -11.5 51.5t-24.5 23.5t-58 8h-122v-212q0 -37 9.5 -54.5
t34.5 -23.5t79 -6q66 0 101 9.5t54.5 37.5t30.5 88h27l-11 -165h-475v27z" />
    <glyph glyph-name="F" unicode="F" horiz-adv-x="541" 
d="M53 27q38 0 53 4.5t19 16t4 41.5v482q0 30 -4 41.5t-19 16t-53 4.5v27h455v-152h-27q-7 52 -19.5 77t-41 34.5t-87.5 9.5h-94q-24 0 -29.5 -6t-5.5 -31v-246h123q40 0 58 8t24.5 24t11.5 52h23v-204h-23q-5 36 -11.5 52t-24.5 24t-58 8h-123v-221q0 -30 4.5 -41.5t23 -16
t63.5 -4.5v-27h-242v27z" />
    <glyph glyph-name="G" unicode="G" horiz-adv-x="650" 
d="M195 30q-67 42 -102.5 118.5t-35.5 177.5q0 104 37 182t107.5 121t167.5 43q43 0 71.5 -7t56.5 -19q27 -11 38 -11q9 0 16 4t9 10l5 11h22l10 -174h-27q-19 62 -63.5 109t-130.5 47q-84 0 -135.5 -48t-73.5 -120t-22 -148q0 -80 24.5 -150t79 -114t139.5 -44
q55 0 93 21.5t38 76.5v114q0 44 -48 44h-16v27h184v-27h-11q-35 0 -35 -33v-244h-16q-5 12 -12 18t-20 6t-53 -11q-42 -11 -71.5 -16.5t-66.5 -5.5q-92 0 -159 42z" />
    <glyph glyph-name="H" unicode="H" horiz-adv-x="750" 
d="M53 27q38 0 53 4t19 14.5t4 37.5v494q0 26 -4 36.5t-19 14.5t-53 5v27h226v-27q-37 0 -52.5 -4.5t-19.5 -15t-4 -36.5v-216h344v216q0 26 -4 36.5t-19.5 15t-52.5 4.5v27h226v-27q-37 -1 -52.5 -5t-19.5 -14.5t-4 -36.5v-494q0 -27 4 -37.5t19 -14.5t53 -4v-27h-226v27
q38 0 53 4t19 14.5t4 37.5v242h-344v-242q0 -27 4 -37.5t19 -14.5t53 -4v-27h-226v27z" />
    <glyph glyph-name="I" unicode="I" horiz-adv-x="331" 
d="M53 27q38 0 53 4.5t19 16t4 41.5v482q0 30 -4 41.5t-19 16t-53 4.5v27h226v-27q-38 0 -53 -4.5t-19 -16t-4 -41.5v-482q0 -30 4 -41.5t19 -16t53 -4.5v-27h-226v27z" />
    <glyph glyph-name="J" unicode="J" horiz-adv-x="356" 
d="M-1 -183.5q-35 26.5 -35 64.5q0 26 14 42.5t41 16.5q22 0 35.5 -11t13.5 -34q0 -20 -13 -33q-4 -3 -6.5 -7.5t-2.5 -10.5q0 -13 9.5 -20t26.5 -7q48 0 67.5 47t19.5 130v577q0 30 -4 41.5t-19 16t-53 4.5v27h226v-27q-38 0 -53 -4.5t-19 -16t-4 -41.5v-506
q0 -124 -33 -199.5t-124 -75.5q-52 0 -87 26.5z" />
    <glyph glyph-name="K" unicode="K" horiz-adv-x="609" 
d="M551.5 46.5q25.5 -19.5 52.5 -19.5v-27h-218v27h21q9 0 15 6t6 16q0 12 -10 25l-199 259l-16 -15v-229q0 -30 4 -41.5t19 -16t53 -4.5v-27h-226v27q38 0 53 4.5t19 16t4 41.5v482q0 30 -4 41.5t-19 16t-53 4.5v27h226v-27q-38 0 -53 -4.5t-19 -16t-4 -41.5v-217l251 236
q16 16 16 28q0 15 -22 15h-28v27h160v-27q-25 0 -40.5 -10t-54.5 -45l-16 -15l-195 -179l233 -295q19 -23 44.5 -42.5z" />
    <glyph glyph-name="L" unicode="L" horiz-adv-x="565" 
d="M53 27q38 0 53 4t19 15.5t4 42.5v482q0 30 -4 41.5t-19 16t-53 4.5v27h226v-27q-38 0 -53 -4.5t-19 -16t-4 -41.5v-457q0 -37 9.5 -54.5t34.5 -23.5t79 -6q63 0 95.5 9.5t51 37.5t29.5 88h27l-11 -165h-465v27z" />
    <glyph glyph-name="M" unicode="M" horiz-adv-x="819" 
d="M38 27h27q30 0 38.5 10.5t8.5 42.5v496q0 26 -4.5 37.5t-19.5 15.5t-50 4v27h155l212 -499h1l214 499h146v-27q-36 0 -51 -4t-20 -15.5t-5 -37.5v-493q0 -25 5 -36.5t20.5 -15.5t50.5 -4v-27h-228v27q37 0 53 4.5t20.5 15.5t4.5 36v487h-2l-226 -528h-10l-230 528h-2
v-490q0 -25 2.5 -35t13 -14t34.5 -4h32v-27h-190v27z" />
    <glyph glyph-name="N" unicode="N" horiz-adv-x="691" 
d="M154 570h-2v-491q0 -28 11.5 -40t38.5 -12h36v-27h-196v27h29q24 0 35.5 12.5t11.5 39.5v497q0 26 -5 37.5t-20.5 15.5t-51.5 4v27h153l346 -523h2v448q0 48 -51 48h-35v27h196v-27h-30q-46 0 -46 -48v-591h-33z" />
    <glyph glyph-name="O" unicode="O" horiz-adv-x="701" 
d="M186.5 32q-65.5 44 -97.5 120.5t-32 174.5q0 96 31 174t97 124.5t166 46.5t166 -46.5t97 -124.5t31 -174q0 -98 -32 -174.5t-97.5 -120.5t-164.5 -44t-164.5 44zM514.5 110.5q42.5 92.5 42.5 216.5q0 138 -41.5 226.5t-164.5 88.5t-164.5 -88.5t-41.5 -226.5
q0 -124 42.5 -216.5t163.5 -92.5t163.5 92.5z" />
    <glyph glyph-name="P" unicode="P" horiz-adv-x="553" 
d="M53 27q36 0 51.5 4.5t20 15.5t4.5 36v493q0 26 -5 37t-20.5 15.5t-50.5 4.5v27h225q110 0 173.5 -45t63.5 -142q0 -99 -65.5 -150t-171.5 -51h-75v-189q0 -26 5 -37t22 -15t57 -4v-27h-234v27zM267 306q85 0 125.5 38t40.5 122t-41 122.5t-127 38.5q-39 0 -50.5 -8
t-11.5 -27v-286h64z" />
    <glyph glyph-name="Q" unicode="Q" horiz-adv-x="701" 
d="M557 -90l17 -19q-24 -21 -49 -32.5t-58 -11.5q-63 0 -99.5 41t-39.5 101q-135 7 -203 100t-68 237q0 96 31 174.5t97 125t166 46.5t166 -46.5t97 -125t31 -174.5q0 -133 -58 -223t-173 -110q2 -43 24 -75.5t59 -32.5q30 0 60 25zM351 18q206 0 206 318q0 131 -42 218.5
t-164 87.5t-164 -87.5t-42 -218.5q0 -318 206 -318z" />
    <glyph glyph-name="R" unicode="R" horiz-adv-x="578" 
d="M53 27q36 0 51.5 4.5t20 15.5t4.5 36v493q0 26 -5 37t-20.5 15.5t-50.5 4.5v27h245q95 0 150.5 -40.5t55.5 -123.5q0 -66 -36 -108.5t-98 -59.5v-1q45 -15 68.5 -44.5t34.5 -97.5l8 -47q10 -61 26.5 -86t52.5 -25v-27h-110q-14 15 -22.5 36t-15.5 56l-21 114
q-11 57 -38.5 81t-84.5 24h-65v-228q0 -26 5 -37t22 -15t57 -4v-27h-234v27zM267 345q80 0 118 33.5t38 106.5q0 74 -38.5 108t-119.5 34q-38 0 -50 -8t-12 -27v-247h64z" />
    <glyph glyph-name="S" unicode="S" horiz-adv-x="519" 
d="M49 182h27q5 -71 53.5 -117.5t120.5 -46.5q69 0 106.5 41.5t37.5 99.5q0 47 -28 78t-88 57l-60 26q-80 35 -121 77t-41 112q0 86 57.5 124.5t141.5 38.5q36 0 58 -6t42 -16q16 -7 22 -7q9 0 13 8t6 21h24l10 -174h-27q-6 61 -44 102.5t-108 41.5q-55 0 -87 -28.5
t-32 -91.5q0 -48 23 -76t81 -52l58 -25q56 -25 91.5 -46.5t60 -58.5t24.5 -93q0 -91 -62.5 -137t-155.5 -46q-37 0 -61.5 5.5t-52.5 15.5q-19 8 -29 8q-19 0 -21 -29h-27z" />
    <glyph glyph-name="T" unicode="T" horiz-adv-x="570" 
d="M153 27q48 0 66.5 4.5t23.5 16t5 41.5v541h-58q-58 0 -85.5 -10t-39.5 -36t-18 -82h-27v158h530v-158h-27q-6 56 -18.5 82t-40 36t-84.5 10h-58v-541q0 -30 4.5 -41.5t23.5 -16t67 -4.5v-27h-264v27z" />
    <glyph glyph-name="U" unicode="U" horiz-adv-x="719" 
d="M181.5 49q-59.5 61 -59.5 186v336q0 30 -4 41.5t-19 16t-53 4.5v27h226v-27q-38 0 -53 -4.5t-19 -16t-4 -41.5v-345q0 -95 41.5 -151.5t123.5 -56.5t123.5 56.5t41.5 151.5v345q0 30 -4 41.5t-19 16t-53 4.5v27h226v-27q-38 0 -53 -4.5t-19 -16t-4 -41.5v-336
q0 -125 -59.5 -186t-179.5 -61t-179.5 61z" />
    <glyph glyph-name="V" unicode="V" horiz-adv-x="640" 
d="M90 576q-10 26 -19 38t-23 15.5t-42 3.5v27h226v-27h-52q-12 0 -17 -4t-5 -12t4 -19l175 -493l2 -2l178 500q2 10 2 14q0 8 -5 12t-18 4h-47v27h181v-27q-24 0 -35.5 -3t-20 -13.5t-17.5 -33.5l-222 -583h-38z" />
    <glyph glyph-name="W" unicode="W" horiz-adv-x="907" 
d="M94 570q-9 30 -16.5 42.5t-21 16.5t-43.5 4v27h209v-27h-40q-12 0 -18 -4t-6 -13q0 -4 4 -22l132 -480h2l146 529h41l162 -529h3l122 483q2 10 2 15q0 21 -23 21h-40v27h188v-27q-31 0 -46 -4.5t-24 -17.5t-19 -42l-161 -569h-42l-160 529h-2l-149 -529h-44z" />
    <glyph glyph-name="X" unicode="X" horiz-adv-x="660" 
d="M561 46.5q11 -10.5 28.5 -15t52.5 -4.5v-27h-251v27h52q11 0 16.5 4.5t5.5 11.5q0 9 -6 18l-151 243h-2l-149 -244q-5 -7 -5 -18q0 -15 16 -15h61v-27h-210v27q43 0 61.5 9t40.5 43l166 254l-150 239q-17 28 -29 40t-28 16.5t-47 4.5v27h226v-27h-49q-16 0 -16 -13
q0 -7 8 -20l134 -211h2l141 212q8 13 8 21q0 11 -17 11h-48v27h193v-27q-31 0 -47 -3.5t-30 -15.5t-33 -40l-149 -214l178 -278q16 -25 27 -35.5z" />
    <glyph glyph-name="Y" unicode="Y" horiz-adv-x="611" 
d="M592 660v-27q-29 0 -43 -5t-23 -16t-26 -42l-147 -299v-182q0 -30 4.5 -41.5t23 -16t63.5 -4.5v-27h-256v27q45 0 63.5 4.5t23 16t4.5 41.5v168l-171 328q-16 30 -31.5 39t-52.5 9v27h216v-27h-50q-15 0 -15 -14q0 -5 5 -15l150 -294h2l142 292q5 12 5 17q0 14 -16 14
h-55v27h184z" />
    <glyph glyph-name="Z" unicode="Z" horiz-adv-x="566" 
d="M26 27l428 603h-180q-67 0 -99.5 -10t-46.5 -37.5t-20 -86.5h-27v164h453v-27l-428 -603h197q79 0 119 10t60.5 39.5t29.5 90.5h28l-10 -170h-504v27z" />
    <glyph glyph-name="bracketleft" unicode="[" horiz-adv-x="291" 
d="M99 660h148v-28h-92v-726h92v-28h-148v782z" />
    <glyph glyph-name="backslash" unicode="\" horiz-adv-x="345" 
d="M1 672h48l295 -684h-48z" />
    <glyph glyph-name="bracketright" unicode="]" horiz-adv-x="291" 
d="M44 -94h92v726h-92v28h148v-782h-148v28z" />
    <glyph glyph-name="asciicircum" unicode="^" horiz-adv-x="562" 
d="M259 660h48l170 -338h-58l-136 271l-136 -271h-58z" />
    <glyph glyph-name="underscore" unicode="_" horiz-adv-x="464" 
d="M0 -70h464v-41h-464v41z" />
    <glyph glyph-name="grave" unicode="`" horiz-adv-x="382" 
d="M121 674q-15 16 -19.5 23.5t-4.5 17.5q0 13 9 22.5t21 9.5q13 0 22 -7.5t17 -23.5l76 -154h-18z" />
    <glyph glyph-name="a" unicode="a" horiz-adv-x="477" 
d="M463 13q-18 -10 -34.5 -16.5t-45.5 -6.5q-24 0 -38 11.5t-17 50.5q-40 -33 -74.5 -48.5t-76.5 -15.5q-56 0 -90 25.5t-34 75.5q0 71 70 123t204 72v56q0 56 -21 84t-69 28q-26 0 -50.5 -7.5t-39 -19t-14.5 -20.5q0 -6 9.5 -13t15.5 -14t6 -23q0 -19 -10.5 -30.5
t-30.5 -11.5q-21 0 -33 13.5t-12 37.5q0 29 18 55.5t56.5 43t97.5 16.5q72 0 107.5 -30.5t35.5 -103.5v-247q0 -39 8.5 -53.5t27.5 -14.5q10 0 28 6zM150 50.5q21 -18.5 59 -18.5q32 0 60.5 13t57.5 35v176q-198 -39 -198 -150q0 -37 21 -55.5z" />
    <glyph glyph-name="b" unicode="b" horiz-adv-x="554" 
d="M458 419q46 -60 46 -178q0 -130 -53.5 -191.5t-144.5 -61.5q-78 0 -135 53h-1l-34 -41h-27v601q0 27 -6 35.5t-25 8.5h-39v27l109 21h27v-262h2q59 48 146 48q89 0 135 -60zM394.5 66.5q33.5 52.5 33.5 168.5q0 104 -29 160.5t-94 56.5q-68 0 -130 -58v-321
q53 -59 121 -59q65 0 98.5 52.5z" />
    <glyph glyph-name="c" unicode="c" horiz-adv-x="476" 
d="M147.5 19.5q-48.5 31.5 -73 86.5t-24.5 124q0 66 23 122.5t72.5 91.5t126.5 35q64 0 111 -24.5t47 -74.5q0 -23 -11 -37.5t-36 -14.5q-23 0 -35.5 12t-12.5 33q0 13 4 20.5t12 16t8 14.5q0 13 -22 20.5t-53 7.5q-158 0 -158 -219q0 -115 40.5 -166.5t109.5 -51.5
q58 0 91 28t46 59l24 -13q-96 -144 -66 -100.5t-7.5 21.5t-98.5 -22q-69 0 -117.5 31.5z" />
    <glyph glyph-name="d" unicode="d" horiz-adv-x="534" 
d="M511 27v-27h-122l-7 48q-65 -60 -151 -60q-89 0 -135 60t-46 178q0 130 53.5 191.5t144.5 61.5q74 0 129 -47h2v169q0 27 -6 35.5t-25 8.5h-39v27l109 21h27v-622q0 -27 6 -35.5t25 -8.5h35zM379 81v313q-53 59 -121 59q-65 0 -98.5 -52.5t-33.5 -168.5q0 -104 29 -160.5
t94 -56.5q66 0 130 66z" />
    <glyph glyph-name="e" unicode="e" horiz-adv-x="500" 
d="M126 230q0 -215 150 -215q65 0 100.5 34.5t48.5 81.5l25 -8q-17 -61 -61 -98t-129 -37q-107 0 -158.5 63t-51.5 176q0 117 53.5 184.5t158.5 67.5q115 0 153.5 -71t38.5 -171v-7h-328zM127 257h251q0 99 -27.5 147t-89.5 48q-126 0 -134 -195z" />
    <glyph glyph-name="f" unicode="f" horiz-adv-x="301" 
d="M36 27q36 0 49.5 3.5t17.5 14t4 38.5v351h-73v33h73v65q0 81 33 127t106 46q54 0 81.5 -23.5t27.5 -60.5q0 -21 -12 -35t-31 -14t-30.5 11t-11.5 30q0 11 3.5 17t10.5 14t7 15t-12 13t-28 6q-35 0 -56.5 -28.5t-21.5 -82.5v-100h111v-33h-111v-352q0 -27 5 -37.5
t22.5 -14t62.5 -3.5v-27h-227v27z" />
    <glyph glyph-name="g" unicode="g" horiz-adv-x="567" 
d="M523 460.5q19 -18.5 19 -44.5q0 -20 -10.5 -32.5t-28.5 -12.5q-17 0 -28 10t-11 25q0 5 2 11.5t2 11.5q0 8 -6.5 13t-14.5 5q-15 0 -42 -37q24 -37 24 -88q0 -79 -53 -117t-129 -38q-36 0 -64 8q-66 -31 -66 -70q0 -49 105 -49h61q97 0 139 -29t42 -87q0 -78 -63 -115
t-163 -37q-89 0 -143.5 29t-54.5 89q0 33 19.5 58t63.5 43q-29 9 -45.5 31t-16.5 46q0 28 22.5 54.5t67.5 47.5q-40 18 -63 51.5t-23 84.5q0 79 53.5 118t128.5 39q42 0 79 -12t62 -37q37 49 84 49q32 0 51 -18.5zM330.5 227q24.5 33 24.5 101q0 58 -26 91t-82 33
q-55 0 -81.5 -34.5t-26.5 -97.5q0 -58 24.5 -92t78.5 -34q64 0 88.5 33zM168 0q-35 -13 -49.5 -36.5t-14.5 -50.5q0 -46 37.5 -72t103.5 -26q71 0 113 30t42 84q0 37 -26.5 54t-94.5 17h-111z" />
    <glyph glyph-name="h" unicode="h" horiz-adv-x="563" 
d="M461 44.5q4 -10.5 17.5 -14t49.5 -3.5v-27h-208v27q35 0 49 3.5t18 14.5t4 38v244q0 49 -22.5 81.5t-74.5 32.5q-42 0 -70.5 -22t-56.5 -64v-272q0 -27 4 -38t18 -14.5t49 -3.5v-27h-208v27q36 0 49.5 3.5t17.5 14t4 38.5v523q0 25 -6 33.5t-24 8.5h-37v27l106 18h27
v-293h2q28 41 63 60t89 19q71 0 103.5 -34.5t32.5 -108.5v-253q0 -28 4 -38.5z" />
    <glyph glyph-name="i" unicode="i" horiz-adv-x="290" 
d="M105 588q-14 14 -14 34q0 22 13.5 36t35.5 14t35.5 -14t13.5 -36q-1 -21 -14.5 -34.5t-34.5 -13.5t-35 14zM38 27q36 0 49.5 3.5t17.5 14t4 38.5v303q0 25 -6 33.5t-24 8.5h-37v27l106 18h27v-390q0 -27 4 -38t18 -14.5t49 -3.5v-27h-208v27z" />
    <glyph glyph-name="j" unicode="j" horiz-adv-x="243" 
d="M73.5 588q-13.5 14 -13.5 35t13.5 35t35.5 14q21 0 35 -14t14 -35t-14 -35t-35 -14q-22 0 -35.5 14zM-39 -190.5q-27 21.5 -27 54.5q0 24 13 37.5t32 13.5q18 0 30.5 -11.5t12.5 -30.5q0 -12 -6.5 -22.5t-6.5 -16.5q0 -9 8 -14t19 -5q42 0 42 70v501q0 25 -6 33.5
t-24 8.5h-37v27l110 18h23v-500q0 -89 -22.5 -137t-89.5 -48q-44 0 -71 21.5z" />
    <glyph glyph-name="k" unicode="k" horiz-adv-x="502" 
d="M499 27v-27h-183v27h20q25 0 25 11q0 7 -20 36l-124 165l-41 -42v-114q0 -27 4 -38t18 -14.5t49 -3.5v-27h-208v27q36 0 49.5 3.5t17.5 14t4 38.5v523q0 25 -6 33.5t-24 8.5h-37v27l106 18h27v-457l161 160q20 19 20 32q0 12 -19 12h-16v27h158v-27h-15
q-34 0 -57.5 -15.5t-43 -35l-25.5 -25.5l-77 -79l135 -178q37 -49 55 -64.5t37 -15.5h10z" />
    <glyph glyph-name="l" unicode="l" horiz-adv-x="273" 
d="M33 27q36 0 49.5 3.5t17.5 14t4 38.5v523q0 25 -6 33.5t-24 8.5h-37v27l106 18h27v-610q0 -27 4 -38t18 -14.5t49 -3.5v-27h-208v27z" />
    <glyph glyph-name="m" unicode="m" horiz-adv-x="825" 
d="M724 44.5q4 -10.5 17.5 -14t49.5 -3.5v-27h-208v27q36 0 49.5 3.5t17.5 14t4 38.5v244q0 114 -84 114q-40 0 -68.5 -23t-54.5 -63v-272q0 -28 4 -38.5t17.5 -14t49.5 -3.5v-27h-208v27q36 0 49.5 3.5t17.5 14t4 38.5v244q0 114 -84 114q-40 0 -68.5 -23t-54.5 -63v-272
q0 -27 4 -38t18 -14.5t49 -3.5v-27h-208v27q36 0 49.5 3.5t17.5 14t4 38.5v303q0 25 -6 33.5t-24 8.5h-37v27l103 18h27v-78h1q28 42 64 63t89 21q104 0 119 -85q29 42 65 63.5t89 21.5q64 0 93 -34t29 -109v-253q0 -28 4 -38.5z" />
    <glyph glyph-name="n" unicode="n" horiz-adv-x="569" 
d="M468 44.5q4 -10.5 17.5 -14t49.5 -3.5v-27h-208v27q35 0 49 3.5t18 14.5t4 38v244q0 49 -22.5 81.5t-74.5 32.5q-42 0 -70.5 -22t-56.5 -64v-272q0 -27 4 -38t18 -14.5t49 -3.5v-27h-208v27q36 0 49.5 3.5t17.5 14t4 38.5v303q0 25 -6 33.5t-24 8.5h-37v27l103 18h27v-78
h1q30 44 65.5 64t90.5 20q71 0 103.5 -34.5t32.5 -108.5v-253q0 -28 4 -38.5z" />
    <glyph glyph-name="o" unicode="o" horiz-adv-x="516" 
d="M102 51.5q-52 63.5 -52 182.5q0 118 52.5 181.5t155.5 63.5q104 0 156.5 -63.5t52.5 -181.5q0 -119 -52.5 -182.5t-156.5 -63.5t-156 63.5zM358 72q33 57 33 162q0 104 -33 161t-100 57q-66 0 -99.5 -57t-33.5 -161q0 -105 33.5 -162t99.5 -57q67 0 100 57z" />
    <glyph glyph-name="p" unicode="p" horiz-adv-x="548" 
d="M453 419q46 -60 46 -177q0 -131 -53 -192.5t-143 -61.5q-78 0 -133 49v-154q0 -27 4 -38t18 -14.5t49 -3.5v-27h-208v27q36 0 49.5 3.5t17.5 14t4 38.5v503q0 25 -6 33.5t-24 8.5h-37v27l104 18h27v-44h2q24 21 60.5 35.5t85.5 14.5q91 0 137 -60zM389.5 67
q33.5 53 33.5 169q0 104 -29.5 160t-94.5 56t-129 -57v-322q53 -59 123 -59q63 0 96.5 53z" />
    <glyph glyph-name="q" unicode="q" horiz-adv-x="524" 
d="M449 -155q4 -11 18 -14.5t49 -3.5v-27h-208v27q36 0 49.5 3.5t17.5 14t4 38.5v153h-2q-59 -48 -146 -48q-89 0 -135 60t-46 178q0 130 53.5 191.5t144.5 61.5q76 0 131 -49l39 43h27v-590q0 -27 4 -38zM155 71.5q29 -56.5 94 -56.5q68 0 130 58v321q-53 59 -121 59
q-65 0 -98.5 -52.5t-33.5 -168.5q0 -104 29 -160.5z" />
    <glyph glyph-name="r" unicode="r" horiz-adv-x="372" 
d="M346 460q19 -19 19 -56q0 -61 -52 -61q-24 0 -36 12.5t-12 30.5q0 11 4 19t12 17t8 14q0 9 -14 9q-22 0 -46 -22t-39.5 -58.5t-15.5 -76.5v-205q0 -27 4 -38t18 -14.5t49 -3.5v-27h-208v27q36 0 49.5 3.5t17.5 14t4 38.5v303q0 25 -6 33.5t-24 8.5h-37v27l103 18h27v-98
h1q18 31 31.5 50.5t37 36.5t54.5 17q32 0 51 -19z" />
    <glyph glyph-name="s" unicode="s" horiz-adv-x="439" 
d="M176 -6q-19 5 -39 13q-22 9 -32 9t-14.5 -4t-8.5 -15h-19l-11 165h17q19 -76 56.5 -111t93.5 -35q48 0 79 23.5t31 64.5q0 47 -34 70t-90 41l-28 9q-56 18 -86 44.5t-30 75.5q0 61 45 98t117 37q23 0 37.5 -3t31.5 -9q18 -6 24 -6q10 0 13.5 4.5t5 8.5t1.5 5h16l7 -147
h-17q-12 58 -37.5 89t-79.5 31q-47 0 -77 -23t-30 -59t29.5 -59.5t68.5 -34.5l24 -7q78 -23 114 -54t36 -84q0 -64 -46.5 -103t-119.5 -39q-29 0 -48 5z" />
    <glyph glyph-name="t" unicode="t" horiz-adv-x="295" 
d="M121.5 8.5q-26.5 19.5 -26.5 77.5v354h-82v27q55 0 87 41.5t40 107.5h21v-149h113v-27h-113v-351q0 -38 10.5 -53t28.5 -15q17 0 37 11t31 22l11 -23q-25 -21 -45 -31.5t-53 -10.5t-59.5 19.5z" />
    <glyph glyph-name="u" unicode="u" horiz-adv-x="571" 
d="M460 44.5q4 -10.5 17.5 -14t49.5 -3.5v-27h-136v71h-2q-28 -41 -64.5 -62t-91.5 -21q-68 0 -100.5 35t-32.5 108v255q0 25 -6 33.5t-24 8.5h-37v27l106 18h27v-333q0 -50 22 -82t73 -32q42 0 72 22.5t56 63.5l1 274q0 25 -6 33.5t-24 8.5h-37v27l106 18h27v-390
q0 -28 4 -38.5z" />
    <glyph glyph-name="v" unicode="v" horiz-adv-x="467" 
d="M62 397q-12 27 -23.5 35t-44.5 8v27h194v-27h-43q-19 0 -19 -18q0 -7 3 -15l115 -321h2l119 323q2 8 2 11q0 9 -4 14.5t-12 5.5h-47v27h159v-27q-32 0 -45 -8t-24 -33l-154 -399h-33z" />
    <glyph glyph-name="w" unicode="w" horiz-adv-x="692" 
d="M60 399q-8 26 -20.5 33.5t-42.5 7.5v27h181v-27h-33q-19 0 -19 -19q0 -3 2 -13l94 -333h2l111 381h42l120 -381h2l85 329q3 11 3 17q0 10 -6 14.5t-20 4.5h-44v27h168v-27q-27 0 -40 -4t-20 -15t-14 -37l-111 -384h-43l-117 373h-3l-112 -373h-43z" />
    <glyph glyph-name="x" unicode="x" horiz-adv-x="481" 
d="M420.5 35.5q14.5 -8.5 50.5 -8.5v-27h-201v27h40q14 0 14 12q0 9 -7 20l-98 147l-98 -151q-4 -7 -4 -13q0 -15 18 -15h33v-27h-158v27q33 0 52 8.5t36 33.5l109 155l-120 180q-17 23 -29 29.5t-41 6.5v27h175v-27h-26q-16 0 -16 -13q0 -6 5 -14l90 -133l92 134q6 9 6 15
q0 11 -14 11h-36v27h153v-27q-37 0 -51.5 -6.5t-31.5 -29.5l-106 -142l132 -194q17 -24 31.5 -32.5z" />
    <glyph glyph-name="y" unicode="y" horiz-adv-x="462" 
d="M458 467v-27q-27 0 -40 -4.5t-19.5 -14t-14.5 -30.5l-203 -530q-15 -40 -31.5 -56.5t-51.5 -16.5q-36 0 -57 20t-21 48q0 21 13 35t32 14q15 0 27.5 -9.5t12.5 -27.5q0 -11 -6 -21.5t-6 -17.5q0 -14 17 -14q15 0 24 14.5t28 63.5l40 105l-146 392q-12 32 -24.5 41
t-45.5 9v27h192v-27h-35q-24 0 -24 -17q0 -5 4 -17l112 -320h1l121 317q4 11 4 19q0 18 -24 18h-43v27h164z" />
    <glyph glyph-name="z" unicode="z" horiz-adv-x="459" 
d="M44 27l296 413h-110q-52 0 -76.5 -8.5t-34.5 -30t-17 -69.5h-27v135h335v-27l-296 -413h139q54 0 82 9.5t42 33t22 70.5h27l-10 -140h-372v27z" />
    <glyph glyph-name="braceleft" unicode="{" horiz-adv-x="267" 
d="M144.5 -103.5q-25.5 18.5 -32.5 48t-7 77.5v34v97q0 54 -17 81t-48 26v18q30 -1 47.5 27.5t17.5 79.5v97v31q0 46 7 76.5t32.5 50.5t77.5 20h15v-27q-37 -1 -53.5 -16.5t-19.5 -37.5t-3 -65v-98q0 -65 -15 -98t-62 -46v-6q47 -13 62 -46t15 -98v-98q0 -43 3 -65
t19.5 -37.5t53.5 -16.5v-27h-15q-52 0 -77.5 18.5z" />
    <glyph glyph-name="bar" unicode="|" horiz-adv-x="258" 
d="M103 729h52v-927h-52v927z" />
    <glyph glyph-name="braceright" unicode="}" horiz-adv-x="267" 
d="M30 -95q37 1 53.5 16.5t19.5 37.5t3 65v98q0 65 15 98t62 46v6q-47 13 -62 46t-15 98v97q0 44 -3 66t-19.5 37.5t-53.5 16.5v27h15q52 0 77.5 -20t32.5 -50.5t7 -76.5v-31v-97q0 -51 17.5 -79.5t47.5 -27.5v-18q-31 1 -48 -26t-17 -81v-97v-34q0 -48 -7 -77.5t-32.5 -48
t-77.5 -18.5h-15v27z" />
    <glyph glyph-name="asciitilde" unicode="~" horiz-adv-x="541" 
d="M58 212q41 79 116 79q22 0 47.5 -8t58.5 -23l19 -8q21 -8 42 -15t35 -7q22 0 40 18t37 49l33 -40q-28 -39 -52.5 -59t-63.5 -20q-24 0 -45.5 7.5t-56.5 23.5q-5 2 -25.5 11t-39 14t-34.5 5q-28 0 -46.5 -18.5t-31.5 -48.5z" />
    <glyph glyph-name="exclamdown" unicode="&#xa1;" horiz-adv-x="267" 
d="M102.5 394.5q-13.5 13.5 -13.5 33.5q0 19 13 32.5t33 13.5q19 0 32 -13.5t13 -32.5q0 -20 -13 -33.5t-32 -13.5t-32.5 13.5zM89 -148q0 14 2.5 43.5t4.5 42.5l23 368h31l24 -368l3 -30q1 -10 2 -22.5t1 -27.5q0 -30 -10 -44.5t-35 -14.5q-46 0 -46 53z" />
    <glyph glyph-name="cent" unicode="&#xa2;" horiz-adv-x="485" 
d="M390.5 122q-36.5 -33 -116.5 -36v-86h-38v87q-95 8 -141 71t-46 164q0 96 41.5 163.5t145.5 78.5v96h38v-94q62 0 108.5 -24t46.5 -72q0 -25 -14 -40t-40 -15q-24 0 -38.5 13t-14.5 37q0 17 8 29.5t8 17.5q0 12 -16.5 17t-38.5 5h-9v-421h3q59 0 92.5 27t42.5 60l24 -13
q-9 -32 -45.5 -65zM236 117v411q-51 -14 -81 -64.5t-30 -145.5q0 -174 111 -201z" />
    <glyph glyph-name="sterling" unicode="&#xa3;" horiz-adv-x="492" 
d="M456 138l-39 -138h-357v55q55 41 77.5 70.5t22.5 73.5q0 39 -21 107l-3 9h-97v38h85l-26 85q-15 48 -15 87q0 69 44 108t126 39q77 0 123.5 -33.5t46.5 -92.5q0 -32 -14 -47.5t-36 -15.5t-35 13.5t-13 33.5q0 17 12 33q4 6 7 12.5t3 13.5q0 22 -24.5 39t-75.5 17
q-52 0 -75 -20t-23 -62t24 -119l29 -91h161v-38h-150q13 -49 13 -91q0 -95 -70 -141v-3h194q37 0 53.5 8t23.5 26l10 24h19z" />
    <glyph glyph-name="currency" unicode="&#xa4;" horiz-adv-x="517" 
d="M28 136l50 53q-50 62 -50 140q0 88 50 142l-50 53l37 36l50 -50q30 24 68 37t78 13q37 0 73.5 -12.5t67.5 -37.5l49 50l38 -37l-49 -50q24 -28 36 -65t12 -77q0 -82 -48 -143l49 -52l-38 -37l-49 54q-29 -26 -66 -39.5t-76 -13.5q-86 0 -145 53l-50 -54zM351 167
q40 25 62.5 68.5t22.5 95.5q0 51 -22.5 93.5t-62.5 68t-90 25.5q-52 0 -93 -24.5t-64 -68t-23 -96.5t23 -95.5t64 -67t92 -24.5t91 25z" />
    <glyph glyph-name="yen" unicode="&#xa5;" horiz-adv-x="516" 
d="M522 660v-27q-26 0 -41 -12t-35 -51l-131 -253h111v-38h-119v-66h119v-38h-119v-86q0 -30 4.5 -41.5t23 -16t63.5 -4.5v-27h-256v27q45 0 63.5 4.5t23 16t4.5 41.5v86h-127v38h127v66h-127v38h110l-151 268q-18 32 -31.5 40t-39.5 8v27h201v-27h-48q-9 0 -16 -4.5
t-7 -14.5q0 -12 8 -25l148 -267h2l139 273q4 7 4 15q0 10 -8.5 16.5t-25.5 6.5h-34v27h165z" />
    <glyph glyph-name="brokenbar" unicode="&#xa6;" horiz-adv-x="258" 
d="M104 613h52v-232h-52v232zM104 149h52v-232h-52v232z" />
    <glyph glyph-name="section" unicode="&#xa7;" horiz-adv-x="504" 
d="M377 61q3 -15 3 -32q0 -70 -39 -104t-106 -34q-62 0 -100 27t-38 78q0 27 12 41t33 14q18 0 30.5 -10.5t12.5 -31.5q0 -12 -4 -18.5t-11 -12.5q-11 -7 -11 -18q0 -20 26.5 -31t59.5 -11q43 0 72 20.5t29 58.5q0 20 -10 36t-36 35t-77 50l-46 28q-62 38 -90.5 79.5
t-28.5 111.5q0 111 75 161q-4 15 -4 36q0 66 39.5 99.5t106.5 33.5q61 0 99 -27t38 -78q0 -27 -12 -41t-33 -14q-18 0 -30.5 10.5t-12.5 31.5q0 12 4 18.5t11 12.5q11 7 11 18q0 20 -26 31t-59 11q-44 0 -73 -21t-29 -56q0 -26 17 -47t38.5 -35t72.5 -44l27 -16
q71 -42 102 -87t31 -114q0 -108 -74 -159zM334.5 135q22.5 -21 33.5 -45q22 19 35.5 47t13.5 62q0 44 -25.5 73t-85.5 65l-42 25q-51 30 -79.5 55t-41.5 53q-23 -19 -37 -47.5t-14 -60.5q0 -33 15.5 -57.5t42.5 -45t80 -53.5l42 -26q40 -24 62.5 -45z" />
    <glyph glyph-name="dieresis" unicode="&#xa8;" horiz-adv-x="386" 
d="M77 587.5q-13 12.5 -13 30.5t13 31t31 13t31 -13t13 -31t-13 -30.5t-31 -12.5t-31 12.5zM246 587.5q-13 12.5 -13 30.5t13.5 31t30.5 13q18 0 31.5 -13t13.5 -31t-13.5 -30.5t-31.5 -12.5t-31 12.5z" />
    <glyph glyph-name="copyright" unicode="&#xa9;" horiz-adv-x="750" 
d="M202.5 31.5q-79.5 46.5 -126 126t-46.5 172.5t46.5 172.5t126 126t172.5 46.5t172.5 -46.5t126 -126t46.5 -172.5t-46.5 -172.5t-126 -126t-172.5 -46.5t-172.5 46.5zM522.5 63q67.5 40 106.5 110.5t39 156.5t-39 156.5t-106.5 110.5t-147.5 40t-147.5 -40t-106.5 -110.5
t-39 -156.5t39 -156.5t106.5 -110.5t147.5 -40t147.5 40zM279.5 159q-42.5 26 -65.5 71t-23 100q0 57 25.5 101t69.5 68t97 24q24 0 40.5 -4t36.5 -11q20 -6 24 -6q9 0 12 8l3 6h15l6 -109h-16q-21 89 -116 89q-75 0 -106 -49t-31 -115q0 -71 32.5 -121.5t105.5 -50.5
q55 0 86 20t45 48l16 -7q-16 -36 -54 -62t-104 -26q-56 0 -98.5 26z" />
    <glyph glyph-name="ordfeminine" unicode="&#xaa;" horiz-adv-x="299" 
d="M289 372q-13 -7 -24 -11t-32 -4q-14 0 -22.5 6.5t-11.5 29.5q-24 -19 -45 -28t-46 -9q-35 0 -56.5 16.5t-21.5 48.5q0 44 43 77.5t125 46.5v33q0 71 -52 71q-22 0 -40.5 -10.5t-18.5 -19.5q0 -3 8.5 -10.5t8.5 -20.5q0 -12 -7.5 -19.5t-21.5 -7.5q-29 0 -29 33
q0 29 27 50.5t83 21.5q45 0 66.5 -17.5t21.5 -59.5v-156q0 -25 5.5 -34t18.5 -9q5 0 17 4zM198 413v111q-115 -26 -115 -92q0 -44 47 -44q33 0 68 25z" />
    <glyph glyph-name="guillemotleft" unicode="&#xab;" horiz-adv-x="495" 
d="M42 247l211 221h20l-138 -221l138 -222h-20zM223 247l211 221h20l-138 -221l138 -222h-20z" />
    <glyph glyph-name="logicalnot" unicode="&#xac;" horiz-adv-x="540" 
d="M450 299h-417v52h469v-251h-52v199z" />
    <glyph glyph-name="registered" unicode="&#xae;" horiz-adv-x="461" 
d="M130 301q-46 27 -73 73t-27 101q0 54 27 100t73 73t101 27q54 0 100 -27t73 -73t27 -100q0 -55 -27 -101t-73 -73t-100 -27q-55 0 -101 27zM311.5 328q36.5 22 58 60.5t21.5 86.5q0 47 -21.5 85.5t-58 60.5t-80.5 22t-81 -22t-58.5 -60.5t-21.5 -85.5q0 -48 21.5 -86.5
t58.5 -60.5t81 -22t80.5 22zM143 384q15 0 19 3.5t4 14.5v143q0 12 -3.5 15t-19.5 3v13h97q32 0 51 -12.5t19 -37.5q0 -36 -42 -52v-1q15 -7 20.5 -15t10.5 -31l3 -12q1 -4 3 -14t7 -13.5t14 -3.5v-11h-49q-1 3 -5 10.5t-7 21.5l-6 29q-3 15 -5.5 21t-9.5 9t-23 3h-16v-65
q0 -12 4.5 -15t21.5 -3v-11h-88v11zM221 481q29 0 38.5 8.5t9.5 29.5q0 24 -9 33t-33 9q-14 0 -18 -2.5t-4 -7.5v-70h16z" />
    <glyph glyph-name="macron" unicode="&#xaf;" horiz-adv-x="382" 
d="M76 616h230v-46h-230v46z" />
    <glyph glyph-name="degree" unicode="&#xb0;" horiz-adv-x="340" 
d="M103.5 422q-30.5 18 -48 48.5t-17.5 66.5q0 56 38.5 94t93.5 38q56 0 94.5 -38t38.5 -94q0 -36 -17.5 -66.5t-48 -48.5t-67.5 -18q-36 0 -66.5 18zM238.5 470q26.5 28 26.5 67t-26.5 66.5t-68.5 27.5q-41 0 -67.5 -27.5t-26.5 -66.5t26.5 -67t67.5 -28q42 0 68.5 28z" />
    <glyph glyph-name="plusminus" unicode="&#xb1;" horiz-adv-x="541" 
d="M244 253h-208v52h208v164h52v-164h209v-52h-209v-164h-52v164zM36 52h469v-52h-469v52z" />
    <glyph glyph-name="uni00B2" unicode="&#xb2;" horiz-adv-x="345" 
d="M31 270q0 37 29 74.5t83 81.5q33 27 49 43t29.5 41t13.5 57q0 39 -20.5 60t-57.5 21q-25 0 -41 -9.5t-16 -22.5q0 -6 6.5 -14.5t6.5 -17.5q0 -15 -9.5 -24t-24.5 -9q-16 0 -25.5 10t-9.5 29q0 37 36 57t87 20q60 0 93.5 -28.5t33.5 -79.5q0 -31 -12.5 -53t-33 -39
t-57.5 -41q-58 -38 -86.5 -65t-29.5 -48h147q36 0 48.5 8.5t18.5 29.5h18l-23 -87h-253v6z" />
    <glyph glyph-name="uni00B3" unicode="&#xb3;" horiz-adv-x="347" 
d="M64 277.5q-36 20.5 -36 55.5q0 18 10 28t27 10q15 0 23.5 -8t8.5 -23q0 -11 -6 -19t-6 -13q0 -14 18 -23t45 -9q45 0 69 26.5t24 74.5q0 93 -96 93q-16 0 -27 -1v23q9 -1 27 -1q37 0 57.5 22.5t20.5 57.5q0 34 -19 55.5t-53 21.5q-23 0 -40 -9t-17 -22q0 -5 6 -13.5
t6 -18.5q0 -14 -9 -22t-24 -8q-16 0 -25.5 9.5t-9.5 27.5q0 35 36 55t88 20q54 0 86.5 -24t32.5 -70q0 -36 -21 -59t-61 -30v-2q42 -2 71.5 -29.5t29.5 -77.5q0 -55 -39.5 -86.5t-106.5 -31.5q-54 0 -90 20.5z" />
    <glyph glyph-name="acute" unicode="&#xb4;" horiz-adv-x="382" 
d="M216 716q8 16 17 23.5t22 7.5q12 0 21 -9.5t9 -22.5q0 -10 -4.5 -17.5t-19.5 -23.5l-103 -112h-18z" />
    <glyph glyph-name="uni00B5" unicode="&#xb5;" horiz-adv-x="528" 
d="M454 44.5q4 -10.5 17.5 -14t49.5 -3.5v-27h-136v71h-2q-28 -41 -64.5 -62t-91.5 -21q-59 0 -92 27l6 -42q12 -88 12 -129q0 -56 -42 -56q-15 0 -23.5 16.5t-8.5 39.5q0 24 6 98q9 110 9 175v269q0 25 -6 33.5t-24 8.5h-37v27l106 18h27v-333q0 -50 22 -82t73 -32
q42 0 72 22.5t56 63.5l1 274q0 25 -6 33.5t-24 8.5h-37v27l106 18h27v-390q0 -28 4 -38.5z" />
    <glyph glyph-name="paragraph" unicode="&#xb6;" horiz-adv-x="496" 
d="M212 251q-75 11 -120.5 66t-45.5 139q0 93 54.5 148.5t148.5 55.5h5v-790h-42v381zM314 660h129v-27h-34q-25 0 -36 -6t-14 -16t-3 -27v-714h-42v790z" />
    <glyph glyph-name="periodcentered" unicode="&#xb7;" horiz-adv-x="313" 
d="M118.5 246q-15.5 16 -15.5 38t15.5 37.5t37.5 15.5t38 -15.5t16 -37.5t-15.5 -38t-38.5 -16q-22 0 -37.5 16z" />
    <glyph glyph-name="cedilla" unicode="&#xb8;" horiz-adv-x="401" 
d="M111 -163l11 25q24 -12 53 -12q22 0 36.5 9.5t14.5 26.5q0 16 -12.5 26t-26.5 10q-9 0 -18 -3.5t-12 -4.5l-10 5l36 82h31l-24 -54q12 3 27 3q20 0 39 -15.5t19 -44.5q0 -35 -25.5 -51.5t-60.5 -16.5q-45 0 -78 15z" />
    <glyph glyph-name="uni00B9" unicode="&#xb9;" horiz-adv-x="298" 
d="M69 282h33q22 0 29.5 5.5t7.5 22.5v303q-56 -26 -92 -39v22q27 12 58 31.5t45 32.5h41v-350q0 -17 7 -22.5t29 -5.5h33v-18h-191v18z" />
    <glyph glyph-name="ordmasculine" unicode="&#xba;" horiz-adv-x="337" 
d="M66.5 396q-34.5 40 -34.5 114q0 75 34.5 115.5t101.5 40.5q68 0 102.5 -40.5t34.5 -115.5q0 -74 -34.5 -114t-102.5 -40q-67 0 -101.5 40zM229 408.5q19 35.5 21 101.5q-2 68 -21 103.5t-61 35.5q-41 0 -60 -36t-20 -103q2 -137 80 -137q42 0 61 35.5z" />
    <glyph glyph-name="guillemotright" unicode="&#xbb;" horiz-adv-x="495" 
d="M180 247l-138 221h20l211 -221l-211 -222h-20zM361 247l-138 221h20l211 -221l-211 -222h-20z" />
    <glyph glyph-name="onequarter" unicode="&#xbc;" horiz-adv-x="818" 
d="M591 672h38l-368 -684h-37zM106 282h33q22 0 29.5 5.5t7.5 22.5v303q-56 -26 -92 -39v22q27 12 58 31.5t45 32.5h41v-350q0 -17 7 -22.5t29 -5.5h33v-18h-191v18zM571 18h29q12 0 16.5 5.5t4.5 17.5v70h-181v32q103 152 193 258h39v-252h61v-38h-61v-70q0 -12 4 -17.5
t16 -5.5h24v-18h-145v18zM621 149v196h-2q-78 -96 -148 -196h150z" />
    <glyph glyph-name="onehalf" unicode="&#xbd;" horiz-adv-x="851" 
d="M585 672h38l-368 -684h-37zM106 282h33q22 0 29.5 5.5t7.5 22.5v303q-56 -26 -92 -39v22q27 12 58 31.5t45 32.5h41v-350q0 -17 7 -22.5t29 -5.5h33v-18h-191v18zM509 6q0 37 28.5 73.5t83.5 82.5q33 27 49 43t29.5 41t13.5 57q0 39 -20.5 60t-57.5 21q-25 0 -41 -9.5
t-16 -22.5q0 -6 6.5 -14.5t6.5 -17.5q0 -15 -9.5 -24t-24.5 -9q-16 0 -25.5 10t-9.5 29q0 37 36 57t87 20q60 0 93.5 -28.5t33.5 -79.5q0 -31 -12.5 -53t-33 -39t-57.5 -41q-58 -38 -86.5 -65t-29.5 -48h147q36 0 48.5 8.5t18.5 29.5h18l-23 -87h-253v6z" />
    <glyph glyph-name="threequarters" unicode="&#xbe;" horiz-adv-x="802" 
d="M599 672h38l-368 -684h-37zM94 277.5q-36 20.5 -36 55.5q0 18 10 28t27 10q15 0 23.5 -8t8.5 -23q0 -11 -6 -19t-6 -13q0 -14 18 -23t45 -9q45 0 69 26.5t24 74.5q0 93 -96 93q-16 0 -27 -1v23q9 -1 27 -1q37 0 57.5 22.5t20.5 57.5q0 34 -19 55.5t-53 21.5q-23 0 -40 -9
t-17 -22q0 -5 6 -13.5t6 -18.5q0 -14 -9 -22t-24 -8q-16 0 -25.5 9.5t-9.5 27.5q0 35 36 55t88 20q54 0 86.5 -24t32.5 -70q0 -36 -21 -59t-61 -30v-2q42 -2 71.5 -29.5t29.5 -77.5q0 -55 -39.5 -86.5t-106.5 -31.5q-54 0 -90 20.5zM571 18h29q12 0 16.5 5.5t4.5 17.5v70
h-181v32q103 152 193 258h39v-252h61v-38h-61v-70q0 -12 4 -17.5t16 -5.5h24v-18h-145v18zM621 149v196h-2q-78 -96 -148 -196h150z" />
    <glyph glyph-name="questiondown" unicode="&#xbf;" horiz-adv-x="450" 
d="M218.5 399q-13.5 14 -13.5 33t13.5 32.5t32.5 13.5q20 0 33 -13.5t13 -32.5t-13 -33t-33 -14q-19 0 -32.5 14zM101.5 -172.5q-47.5 33.5 -47.5 104.5q0 41 14 74.5t33.5 57.5t52.5 58q41 41 61 70.5t20 67.5v43h34v-43q0 -52 -17 -86t-50 -74q-34 -42 -51 -77t-17 -90
q0 -53 23.5 -84t67.5 -31q32 0 60.5 11.5t28.5 34.5q0 8 -3 13t-9 11q-8 7 -12 14.5t-4 21.5q0 20 11.5 31.5t32.5 11.5q22 0 34.5 -17t12.5 -44q0 -53 -44 -82.5t-110 -29.5q-74 0 -121.5 33.5z" />
    <glyph glyph-name="Agrave" unicode="&#xc0;" horiz-adv-x="632" 
d="M569.5 47q7.5 -12 20 -16t37.5 -4v-27h-204v27h33q30 0 30 24q0 11 -4 22l-66 181h-232l-68 -183q-4 -16 -4 -21q0 -23 28 -23h29v-27h-160v27q26 0 40 5.5t21.5 18.5t17.5 42l214 567h40l212 -575q8 -26 15.5 -38zM403 288l-101 276h-3l-102 -276h206zM270 867
q-15 16 -19.5 23.5t-4.5 17.5q0 13 9 22.5t21 9.5q13 0 22 -7.5t17 -23.5l76 -154h-18z" />
    <glyph glyph-name="Aacute" unicode="&#xc1;" horiz-adv-x="632" 
d="M569.5 47q7.5 -12 20 -16t37.5 -4v-27h-204v27h33q30 0 30 24q0 11 -4 22l-66 181h-232l-68 -183q-4 -16 -4 -21q0 -23 28 -23h29v-27h-160v27q26 0 40 5.5t21.5 18.5t17.5 42l214 567h40l212 -575q8 -26 15.5 -38zM403 288l-101 276h-3l-102 -276h206zM322 909
q8 16 17 23.5t22 7.5q12 0 21 -9.5t9 -22.5q0 -10 -4.5 -17.5t-19.5 -23.5l-103 -112h-18z" />
    <glyph glyph-name="Acircumflex" unicode="&#xc2;" horiz-adv-x="632" 
d="M569.5 47q7.5 -12 20 -16t37.5 -4v-27h-204v27h33q30 0 30 24q0 11 -4 22l-66 181h-232l-68 -183q-4 -16 -4 -21q0 -23 28 -23h29v-27h-160v27q26 0 40 5.5t21.5 18.5t17.5 42l214 567h40l212 -575q8 -26 15.5 -38zM403 288l-101 276h-3l-102 -276h206zM289 890h59
l92 -140h-34l-87 88l-88 -88h-34z" />
    <glyph glyph-name="Atilde" unicode="&#xc3;" horiz-adv-x="632" 
d="M569.5 47q7.5 -12 20 -16t37.5 -4v-27h-204v27h33q30 0 30 24q0 11 -4 22l-66 181h-232l-68 -183q-4 -16 -4 -21q0 -23 28 -23h29v-27h-160v27q26 0 40 5.5t21.5 18.5t17.5 42l214 567h40l212 -575q8 -26 15.5 -38zM403 288l-101 276h-3l-102 -276h206zM307 776
q-40 19 -59 19q-18 0 -29.5 -12t-11.5 -27h-19q0 41 21 64.5t56 23.5q27 0 69 -18q14 -6 29 -11t27 -5q19 0 30 11t11 24h19q0 -35 -22.5 -62t-54.5 -27q-24 0 -66 20z" />
    <glyph glyph-name="Adieresis" unicode="&#xc4;" horiz-adv-x="632" 
d="M569.5 47q7.5 -12 20 -16t37.5 -4v-27h-204v27h33q30 0 30 24q0 11 -4 22l-66 181h-232l-68 -183q-4 -16 -4 -21q0 -23 28 -23h29v-27h-160v27q26 0 40 5.5t21.5 18.5t17.5 42l214 567h40l212 -575q8 -26 15.5 -38zM403 288l-101 276h-3l-102 -276h206zM203 780.5
q-13 12.5 -13 30.5t13 31t31 13t31 -13t13 -31t-13 -30.5t-31 -12.5t-31 12.5zM372 780.5q-13 12.5 -13 30.5t13.5 31t30.5 13q18 0 31.5 -13t13.5 -31t-13.5 -30.5t-31.5 -12.5t-31 12.5z" />
    <glyph glyph-name="Aring" unicode="&#xc5;" horiz-adv-x="632" 
d="M569.5 47q7.5 -12 20 -16t37.5 -4v-27h-204v27h33q30 0 30 24q0 11 -4 22l-66 181h-232l-68 -183q-4 -16 -4 -21q0 -23 28 -23h29v-27h-160v27q26 0 40 5.5t21.5 18.5t17.5 42l214 567h40l212 -575q8 -26 15.5 -38zM403 288l-101 276h-3l-102 -276h206zM259.5 750
q-24.5 25 -24.5 59t24.5 58.5t59.5 24.5q34 0 58.5 -24t24.5 -59t-24.5 -59.5t-58.5 -24.5q-35 0 -59.5 25zM357.5 770q15.5 16 15.5 39t-16 38.5t-38 15.5q-23 0 -39 -16t-16 -38q0 -23 16 -39t39 -16t38.5 16z" />
    <glyph glyph-name="AE" unicode="&#xc6;" horiz-adv-x="872" 
d="M831 165l-11 -165h-473v27q38 0 53 4.5t19 16.5t4 43v235h-159l-137 -265q-3 -7 -3 -15t4.5 -13.5t12.5 -5.5h53v-27h-185v27q34 0 48.5 8.5t28.5 37.5l279 527q7 13 7 20t-4.5 9.5t-13.5 3.5h-57v27h499v-156h-24q-7 53 -20 79t-42 36t-87 10h-93q-23 0 -29.5 -7
t-6.5 -30v-232h124q40 0 58 7.5t24 23.5t11 51h24v-199h-24q-5 35 -11 51t-24 24t-58 8h-124v-207q0 -41 11 -59.5t35 -23.5t77 -5q66 0 101.5 9.5t56.5 37.5t32 87h24zM423 360v262h-6l-135 -262h141z" />
    <glyph glyph-name="Ccedilla" unicode="&#xc7;" horiz-adv-x="649" 
d="M351 -12l-18 -41q12 3 27 3q20 0 39 -15.5t19 -44.5q0 -35 -25.5 -51.5t-60.5 -16.5q-45 0 -78 15l11 25q24 -12 53 -12q22 0 36.5 9.5t14.5 26.5q0 16 -12.5 26t-26.5 10q-9 0 -18 -3.5t-12 -4.5l-10 5l31 71q-125 12 -194.5 101.5t-69.5 230.5q0 106 37 185t107.5 122
t168.5 43q43 0 72 -7.5t58 -19.5q23 -10 34 -10q9 0 15 4t8 10l3 11h27l10 -174h-27q-19 65 -61.5 110.5t-133.5 45.5q-84 0 -135.5 -48.5t-73 -119.5t-21.5 -145q0 -81 25 -151.5t77.5 -115t131.5 -44.5q58 0 96 19t59 47.5t41 70.5l25 -13q-19 -43 -44 -75t-73 -55.5
t-124 -23.5h-8z" />
    <glyph glyph-name="Egrave" unicode="&#xc8;" horiz-adv-x="580" 
d="M53 27q38 0 53 4t19 15.5t4 42.5v482q0 30 -4 41.5t-19 16t-53 4.5v27h451v-156h-27q-7 54 -19.5 79.5t-40.5 35.5t-86 10h-93q-23 0 -29 -6t-6 -31v-232h122q40 0 58 7.5t24.5 23.5t11.5 51h24v-199h-24q-5 36 -11.5 51.5t-24.5 23.5t-58 8h-122v-212q0 -37 9.5 -54.5
t34.5 -23.5t79 -6q66 0 101 9.5t54.5 37.5t30.5 88h27l-11 -165h-475v27zM252 867q-15 16 -19.5 23.5t-4.5 17.5q0 13 9 22.5t21 9.5q13 0 22 -7.5t17 -23.5l76 -154h-18z" />
    <glyph glyph-name="Eacute" unicode="&#xc9;" horiz-adv-x="580" 
d="M53 27q38 0 53 4t19 15.5t4 42.5v482q0 30 -4 41.5t-19 16t-53 4.5v27h451v-156h-27q-7 54 -19.5 79.5t-40.5 35.5t-86 10h-93q-23 0 -29 -6t-6 -31v-232h122q40 0 58 7.5t24.5 23.5t11.5 51h24v-199h-24q-5 36 -11.5 51.5t-24.5 23.5t-58 8h-122v-212q0 -37 9.5 -54.5
t34.5 -23.5t79 -6q66 0 101 9.5t54.5 37.5t30.5 88h27l-11 -165h-475v27zM304 909q8 16 17 23.5t22 7.5q12 0 21 -9.5t9 -22.5q0 -10 -4.5 -17.5t-19.5 -23.5l-103 -112h-18z" />
    <glyph glyph-name="Ecircumflex" unicode="&#xca;" horiz-adv-x="580" 
d="M53 27q38 0 53 4t19 15.5t4 42.5v482q0 30 -4 41.5t-19 16t-53 4.5v27h451v-156h-27q-7 54 -19.5 79.5t-40.5 35.5t-86 10h-93q-23 0 -29 -6t-6 -31v-232h122q40 0 58 7.5t24.5 23.5t11.5 51h24v-199h-24q-5 36 -11.5 51.5t-24.5 23.5t-58 8h-122v-212q0 -37 9.5 -54.5
t34.5 -23.5t79 -6q66 0 101 9.5t54.5 37.5t30.5 88h27l-11 -165h-475v27zM271 890h59l92 -140h-34l-87 88l-88 -88h-34z" />
    <glyph glyph-name="Edieresis" unicode="&#xcb;" horiz-adv-x="580" 
d="M53 27q38 0 53 4t19 15.5t4 42.5v482q0 30 -4 41.5t-19 16t-53 4.5v27h451v-156h-27q-7 54 -19.5 79.5t-40.5 35.5t-86 10h-93q-23 0 -29 -6t-6 -31v-232h122q40 0 58 7.5t24.5 23.5t11.5 51h24v-199h-24q-5 36 -11.5 51.5t-24.5 23.5t-58 8h-122v-212q0 -37 9.5 -54.5
t34.5 -23.5t79 -6q66 0 101 9.5t54.5 37.5t30.5 88h27l-11 -165h-475v27zM185 780.5q-13 12.5 -13 30.5t13 31t31 13t31 -13t13 -31t-13 -30.5t-31 -12.5t-31 12.5zM354 780.5q-13 12.5 -13 30.5t13.5 31t30.5 13q18 0 31.5 -13t13.5 -31t-13.5 -30.5t-31.5 -12.5t-31 12.5z
" />
    <glyph glyph-name="Igrave" unicode="&#xcc;" horiz-adv-x="331" 
d="M53 27q38 0 53 4.5t19 16t4 41.5v482q0 30 -4 41.5t-19 16t-53 4.5v27h226v-27q-38 0 -53 -4.5t-19 -16t-4 -41.5v-482q0 -30 4 -41.5t19 -16t53 -4.5v-27h-226v27zM117 867q-15 16 -19.5 23.5t-4.5 17.5q0 13 9 22.5t21 9.5q13 0 22 -7.5t17 -23.5l76 -154h-18z" />
    <glyph glyph-name="Iacute" unicode="&#xcd;" horiz-adv-x="331" 
d="M53 27q38 0 53 4.5t19 16t4 41.5v482q0 30 -4 41.5t-19 16t-53 4.5v27h226v-27q-38 0 -53 -4.5t-19 -16t-4 -41.5v-482q0 -30 4 -41.5t19 -16t53 -4.5v-27h-226v27zM169 909q8 16 17 23.5t22 7.5q12 0 21 -9.5t9 -22.5q0 -10 -4.5 -17.5t-19.5 -23.5l-103 -112h-18z" />
    <glyph glyph-name="Icircumflex" unicode="&#xce;" horiz-adv-x="331" 
d="M53 27q38 0 53 4.5t19 16t4 41.5v482q0 30 -4 41.5t-19 16t-53 4.5v27h226v-27q-38 0 -53 -4.5t-19 -16t-4 -41.5v-482q0 -30 4 -41.5t19 -16t53 -4.5v-27h-226v27zM136 890h59l92 -140h-34l-87 88l-88 -88h-34z" />
    <glyph glyph-name="Idieresis" unicode="&#xcf;" horiz-adv-x="331" 
d="M53 27q38 0 53 4.5t19 16t4 41.5v482q0 30 -4 41.5t-19 16t-53 4.5v27h226v-27q-38 0 -53 -4.5t-19 -16t-4 -41.5v-482q0 -30 4 -41.5t19 -16t53 -4.5v-27h-226v27zM50 780.5q-13 12.5 -13 30.5t13 31t31 13t31 -13t13 -31t-13 -30.5t-31 -12.5t-31 12.5zM219 780.5
q-13 12.5 -13 30.5t13.5 31t30.5 13q18 0 31.5 -13t13.5 -31t-13.5 -30.5t-31.5 -12.5t-31 12.5z" />
    <glyph glyph-name="Eth" unicode="&#xd0;" horiz-adv-x="718" 
d="M577 575q84 -83 84 -233q0 -107 -40.5 -184t-116 -117.5t-179.5 -40.5h-267v27q38 0 53 4t19 15.5t4 42.5v226h-81v36h81v220q0 30 -4 41.5t-19 16t-53 4.5v27h286q149 -2 233 -85zM499.5 99.5q73.5 69.5 73.5 238.5q0 131 -60.5 209.5t-194.5 81.5q-54 0 -75.5 -3.5
t-28 -14.5t-6.5 -39v-221h210v-36h-210v-196q0 -38 10.5 -57t31 -25.5t57.5 -6.5q119 0 192.5 69.5z" />
    <glyph glyph-name="Ntilde" unicode="&#xd1;" horiz-adv-x="691" 
d="M154 570h-2v-491q0 -28 11.5 -40t38.5 -12h36v-27h-196v27h29q24 0 35.5 12.5t11.5 39.5v497q0 26 -5 37.5t-20.5 15.5t-51.5 4v27h153l346 -523h2v448q0 48 -51 48h-35v27h196v-27h-30q-46 0 -46 -48v-591h-33zM348 776q-40 19 -59 19q-18 0 -29.5 -12t-11.5 -27h-19
q0 41 21 64.5t56 23.5q27 0 69 -18q14 -6 29 -11t27 -5q19 0 30 11t11 24h19q0 -35 -22.5 -62t-54.5 -27q-24 0 -66 20z" />
    <glyph glyph-name="Ograve" unicode="&#xd2;" horiz-adv-x="701" 
d="M186.5 32q-65.5 44 -97.5 120.5t-32 174.5q0 96 31 174t97 124.5t166 46.5t166 -46.5t97 -124.5t31 -174q0 -98 -32 -174.5t-97.5 -120.5t-164.5 -44t-164.5 44zM514.5 110.5q42.5 92.5 42.5 216.5q0 138 -41.5 226.5t-164.5 88.5t-164.5 -88.5t-41.5 -226.5
q0 -124 42.5 -216.5t163.5 -92.5t163.5 92.5zM303 867q-15 16 -19.5 23.5t-4.5 17.5q0 13 9 22.5t21 9.5q13 0 22 -7.5t17 -23.5l76 -154h-18z" />
    <glyph glyph-name="Oacute" unicode="&#xd3;" horiz-adv-x="701" 
d="M186.5 32q-65.5 44 -97.5 120.5t-32 174.5q0 96 31 174t97 124.5t166 46.5t166 -46.5t97 -124.5t31 -174q0 -98 -32 -174.5t-97.5 -120.5t-164.5 -44t-164.5 44zM514.5 110.5q42.5 92.5 42.5 216.5q0 138 -41.5 226.5t-164.5 88.5t-164.5 -88.5t-41.5 -226.5
q0 -124 42.5 -216.5t163.5 -92.5t163.5 92.5zM355 909q8 16 17 23.5t22 7.5q12 0 21 -9.5t9 -22.5q0 -10 -4.5 -17.5t-19.5 -23.5l-103 -112h-18z" />
    <glyph glyph-name="Ocircumflex" unicode="&#xd4;" horiz-adv-x="701" 
d="M186.5 32q-65.5 44 -97.5 120.5t-32 174.5q0 96 31 174t97 124.5t166 46.5t166 -46.5t97 -124.5t31 -174q0 -98 -32 -174.5t-97.5 -120.5t-164.5 -44t-164.5 44zM514.5 110.5q42.5 92.5 42.5 216.5q0 138 -41.5 226.5t-164.5 88.5t-164.5 -88.5t-41.5 -226.5
q0 -124 42.5 -216.5t163.5 -92.5t163.5 92.5zM322 890h59l92 -140h-34l-87 88l-88 -88h-34z" />
    <glyph glyph-name="Otilde" unicode="&#xd5;" horiz-adv-x="701" 
d="M186.5 32q-65.5 44 -97.5 120.5t-32 174.5q0 96 31 174t97 124.5t166 46.5t166 -46.5t97 -124.5t31 -174q0 -98 -32 -174.5t-97.5 -120.5t-164.5 -44t-164.5 44zM514.5 110.5q42.5 92.5 42.5 216.5q0 138 -41.5 226.5t-164.5 88.5t-164.5 -88.5t-41.5 -226.5
q0 -124 42.5 -216.5t163.5 -92.5t163.5 92.5zM340 776q-40 19 -59 19q-18 0 -29.5 -12t-11.5 -27h-19q0 41 21 64.5t56 23.5q27 0 69 -18q14 -6 29 -11t27 -5q19 0 30 11t11 24h19q0 -35 -22.5 -62t-54.5 -27q-24 0 -66 20z" />
    <glyph glyph-name="Odieresis" unicode="&#xd6;" horiz-adv-x="701" 
d="M186.5 32q-65.5 44 -97.5 120.5t-32 174.5q0 96 31 174t97 124.5t166 46.5t166 -46.5t97 -124.5t31 -174q0 -98 -32 -174.5t-97.5 -120.5t-164.5 -44t-164.5 44zM514.5 110.5q42.5 92.5 42.5 216.5q0 138 -41.5 226.5t-164.5 88.5t-164.5 -88.5t-41.5 -226.5
q0 -124 42.5 -216.5t163.5 -92.5t163.5 92.5zM236 780.5q-13 12.5 -13 30.5t13 31t31 13t31 -13t13 -31t-13 -30.5t-31 -12.5t-31 12.5zM405 780.5q-13 12.5 -13 30.5t13.5 31t30.5 13q18 0 31.5 -13t13.5 -31t-13.5 -30.5t-31.5 -12.5t-31 12.5z" />
    <glyph glyph-name="multiply" unicode="&#xd7;" horiz-adv-x="524" 
d="M52 62l172 173l-172 172l38 38l171 -173l174 173l38 -38l-174 -172l174 -173l-38 -38l-174 173l-171 -173z" />
    <glyph glyph-name="Oslash" unicode="&#xd8;" horiz-adv-x="705" 
d="M626.5 478.5q22.5 -69.5 22.5 -151.5q0 -98 -32 -174.5t-97.5 -120.5t-164.5 -44q-128 0 -204 76l-53 -70h-41l73 95q-35 44 -52 105t-17 133q0 96 31 174t97 124.5t166 46.5q107 0 179 -56l39 50h40l-55 -72q46 -46 68.5 -115.5zM175 148l329 428q-51 66 -149 66
q-123 0 -164.5 -88.5t-41.5 -226.5q0 -107 26 -179zM518.5 110.5q42.5 92.5 42.5 216.5q0 67 -8 122.5t-31 97.5l-332 -432q52 -97 165 -97q121 0 163.5 92.5z" />
    <glyph glyph-name="Ugrave" unicode="&#xd9;" horiz-adv-x="719" 
d="M181.5 49q-59.5 61 -59.5 186v336q0 30 -4 41.5t-19 16t-53 4.5v27h226v-27q-38 0 -53 -4.5t-19 -16t-4 -41.5v-345q0 -95 41.5 -151.5t123.5 -56.5t123.5 56.5t41.5 151.5v345q0 30 -4 41.5t-19 16t-53 4.5v27h226v-27q-38 0 -53 -4.5t-19 -16t-4 -41.5v-336
q0 -125 -59.5 -186t-179.5 -61t-179.5 61zM312 867q-15 16 -19.5 23.5t-4.5 17.5q0 13 9 22.5t21 9.5q13 0 22 -7.5t17 -23.5l76 -154h-18z" />
    <glyph glyph-name="Uacute" unicode="&#xda;" horiz-adv-x="719" 
d="M181.5 49q-59.5 61 -59.5 186v336q0 30 -4 41.5t-19 16t-53 4.5v27h226v-27q-38 0 -53 -4.5t-19 -16t-4 -41.5v-345q0 -95 41.5 -151.5t123.5 -56.5t123.5 56.5t41.5 151.5v345q0 30 -4 41.5t-19 16t-53 4.5v27h226v-27q-38 0 -53 -4.5t-19 -16t-4 -41.5v-336
q0 -125 -59.5 -186t-179.5 -61t-179.5 61zM364 909q8 16 17 23.5t22 7.5q12 0 21 -9.5t9 -22.5q0 -10 -4.5 -17.5t-19.5 -23.5l-103 -112h-18z" />
    <glyph glyph-name="Ucircumflex" unicode="&#xdb;" horiz-adv-x="719" 
d="M181.5 49q-59.5 61 -59.5 186v336q0 30 -4 41.5t-19 16t-53 4.5v27h226v-27q-38 0 -53 -4.5t-19 -16t-4 -41.5v-345q0 -95 41.5 -151.5t123.5 -56.5t123.5 56.5t41.5 151.5v345q0 30 -4 41.5t-19 16t-53 4.5v27h226v-27q-38 0 -53 -4.5t-19 -16t-4 -41.5v-336
q0 -125 -59.5 -186t-179.5 -61t-179.5 61zM331 890h59l92 -140h-34l-87 88l-88 -88h-34z" />
    <glyph glyph-name="Udieresis" unicode="&#xdc;" horiz-adv-x="719" 
d="M181.5 49q-59.5 61 -59.5 186v336q0 30 -4 41.5t-19 16t-53 4.5v27h226v-27q-38 0 -53 -4.5t-19 -16t-4 -41.5v-345q0 -95 41.5 -151.5t123.5 -56.5t123.5 56.5t41.5 151.5v345q0 30 -4 41.5t-19 16t-53 4.5v27h226v-27q-38 0 -53 -4.5t-19 -16t-4 -41.5v-336
q0 -125 -59.5 -186t-179.5 -61t-179.5 61zM245 780.5q-13 12.5 -13 30.5t13 31t31 13t31 -13t13 -31t-13 -30.5t-31 -12.5t-31 12.5zM414 780.5q-13 12.5 -13 30.5t13.5 31t30.5 13q18 0 31.5 -13t13.5 -31t-13.5 -30.5t-31.5 -12.5t-31 12.5z" />
    <glyph glyph-name="Yacute" unicode="&#xdd;" horiz-adv-x="611" 
d="M592 660v-27q-29 0 -43 -5t-23 -16t-26 -42l-147 -299v-182q0 -30 4.5 -41.5t23 -16t63.5 -4.5v-27h-256v27q45 0 63.5 4.5t23 16t4.5 41.5v168l-171 328q-16 30 -31.5 39t-52.5 9v27h216v-27h-50q-15 0 -15 -14q0 -5 5 -15l150 -294h2l142 292q5 12 5 17q0 14 -16 14
h-55v27h184zM312 909q8 16 17 23.5t22 7.5q12 0 21 -9.5t9 -22.5q0 -10 -4.5 -17.5t-19.5 -23.5l-103 -112h-18z" />
    <glyph glyph-name="Thorn" unicode="&#xde;" horiz-adv-x="554" 
d="M53 27q36 0 51.5 4.5t20 15.5t4.5 36v488q0 30 -4 41.5t-19 16t-53 4.5v27h226v-27q-38 0 -53 -4.5t-19 -16t-4 -41.5v-21h75q118 0 177.5 -44.5t59.5 -147.5q0 -105 -60.5 -150.5t-176.5 -45.5h-75v-79q0 -26 5 -37t22 -15t57 -4v-27h-234v27zM265 196q86 0 127 38.5
t41 121.5q0 84 -41 122.5t-127 38.5q-38 0 -50 -8t-12 -27v-286h62z" />
    <glyph glyph-name="germandbls" unicode="&#xdf;" horiz-adv-x="569" 
d="M507 207q26 -35 26 -84q0 -60 -41.5 -97t-106.5 -37q-41 0 -63 15t-22 40q0 17 10.5 28t29.5 11q16 0 25 -8.5t9 -23.5q0 -8 -2.5 -14t-2.5 -9q0 -4 6.5 -8t18.5 -4q30 0 55.5 20t25.5 59q0 44 -21.5 74.5t-65.5 59.5q-57 37 -81 69t-24 62q0 51 25 82t86 45
q9 14 15 33.5t6 39.5q0 50 -36.5 84t-88.5 34q-73 0 -97.5 -67.5t-24.5 -186.5v-341q0 -27 4 -37.5t18.5 -14.5t49.5 -4v-27h-210v27q36 0 50 4t18 14.5t4 37.5v357h-72v27h72q3 116 50.5 177t148.5 61q67 0 106 -25t54.5 -59t15.5 -65q0 -42 -25 -75q-53 -8 -82.5 -31.5
t-29.5 -61.5q0 -30 16.5 -49.5t54.5 -45.5l25 -18q45 -33 71 -68z" />
    <glyph glyph-name="agrave" unicode="&#xe0;" horiz-adv-x="477" 
d="M463 13q-18 -10 -34.5 -16.5t-45.5 -6.5q-24 0 -38 11.5t-17 50.5q-40 -33 -74.5 -48.5t-76.5 -15.5q-56 0 -90 25.5t-34 75.5q0 71 70 123t204 72v56q0 56 -21 84t-69 28q-26 0 -50.5 -7.5t-39 -19t-14.5 -20.5q0 -6 9.5 -13t15.5 -14t6 -23q0 -19 -10.5 -30.5
t-30.5 -11.5q-21 0 -33 13.5t-12 37.5q0 29 18 55.5t56.5 43t97.5 16.5q72 0 107.5 -30.5t35.5 -103.5v-247q0 -39 8.5 -53.5t27.5 -14.5q10 0 28 6zM150 50.5q21 -18.5 59 -18.5q32 0 60.5 13t57.5 35v176q-198 -39 -198 -150q0 -37 21 -55.5zM198 674q-15 16 -19.5 23.5
t-4.5 17.5q0 13 9 22.5t21 9.5q13 0 22 -7.5t17 -23.5l76 -154h-18z" />
    <glyph glyph-name="aacute" unicode="&#xe1;" horiz-adv-x="477" 
d="M463 13q-18 -10 -34.5 -16.5t-45.5 -6.5q-24 0 -38 11.5t-17 50.5q-40 -33 -74.5 -48.5t-76.5 -15.5q-56 0 -90 25.5t-34 75.5q0 71 70 123t204 72v56q0 56 -21 84t-69 28q-26 0 -50.5 -7.5t-39 -19t-14.5 -20.5q0 -6 9.5 -13t15.5 -14t6 -23q0 -19 -10.5 -30.5
t-30.5 -11.5q-21 0 -33 13.5t-12 37.5q0 29 18 55.5t56.5 43t97.5 16.5q72 0 107.5 -30.5t35.5 -103.5v-247q0 -39 8.5 -53.5t27.5 -14.5q10 0 28 6zM150 50.5q21 -18.5 59 -18.5q32 0 60.5 13t57.5 35v176q-198 -39 -198 -150q0 -37 21 -55.5zM250 716q8 16 17 23.5t22 7.5
q12 0 21 -9.5t9 -22.5q0 -10 -4.5 -17.5t-19.5 -23.5l-103 -112h-18z" />
    <glyph glyph-name="acircumflex" unicode="&#xe2;" horiz-adv-x="477" 
d="M463 13q-18 -10 -34.5 -16.5t-45.5 -6.5q-24 0 -38 11.5t-17 50.5q-40 -33 -74.5 -48.5t-76.5 -15.5q-56 0 -90 25.5t-34 75.5q0 71 70 123t204 72v56q0 56 -21 84t-69 28q-26 0 -50.5 -7.5t-39 -19t-14.5 -20.5q0 -6 9.5 -13t15.5 -14t6 -23q0 -19 -10.5 -30.5
t-30.5 -11.5q-21 0 -33 13.5t-12 37.5q0 29 18 55.5t56.5 43t97.5 16.5q72 0 107.5 -30.5t35.5 -103.5v-247q0 -39 8.5 -53.5t27.5 -14.5q10 0 28 6zM150 50.5q21 -18.5 59 -18.5q32 0 60.5 13t57.5 35v176q-198 -39 -198 -150q0 -37 21 -55.5zM217 697h59l92 -140h-34
l-87 88l-88 -88h-34z" />
    <glyph glyph-name="atilde" unicode="&#xe3;" horiz-adv-x="477" 
d="M463 13q-18 -10 -34.5 -16.5t-45.5 -6.5q-24 0 -38 11.5t-17 50.5q-40 -33 -74.5 -48.5t-76.5 -15.5q-56 0 -90 25.5t-34 75.5q0 71 70 123t204 72v56q0 56 -21 84t-69 28q-26 0 -50.5 -7.5t-39 -19t-14.5 -20.5q0 -6 9.5 -13t15.5 -14t6 -23q0 -19 -10.5 -30.5
t-30.5 -11.5q-21 0 -33 13.5t-12 37.5q0 29 18 55.5t56.5 43t97.5 16.5q72 0 107.5 -30.5t35.5 -103.5v-247q0 -39 8.5 -53.5t27.5 -14.5q10 0 28 6zM150 50.5q21 -18.5 59 -18.5q32 0 60.5 13t57.5 35v176q-198 -39 -198 -150q0 -37 21 -55.5zM235 583q-40 19 -59 19
q-18 0 -29.5 -12t-11.5 -27h-19q0 41 21 64.5t56 23.5q27 0 69 -18q14 -6 29 -11t27 -5q19 0 30 11t11 24h19q0 -35 -22.5 -62t-54.5 -27q-24 0 -66 20z" />
    <glyph glyph-name="adieresis" unicode="&#xe4;" horiz-adv-x="477" 
d="M463 13q-18 -10 -34.5 -16.5t-45.5 -6.5q-24 0 -38 11.5t-17 50.5q-40 -33 -74.5 -48.5t-76.5 -15.5q-56 0 -90 25.5t-34 75.5q0 71 70 123t204 72v56q0 56 -21 84t-69 28q-26 0 -50.5 -7.5t-39 -19t-14.5 -20.5q0 -6 9.5 -13t15.5 -14t6 -23q0 -19 -10.5 -30.5
t-30.5 -11.5q-21 0 -33 13.5t-12 37.5q0 29 18 55.5t56.5 43t97.5 16.5q72 0 107.5 -30.5t35.5 -103.5v-247q0 -39 8.5 -53.5t27.5 -14.5q10 0 28 6zM150 50.5q21 -18.5 59 -18.5q32 0 60.5 13t57.5 35v176q-198 -39 -198 -150q0 -37 21 -55.5zM131 587.5q-13 12.5 -13 30.5
t13 31t31 13t31 -13t13 -31t-13 -30.5t-31 -12.5t-31 12.5zM300 587.5q-13 12.5 -13 30.5t13.5 31t30.5 13q18 0 31.5 -13t13.5 -31t-13.5 -30.5t-31.5 -12.5t-31 12.5z" />
    <glyph glyph-name="aring" unicode="&#xe5;" horiz-adv-x="477" 
d="M463 13q-18 -10 -34.5 -16.5t-45.5 -6.5q-24 0 -38 11.5t-17 50.5q-40 -33 -74.5 -48.5t-76.5 -15.5q-56 0 -90 25.5t-34 75.5q0 71 70 123t204 72v56q0 56 -21 84t-69 28q-26 0 -50.5 -7.5t-39 -19t-14.5 -20.5q0 -6 9.5 -13t15.5 -14t6 -23q0 -19 -10.5 -30.5
t-30.5 -11.5q-21 0 -33 13.5t-12 37.5q0 29 18 55.5t56.5 43t97.5 16.5q72 0 107.5 -30.5t35.5 -103.5v-247q0 -39 8.5 -53.5t27.5 -14.5q10 0 28 6zM150 50.5q21 -18.5 59 -18.5q32 0 60.5 13t57.5 35v176q-198 -39 -198 -150q0 -37 21 -55.5zM187.5 557q-24.5 25 -24.5 59
t24.5 58.5t59.5 24.5q34 0 58.5 -24t24.5 -59t-24.5 -59.5t-58.5 -24.5q-35 0 -59.5 25zM285.5 577q15.5 16 15.5 39t-16 38.5t-38 15.5q-23 0 -39 -16t-16 -38q0 -23 16 -39t39 -16t38.5 16z" />
    <glyph glyph-name="ae" unicode="&#xe6;" horiz-adv-x="746" 
d="M700 240h-303q0 -100 32 -162.5t105 -62.5q55 0 89.5 34.5t47.5 81.5l25 -8q-39 -135 -181 -135q-115 0 -164 84q-49 -45 -87.5 -64.5t-86.5 -19.5q-56 0 -90 25.5t-34 72.5q0 64 66.5 110.5t197.5 65.5v78q0 55 -20.5 83.5t-67.5 28.5q-25 0 -47.5 -7.5t-35.5 -19
t-13 -20.5q0 -6 9.5 -13t15.5 -14t6 -23q0 -19 -10.5 -30.5t-30.5 -11.5q-21 0 -33 13.5t-12 38.5q0 46 40.5 80t123.5 34q51 0 83 -15.5t47 -50.5q53 66 149 66q179 0 179 -232v-7zM624 267q0 93 -25 139t-80 46q-59 0 -88.5 -49.5t-32.5 -135.5h226zM276 47.5
q31 15.5 65 43.5q-24 56 -24 132v12q-96 -18 -142 -50.5t-46 -81.5q0 -35 21.5 -53t58.5 -18q36 0 67 15.5z" />
    <glyph glyph-name="ccedilla" unicode="&#xe7;" horiz-adv-x="476" 
d="M246 -11l-19 -42q12 3 27 3q20 0 39 -15.5t19 -44.5q0 -35 -25.5 -51.5t-60.5 -16.5q-45 0 -78 15l11 25q24 -12 53 -12q22 0 36.5 9.5t14.5 26.5q0 16 -12.5 26t-26.5 10q-9 0 -18 -3.5t-12 -4.5l-10 5l32 74q-80 15 -123 80t-43 157q0 66 23 122.5t72.5 91.5t126.5 35
q64 0 111 -24.5t47 -74.5q0 -23 -11 -37.5t-36 -14.5q-23 0 -35.5 12t-12.5 33q0 13 4 20.5t12 16t8 14.5q0 13 -22 20.5t-53 7.5q-158 0 -158 -219q0 -115 40.5 -166.5t109.5 -51.5q58 0 91 28t46 59l24 -13q-96 -144 -66 -100.5t-7.5 21.5t-98.5 -22q-13 0 -19 1z" />
    <glyph glyph-name="egrave" unicode="&#xe8;" horiz-adv-x="500" 
d="M126 230q0 -215 150 -215q65 0 100.5 34.5t48.5 81.5l25 -8q-17 -61 -61 -98t-129 -37q-107 0 -158.5 63t-51.5 176q0 117 53.5 184.5t158.5 67.5q115 0 153.5 -71t38.5 -171v-7h-328zM127 257h251q0 99 -27.5 147t-89.5 48q-126 0 -134 -195zM199 674q-15 16 -19.5 23.5
t-4.5 17.5q0 13 9 22.5t21 9.5q13 0 22 -7.5t17 -23.5l76 -154h-18z" />
    <glyph glyph-name="eacute" unicode="&#xe9;" horiz-adv-x="500" 
d="M126 230q0 -215 150 -215q65 0 100.5 34.5t48.5 81.5l25 -8q-17 -61 -61 -98t-129 -37q-107 0 -158.5 63t-51.5 176q0 117 53.5 184.5t158.5 67.5q115 0 153.5 -71t38.5 -171v-7h-328zM127 257h251q0 99 -27.5 147t-89.5 48q-126 0 -134 -195zM251 716q8 16 17 23.5
t22 7.5q12 0 21 -9.5t9 -22.5q0 -10 -4.5 -17.5t-19.5 -23.5l-103 -112h-18z" />
    <glyph glyph-name="ecircumflex" unicode="&#xea;" horiz-adv-x="500" 
d="M126 230q0 -215 150 -215q65 0 100.5 34.5t48.5 81.5l25 -8q-17 -61 -61 -98t-129 -37q-107 0 -158.5 63t-51.5 176q0 117 53.5 184.5t158.5 67.5q115 0 153.5 -71t38.5 -171v-7h-328zM127 257h251q0 99 -27.5 147t-89.5 48q-126 0 -134 -195zM218 697h59l92 -140h-34
l-87 88l-88 -88h-34z" />
    <glyph glyph-name="edieresis" unicode="&#xeb;" horiz-adv-x="500" 
d="M126 230q0 -215 150 -215q65 0 100.5 34.5t48.5 81.5l25 -8q-17 -61 -61 -98t-129 -37q-107 0 -158.5 63t-51.5 176q0 117 53.5 184.5t158.5 67.5q115 0 153.5 -71t38.5 -171v-7h-328zM127 257h251q0 99 -27.5 147t-89.5 48q-126 0 -134 -195zM132 587.5
q-13 12.5 -13 30.5t13 31t31 13t31 -13t13 -31t-13 -30.5t-31 -12.5t-31 12.5zM301 587.5q-13 12.5 -13 30.5t13.5 31t30.5 13q18 0 31.5 -13t13.5 -31t-13.5 -30.5t-31.5 -12.5t-31 12.5z" />
    <glyph glyph-name="igrave" unicode="&#xec;" horiz-adv-x="251" 
d="M27 27q36 0 49.5 3.5t17.5 14t4 38.5v303q0 25 -6 33.5t-24 8.5h-37v27l110 18h23v-390q0 -27 4 -38t18 -14.5t49 -3.5v-27h-208v27zM77 674q-15 16 -19.5 23.5t-4.5 17.5q0 13 9 22.5t21 9.5q13 0 22 -7.5t17 -23.5l76 -154h-18z" />
    <glyph glyph-name="iacute" unicode="&#xed;" horiz-adv-x="251" 
d="M27 27q36 0 49.5 3.5t17.5 14t4 38.5v303q0 25 -6 33.5t-24 8.5h-37v27l110 18h23v-390q0 -27 4 -38t18 -14.5t49 -3.5v-27h-208v27zM129 716q8 16 17 23.5t22 7.5q12 0 21 -9.5t9 -22.5q0 -10 -4.5 -17.5t-19.5 -23.5l-103 -112h-18z" />
    <glyph glyph-name="icircumflex" unicode="&#xee;" horiz-adv-x="251" 
d="M27 27q36 0 49.5 3.5t17.5 14t4 38.5v303q0 25 -6 33.5t-24 8.5h-37v27l110 18h23v-390q0 -27 4 -38t18 -14.5t49 -3.5v-27h-208v27zM96 697h59l92 -140h-34l-87 88l-88 -88h-34z" />
    <glyph glyph-name="idieresis" unicode="&#xef;" horiz-adv-x="251" 
d="M27 27q36 0 49.5 3.5t17.5 14t4 38.5v303q0 25 -6 33.5t-24 8.5h-37v27l110 18h23v-390q0 -27 4 -38t18 -14.5t49 -3.5v-27h-208v27zM10 587.5q-13 12.5 -13 30.5t13 31t31 13t31 -13t13 -31t-13 -30.5t-31 -12.5t-31 12.5zM179 587.5q-13 12.5 -13 30.5t13.5 31t30.5 13
q18 0 31.5 -13t13.5 -31t-13.5 -30.5t-31.5 -12.5t-31 12.5z" />
    <glyph glyph-name="eth" unicode="&#xf0;" horiz-adv-x="520" 
d="M467 241q0 -126 -53 -189t-155 -63q-104 0 -156.5 64t-52.5 180q0 117 53.5 181.5t158.5 64.5q21 0 71 -6v3q-33 60 -80 107l-152 -66l-17 25l145 63q-43 39 -114 87l21 16q76 -38 137 -84l97 42l17 -25l-88 -38q39 -33 72 -74q96 -121 96 -288zM361 73.5
q30 57.5 30 169.5q0 104 -28 156.5t-100 52.5q-74 0 -105.5 -54.5t-31.5 -161.5q0 -108 31 -164t102 -56q72 0 102 57.5z" />
    <glyph glyph-name="ntilde" unicode="&#xf1;" horiz-adv-x="569" 
d="M468 44.5q4 -10.5 17.5 -14t49.5 -3.5v-27h-208v27q35 0 49 3.5t18 14.5t4 38v244q0 49 -22.5 81.5t-74.5 32.5q-42 0 -70.5 -22t-56.5 -64v-272q0 -27 4 -38t18 -14.5t49 -3.5v-27h-208v27q36 0 49.5 3.5t17.5 14t4 38.5v303q0 25 -6 33.5t-24 8.5h-37v27l103 18h27v-78
h1q30 44 65.5 64t90.5 20q71 0 103.5 -34.5t32.5 -108.5v-253q0 -28 4 -38.5zM272 583q-40 19 -59 19q-18 0 -29.5 -12t-11.5 -27h-19q0 41 21 64.5t56 23.5q27 0 69 -18q14 -6 29 -11t27 -5q19 0 30 11t11 24h19q0 -35 -22.5 -62t-54.5 -27q-24 0 -66 20z" />
    <glyph glyph-name="ograve" unicode="&#xf2;" horiz-adv-x="516" 
d="M102 51.5q-52 63.5 -52 182.5q0 118 52.5 181.5t155.5 63.5q104 0 156.5 -63.5t52.5 -181.5q0 -119 -52.5 -182.5t-156.5 -63.5t-156 63.5zM358 72q33 57 33 162q0 104 -33 161t-100 57q-66 0 -99.5 -57t-33.5 -161q0 -105 33.5 -162t99.5 -57q67 0 100 57zM209 674
q-15 16 -19.5 23.5t-4.5 17.5q0 13 9 22.5t21 9.5q13 0 22 -7.5t17 -23.5l76 -154h-18z" />
    <glyph glyph-name="oacute" unicode="&#xf3;" horiz-adv-x="516" 
d="M102 51.5q-52 63.5 -52 182.5q0 118 52.5 181.5t155.5 63.5q104 0 156.5 -63.5t52.5 -181.5q0 -119 -52.5 -182.5t-156.5 -63.5t-156 63.5zM358 72q33 57 33 162q0 104 -33 161t-100 57q-66 0 -99.5 -57t-33.5 -161q0 -105 33.5 -162t99.5 -57q67 0 100 57zM261 716
q8 16 17 23.5t22 7.5q12 0 21 -9.5t9 -22.5q0 -10 -4.5 -17.5t-19.5 -23.5l-103 -112h-18z" />
    <glyph glyph-name="ocircumflex" unicode="&#xf4;" horiz-adv-x="516" 
d="M102 51.5q-52 63.5 -52 182.5q0 118 52.5 181.5t155.5 63.5q104 0 156.5 -63.5t52.5 -181.5q0 -119 -52.5 -182.5t-156.5 -63.5t-156 63.5zM358 72q33 57 33 162q0 104 -33 161t-100 57q-66 0 -99.5 -57t-33.5 -161q0 -105 33.5 -162t99.5 -57q67 0 100 57zM228 697h59
l92 -140h-34l-87 88l-88 -88h-34z" />
    <glyph glyph-name="otilde" unicode="&#xf5;" horiz-adv-x="516" 
d="M102 51.5q-52 63.5 -52 182.5q0 118 52.5 181.5t155.5 63.5q104 0 156.5 -63.5t52.5 -181.5q0 -119 -52.5 -182.5t-156.5 -63.5t-156 63.5zM358 72q33 57 33 162q0 104 -33 161t-100 57q-66 0 -99.5 -57t-33.5 -161q0 -105 33.5 -162t99.5 -57q67 0 100 57zM246 583
q-40 19 -59 19q-18 0 -29.5 -12t-11.5 -27h-19q0 41 21 64.5t56 23.5q27 0 69 -18q14 -6 29 -11t27 -5q19 0 30 11t11 24h19q0 -35 -22.5 -62t-54.5 -27q-24 0 -66 20z" />
    <glyph glyph-name="odieresis" unicode="&#xf6;" horiz-adv-x="516" 
d="M102 51.5q-52 63.5 -52 182.5q0 118 52.5 181.5t155.5 63.5q104 0 156.5 -63.5t52.5 -181.5q0 -119 -52.5 -182.5t-156.5 -63.5t-156 63.5zM358 72q33 57 33 162q0 104 -33 161t-100 57q-66 0 -99.5 -57t-33.5 -161q0 -105 33.5 -162t99.5 -57q67 0 100 57zM142 587.5
q-13 12.5 -13 30.5t13 31t31 13t31 -13t13 -31t-13 -30.5t-31 -12.5t-31 12.5zM311 587.5q-13 12.5 -13 30.5t13.5 31t30.5 13q18 0 31.5 -13t13.5 -31t-13.5 -30.5t-31.5 -12.5t-31 12.5z" />
    <glyph glyph-name="divide" unicode="&#xf7;" horiz-adv-x="541" 
d="M231 383.5q-17 16.5 -17 39.5q0 22 16.5 38.5t39.5 16.5q22 0 39 -16.5t17 -38.5q0 -21 -16.5 -38.5t-38.5 -17.5q-23 0 -40 16.5zM36 260h469v-51h-469v51zM231 7.5q-17 16.5 -17 38.5q0 23 16.5 39.5t39.5 16.5t39.5 -16.5t16.5 -39.5q0 -21 -17 -38t-38 -17
q-23 0 -40 16.5z" />
    <glyph glyph-name="oslash" unicode="&#xf8;" horiz-adv-x="522" 
d="M421 409q47 -64 47 -175q0 -119 -52.5 -182.5t-156.5 -63.5q-88 0 -141 48l-34 -42h-34l50 62q-49 61 -49 178q0 118 52.5 181.5t155.5 63.5q91 0 144 -50l36 44h34zM143 108l223 275q-34 69 -107 69q-66 0 -99.5 -57t-33.5 -161q0 -73 17 -126zM377 354l-222 -273
q32 -66 104 -66q67 0 100 57t33 162q0 71 -15 120z" />
    <glyph glyph-name="ugrave" unicode="&#xf9;" horiz-adv-x="571" 
d="M460 44.5q4 -10.5 17.5 -14t49.5 -3.5v-27h-136v71h-2q-28 -41 -64.5 -62t-91.5 -21q-68 0 -100.5 35t-32.5 108v255q0 25 -6 33.5t-24 8.5h-37v27l106 18h27v-333q0 -50 22 -82t73 -32q42 0 72 22.5t56 63.5l1 274q0 25 -6 33.5t-24 8.5h-37v27l106 18h27v-390
q0 -28 4 -38.5zM221 674q-15 16 -19.5 23.5t-4.5 17.5q0 13 9 22.5t21 9.5q13 0 22 -7.5t17 -23.5l76 -154h-18z" />
    <glyph glyph-name="uacute" unicode="&#xfa;" horiz-adv-x="571" 
d="M460 44.5q4 -10.5 17.5 -14t49.5 -3.5v-27h-136v71h-2q-28 -41 -64.5 -62t-91.5 -21q-68 0 -100.5 35t-32.5 108v255q0 25 -6 33.5t-24 8.5h-37v27l106 18h27v-333q0 -50 22 -82t73 -32q42 0 72 22.5t56 63.5l1 274q0 25 -6 33.5t-24 8.5h-37v27l106 18h27v-390
q0 -28 4 -38.5zM273 716q8 16 17 23.5t22 7.5q12 0 21 -9.5t9 -22.5q0 -10 -4.5 -17.5t-19.5 -23.5l-103 -112h-18z" />
    <glyph glyph-name="ucircumflex" unicode="&#xfb;" horiz-adv-x="571" 
d="M460 44.5q4 -10.5 17.5 -14t49.5 -3.5v-27h-136v71h-2q-28 -41 -64.5 -62t-91.5 -21q-68 0 -100.5 35t-32.5 108v255q0 25 -6 33.5t-24 8.5h-37v27l106 18h27v-333q0 -50 22 -82t73 -32q42 0 72 22.5t56 63.5l1 274q0 25 -6 33.5t-24 8.5h-37v27l106 18h27v-390
q0 -28 4 -38.5zM240 697h59l92 -140h-34l-87 88l-88 -88h-34z" />
    <glyph glyph-name="udieresis" unicode="&#xfc;" horiz-adv-x="571" 
d="M460 44.5q4 -10.5 17.5 -14t49.5 -3.5v-27h-136v71h-2q-28 -41 -64.5 -62t-91.5 -21q-68 0 -100.5 35t-32.5 108v255q0 25 -6 33.5t-24 8.5h-37v27l106 18h27v-333q0 -50 22 -82t73 -32q42 0 72 22.5t56 63.5l1 274q0 25 -6 33.5t-24 8.5h-37v27l106 18h27v-390
q0 -28 4 -38.5zM154 587.5q-13 12.5 -13 30.5t13 31t31 13t31 -13t13 -31t-13 -30.5t-31 -12.5t-31 12.5zM323 587.5q-13 12.5 -13 30.5t13.5 31t30.5 13q18 0 31.5 -13t13.5 -31t-13.5 -30.5t-31.5 -12.5t-31 12.5z" />
    <glyph glyph-name="yacute" unicode="&#xfd;" horiz-adv-x="462" 
d="M458 467v-27q-27 0 -40 -4.5t-19.5 -14t-14.5 -30.5l-203 -530q-15 -40 -31.5 -56.5t-51.5 -16.5q-36 0 -57 20t-21 48q0 21 13 35t32 14q15 0 27.5 -9.5t12.5 -27.5q0 -11 -6 -21.5t-6 -17.5q0 -14 17 -14q15 0 24 14.5t28 63.5l40 105l-146 392q-12 32 -24.5 41
t-45.5 9v27h192v-27h-35q-24 0 -24 -17q0 -5 4 -17l112 -320h1l121 317q4 11 4 19q0 18 -24 18h-43v27h164zM225 716q8 16 17 23.5t22 7.5q12 0 21 -9.5t9 -22.5q0 -10 -4.5 -17.5t-19.5 -23.5l-103 -112h-18z" />
    <glyph glyph-name="thorn" unicode="&#xfe;" horiz-adv-x="545" 
d="M450 419q46 -60 46 -177q0 -131 -53 -192.5t-143 -61.5q-78 0 -133 49v-154q0 -27 4 -38t18 -14.5t49 -3.5v-27h-208v27q36 0 49.5 3.5t17.5 14t4 38.5v723q0 25 -6 33.5t-24 8.5h-37v27l106 18h27v-264q61 50 146 50q91 0 137 -60zM386.5 67q33.5 53 33.5 169
q0 104 -29.5 160t-94.5 56t-129 -57v-322q53 -59 123 -59q63 0 96.5 53z" />
    <glyph glyph-name="ydieresis" unicode="&#xff;" horiz-adv-x="462" 
d="M458 467v-27q-27 0 -40 -4.5t-19.5 -14t-14.5 -30.5l-203 -530q-15 -40 -31.5 -56.5t-51.5 -16.5q-36 0 -57 20t-21 48q0 21 13 35t32 14q15 0 27.5 -9.5t12.5 -27.5q0 -11 -6 -21.5t-6 -17.5q0 -14 17 -14q15 0 24 14.5t28 63.5l40 105l-146 392q-12 32 -24.5 41
t-45.5 9v27h192v-27h-35q-24 0 -24 -17q0 -5 4 -17l112 -320h1l121 317q4 11 4 19q0 18 -24 18h-43v27h164zM106 587.5q-13 12.5 -13 30.5t13 31t31 13t31 -13t13 -31t-13 -30.5t-31 -12.5t-31 12.5zM275 587.5q-13 12.5 -13 30.5t13.5 31t30.5 13q18 0 31.5 -13t13.5 -31
t-13.5 -30.5t-31.5 -12.5t-31 12.5z" />
    <glyph glyph-name="amacron" unicode="&#x101;" horiz-adv-x="477" 
d="M463 13q-18 -10 -34.5 -16.5t-45.5 -6.5q-24 0 -38 11.5t-17 50.5q-40 -33 -74.5 -48.5t-76.5 -15.5q-56 0 -90 25.5t-34 75.5q0 71 70 123t204 72v56q0 56 -21 84t-69 28q-26 0 -50.5 -7.5t-39 -19t-14.5 -20.5q0 -6 9.5 -13t15.5 -14t6 -23q0 -19 -10.5 -30.5
t-30.5 -11.5q-21 0 -33 13.5t-12 37.5q0 29 18 55.5t56.5 43t97.5 16.5q72 0 107.5 -30.5t35.5 -103.5v-247q0 -39 8.5 -53.5t27.5 -14.5q10 0 28 6zM150 50.5q21 -18.5 59 -18.5q32 0 60.5 13t57.5 35v176q-198 -39 -198 -150q0 -37 21 -55.5zM132 616h230v-46h-230v46z
" />
    <glyph glyph-name="Abreve" unicode="&#x102;" horiz-adv-x="632" 
d="M569.5 47q7.5 -12 20 -16t37.5 -4v-27h-204v27h33q30 0 30 24q0 11 -4 22l-66 181h-232l-68 -183q-4 -16 -4 -21q0 -23 28 -23h29v-27h-160v27q26 0 40 5.5t21.5 18.5t17.5 42l214 567h40l212 -575q8 -26 15.5 -38zM403 288l-101 276h-3l-102 -276h206zM207 881h29
q0 -36 25 -58t56 -22q32 0 58 22t26 58h29q0 -132 -113 -132q-110 0 -110 132z" />
    <glyph glyph-name="abreve" unicode="&#x103;" horiz-adv-x="477" 
d="M463 13q-18 -10 -34.5 -16.5t-45.5 -6.5q-24 0 -38 11.5t-17 50.5q-40 -33 -74.5 -48.5t-76.5 -15.5q-56 0 -90 25.5t-34 75.5q0 71 70 123t204 72v56q0 56 -21 84t-69 28q-26 0 -50.5 -7.5t-39 -19t-14.5 -20.5q0 -6 9.5 -13t15.5 -14t6 -23q0 -19 -10.5 -30.5
t-30.5 -11.5q-21 0 -33 13.5t-12 37.5q0 29 18 55.5t56.5 43t97.5 16.5q72 0 107.5 -30.5t35.5 -103.5v-247q0 -39 8.5 -53.5t27.5 -14.5q10 0 28 6zM150 50.5q21 -18.5 59 -18.5q32 0 60.5 13t57.5 35v176q-198 -39 -198 -150q0 -37 21 -55.5zM135 688h29q0 -36 25 -58
t56 -22q32 0 58 22t26 58h29q0 -132 -113 -132q-110 0 -110 132z" />
    <glyph glyph-name="Aogonek" unicode="&#x104;" horiz-adv-x="632" 
d="M479 -60.5q-15 -24.5 -15 -47.5q0 -17 12 -27t28 -10q15 0 27 7.5t18 20.5l12 -6q-12 -29 -34 -42t-46 -13q-72 0 -72 59q0 56 94 119h-80v27h33q30 0 30 24q0 11 -4 22l-66 181h-232l-68 -183q-4 -16 -4 -21q0 -23 28 -23h29v-27h-160v27q26 0 40 5.5t21.5 18.5t17.5 42
l214 567h40l212 -575q8 -26 15.5 -38t20 -16t37.5 -4v-27h-92q-41 -36 -56 -60.5zM403 288l-101 276h-3l-102 -276h206z" />
    <glyph glyph-name="aogonek" unicode="&#x105;" horiz-adv-x="477" 
d="M469 -123q-12 -29 -34 -42t-46 -13q-72 0 -72 59q0 52 81 110q-5 -1 -15 -1q-24 0 -38 11.5t-17 50.5q-40 -33 -74.5 -48.5t-76.5 -15.5q-56 0 -90 25.5t-34 75.5q0 71 70 123t204 72v56q0 56 -21 84t-69 28q-26 0 -50.5 -7.5t-39 -19t-14.5 -20.5q0 -6 9.5 -13t15.5 -14
t6 -23q0 -19 -10.5 -30.5t-30.5 -11.5q-21 0 -33 13.5t-12 37.5q0 29 18 55.5t56.5 43t97.5 16.5q72 0 107.5 -30.5t35.5 -103.5v-247q0 -39 8.5 -53.5t27.5 -14.5q10 0 28 6l6 -23q-16 -10 -22 -12h3q-41 -37 -56.5 -61.5t-15.5 -47.5q0 -17 12 -27t28 -10q15 0 27 7.5
t18 20.5zM150 50.5q21 -18.5 59 -18.5q32 0 60.5 13t57.5 35v176q-198 -39 -198 -150q0 -37 21 -55.5z" />
    <glyph glyph-name="Cacute" unicode="&#x106;" horiz-adv-x="649" 
d="M196.5 29.5q-68.5 41.5 -104 117t-35.5 175.5q0 106 37 185t107.5 122t168.5 43q43 0 72 -7.5t58 -19.5q23 -10 34 -10q9 0 15 4t8 10l3 11h27l10 -174h-27q-19 65 -61.5 110.5t-133.5 45.5q-84 0 -135.5 -48.5t-73 -119.5t-21.5 -145q0 -81 25 -151.5t77.5 -115
t131.5 -44.5q58 0 96 19t59 47.5t41 70.5l25 -13q-19 -43 -44 -75t-73 -55.5t-124 -23.5q-94 0 -162.5 41.5zM339 909q8 16 17 23.5t22 7.5q12 0 21 -9.5t9 -22.5q0 -10 -4.5 -17.5t-19.5 -23.5l-103 -112h-18z" />
    <glyph glyph-name="cacute" unicode="&#x107;" horiz-adv-x="476" 
d="M147.5 19.5q-48.5 31.5 -73 86.5t-24.5 124q0 66 23 122.5t72.5 91.5t126.5 35q64 0 111 -24.5t47 -74.5q0 -23 -11 -37.5t-36 -14.5q-23 0 -35.5 12t-12.5 33q0 13 4 20.5t12 16t8 14.5q0 13 -22 20.5t-53 7.5q-158 0 -158 -219q0 -115 40.5 -166.5t109.5 -51.5
q58 0 91 28t46 59l24 -13q-96 -144 -66 -100.5t-7.5 21.5t-98.5 -22q-69 0 -117.5 31.5zM233 716q8 16 17 23.5t22 7.5q12 0 21 -9.5t9 -22.5q0 -10 -4.5 -17.5t-19.5 -23.5l-103 -112h-18z" />
    <glyph glyph-name="Ccaron" unicode="&#x10c;" horiz-adv-x="649" 
d="M196.5 29.5q-68.5 41.5 -104 117t-35.5 175.5q0 106 37 185t107.5 122t168.5 43q43 0 72 -7.5t58 -19.5q23 -10 34 -10q9 0 15 4t8 10l3 11h27l10 -174h-27q-19 65 -61.5 110.5t-133.5 45.5q-84 0 -135.5 -48.5t-73 -119.5t-21.5 -145q0 -81 25 -151.5t77.5 -115
t131.5 -44.5q58 0 96 19t59 47.5t41 70.5l25 -13q-19 -43 -44 -75t-73 -55.5t-124 -23.5q-94 0 -162.5 41.5zM214 890h34l88 -88l87 88h34l-92 -140h-59z" />
    <glyph glyph-name="ccaron" unicode="&#x10d;" horiz-adv-x="476" 
d="M147.5 19.5q-48.5 31.5 -73 86.5t-24.5 124q0 66 23 122.5t72.5 91.5t126.5 35q64 0 111 -24.5t47 -74.5q0 -23 -11 -37.5t-36 -14.5q-23 0 -35.5 12t-12.5 33q0 13 4 20.5t12 16t8 14.5q0 13 -22 20.5t-53 7.5q-158 0 -158 -219q0 -115 40.5 -166.5t109.5 -51.5
q58 0 91 28t46 59l24 -13q-96 -144 -66 -100.5t-7.5 21.5t-98.5 -22q-69 0 -117.5 31.5zM108 697h34l88 -88l87 88h34l-92 -140h-59z" />
    <glyph glyph-name="Dcaron" unicode="&#x10e;" horiz-adv-x="713" 
d="M53 27q38 0 53 4t19 15.5t4 42.5v482q0 30 -4 41.5t-19 16t-53 4.5v27h286q149 -2 233 -85t84 -233q0 -107 -40.5 -184t-116 -117.5t-179.5 -40.5h-267v27zM494.5 99.5q73.5 69.5 73.5 238.5q0 131 -60.5 209.5t-194.5 81.5q-54 0 -75.5 -3.5t-28 -14.5t-6.5 -39v-453
q0 -38 10.5 -57t31 -25.5t57.5 -6.5q119 0 192.5 69.5zM233 890h34l88 -88l87 88h34l-92 -140h-59z" />
    <glyph glyph-name="dcaron" unicode="&#x10f;" horiz-adv-x="534" 
d="M511 27v-27h-122l-7 48q-65 -60 -151 -60q-89 0 -135 60t-46 178q0 130 53.5 191.5t144.5 61.5q74 0 129 -47h2v169q0 27 -6 35.5t-25 8.5h-39v27l109 21h27v-622q0 -27 6 -35.5t25 -8.5h35zM379 81v313q-53 59 -121 59q-65 0 -98.5 -52.5t-33.5 -168.5q0 -104 29 -160.5
t94 -56.5q66 0 130 66zM477 543q20 2 35 14t15 26q0 5 -4 7.5t-10 4.5t-10 4q-26 10 -26 34q0 18 11.5 28.5t29.5 10.5q23 0 35.5 -17t12.5 -41q0 -33 -23.5 -59t-61.5 -32z" />
    <glyph glyph-name="Dcroat" unicode="&#x110;" horiz-adv-x="718" 
d="M577 575q84 -83 84 -233q0 -107 -40.5 -184t-116 -117.5t-179.5 -40.5h-267v27q38 0 53 4t19 15.5t4 42.5v226h-81v36h81v220q0 30 -4 41.5t-19 16t-53 4.5v27h286q149 -2 233 -85zM499.5 99.5q73.5 69.5 73.5 238.5q0 131 -60.5 209.5t-194.5 81.5q-54 0 -75.5 -3.5
t-28 -14.5t-6.5 -39v-221h210v-36h-210v-196q0 -38 10.5 -57t31 -25.5t57.5 -6.5q119 0 192.5 69.5z" />
    <glyph glyph-name="dcroat" unicode="&#x111;" horiz-adv-x="536" 
d="M445 550v-479q0 -27 6 -35.5t25 -8.5h35v-27h-122l-7 48q-65 -60 -151 -60q-89 0 -135 60t-46 178q0 130 53.5 191.5t144.5 61.5q74 0 129 -47h2v118h-135v27h135v24q0 27 -6 35.5t-25 8.5h-39v27l109 21h27v-116h68v-27h-68zM379 81v313q-53 59 -121 59
q-65 0 -98.5 -52.5t-33.5 -168.5q0 -104 29 -160.5t94 -56.5q66 0 130 66z" />
    <glyph glyph-name="Emacron" unicode="&#x112;" horiz-adv-x="580" 
d="M53 27q38 0 53 4t19 15.5t4 42.5v482q0 30 -4 41.5t-19 16t-53 4.5v27h451v-156h-27q-7 54 -19.5 79.5t-40.5 35.5t-86 10h-93q-23 0 -29 -6t-6 -31v-232h122q40 0 58 7.5t24.5 23.5t11.5 51h24v-199h-24q-5 36 -11.5 51.5t-24.5 23.5t-58 8h-122v-212q0 -37 9.5 -54.5
t34.5 -23.5t79 -6q66 0 101 9.5t54.5 37.5t30.5 88h27l-11 -165h-475v27zM186 809h230v-46h-230v46z" />
    <glyph glyph-name="emacron" unicode="&#x113;" horiz-adv-x="500" 
d="M126 230q0 -215 150 -215q65 0 100.5 34.5t48.5 81.5l25 -8q-17 -61 -61 -98t-129 -37q-107 0 -158.5 63t-51.5 176q0 117 53.5 184.5t158.5 67.5q115 0 153.5 -71t38.5 -171v-7h-328zM127 257h251q0 99 -27.5 147t-89.5 48q-126 0 -134 -195zM133 616h230v-46h-230v46z
" />
    <glyph glyph-name="Edotaccent" unicode="&#x116;" horiz-adv-x="580" 
d="M53 27q38 0 53 4t19 15.5t4 42.5v482q0 30 -4 41.5t-19 16t-53 4.5v27h451v-156h-27q-7 54 -19.5 79.5t-40.5 35.5t-86 10h-93q-23 0 -29 -6t-6 -31v-232h122q40 0 58 7.5t24.5 23.5t11.5 51h24v-199h-24q-5 36 -11.5 51.5t-24.5 23.5t-58 8h-122v-212q0 -37 9.5 -54.5
t34.5 -23.5t79 -6q66 0 101 9.5t54.5 37.5t30.5 88h27l-11 -165h-475v27zM269 780.5q-13 12.5 -13 30.5t13.5 31t30.5 13q18 0 31.5 -13t13.5 -31t-13.5 -30.5t-31.5 -12.5t-31 12.5z" />
    <glyph glyph-name="edotaccent" unicode="&#x117;" horiz-adv-x="500" 
d="M126 230q0 -215 150 -215q65 0 100.5 34.5t48.5 81.5l25 -8q-17 -61 -61 -98t-129 -37q-107 0 -158.5 63t-51.5 176q0 117 53.5 184.5t158.5 67.5q115 0 153.5 -71t38.5 -171v-7h-328zM127 257h251q0 99 -27.5 147t-89.5 48q-126 0 -134 -195zM216 587.5
q-13 12.5 -13 30.5t13.5 31t30.5 13q18 0 31.5 -13t13.5 -31t-13.5 -30.5t-31.5 -12.5t-31 12.5z" />
    <glyph glyph-name="Eogonek" unicode="&#x118;" horiz-adv-x="580" 
d="M508 -137.5q12 7.5 18 20.5l12 -6q-12 -29 -34 -42t-46 -13q-72 0 -72 59q0 56 94 119h-427v27q38 0 53 4t19 15.5t4 42.5v482q0 30 -4 41.5t-19 16t-53 4.5v27h451v-156h-27q-7 54 -19.5 79.5t-40.5 35.5t-86 10h-93q-23 0 -29 -6t-6 -31v-232h122q40 0 58 7.5
t24.5 23.5t11.5 51h24v-199h-24q-5 36 -11.5 51.5t-24.5 23.5t-58 8h-122v-212q0 -37 9.5 -54.5t34.5 -23.5t79 -6q66 0 101 9.5t54.5 37.5t30.5 88h27l-11 -165h-16q-41 -36 -56 -60.5t-15 -47.5q0 -17 12 -27t28 -10q15 0 27 7.5z" />
    <glyph glyph-name="eogonek" unicode="&#x119;" horiz-adv-x="500" 
d="M126 230q0 -215 150 -215q65 0 100.5 34.5t48.5 81.5l25 -8q-28 -94 -106 -122h3q-41 -37 -56.5 -61.5t-15.5 -47.5q0 -17 12 -27t28 -10q15 0 27 7.5t18 20.5l12 -6q-12 -29 -34 -42t-46 -13q-72 0 -72 59q0 53 81 110q-19 -3 -41 -3q-107 0 -158.5 63t-51.5 176
q0 117 53.5 184.5t158.5 67.5q115 0 153.5 -71t38.5 -171v-7h-328zM127 257h251q0 99 -27.5 147t-89.5 48q-126 0 -134 -195z" />
    <glyph glyph-name="Ecaron" unicode="&#x11a;" horiz-adv-x="580" 
d="M53 27q38 0 53 4t19 15.5t4 42.5v482q0 30 -4 41.5t-19 16t-53 4.5v27h451v-156h-27q-7 54 -19.5 79.5t-40.5 35.5t-86 10h-93q-23 0 -29 -6t-6 -31v-232h122q40 0 58 7.5t24.5 23.5t11.5 51h24v-199h-24q-5 36 -11.5 51.5t-24.5 23.5t-58 8h-122v-212q0 -37 9.5 -54.5
t34.5 -23.5t79 -6q66 0 101 9.5t54.5 37.5t30.5 88h27l-11 -165h-475v27zM179 890h34l88 -88l87 88h34l-92 -140h-59z" />
    <glyph glyph-name="ecaron" unicode="&#x11b;" horiz-adv-x="500" 
d="M126 230q0 -215 150 -215q65 0 100.5 34.5t48.5 81.5l25 -8q-17 -61 -61 -98t-129 -37q-107 0 -158.5 63t-51.5 176q0 117 53.5 184.5t158.5 67.5q115 0 153.5 -71t38.5 -171v-7h-328zM127 257h251q0 99 -27.5 147t-89.5 48q-126 0 -134 -195zM126 697h34l88 -88l87 88
h34l-92 -140h-59z" />
    <glyph glyph-name="Gbreve" unicode="&#x11e;" horiz-adv-x="650" 
d="M195 30q-67 42 -102.5 118.5t-35.5 177.5q0 104 37 182t107.5 121t167.5 43q43 0 71.5 -7t56.5 -19q27 -11 38 -11q9 0 16 4t9 10l5 11h22l10 -174h-27q-19 62 -63.5 109t-130.5 47q-84 0 -135.5 -48t-73.5 -120t-22 -148q0 -80 24.5 -150t79 -114t139.5 -44
q55 0 93 21.5t38 76.5v114q0 44 -48 44h-16v27h184v-27h-11q-35 0 -35 -33v-244h-16q-5 12 -12 18t-20 6t-53 -11q-42 -11 -71.5 -16.5t-66.5 -5.5q-92 0 -159 42zM222 881h29q0 -36 25 -58t56 -22q32 0 58 22t26 58h29q0 -132 -113 -132q-110 0 -110 132z" />
    <glyph glyph-name="gbreve" unicode="&#x11f;" horiz-adv-x="567" 
d="M523 460.5q19 -18.5 19 -44.5q0 -20 -10.5 -32.5t-28.5 -12.5q-17 0 -28 10t-11 25q0 5 2 11.5t2 11.5q0 8 -6.5 13t-14.5 5q-15 0 -42 -37q24 -37 24 -88q0 -79 -53 -117t-129 -38q-36 0 -64 8q-66 -31 -66 -70q0 -49 105 -49h61q97 0 139 -29t42 -87q0 -78 -63 -115
t-163 -37q-89 0 -143.5 29t-54.5 89q0 33 19.5 58t63.5 43q-29 9 -45.5 31t-16.5 46q0 28 22.5 54.5t67.5 47.5q-40 18 -63 51.5t-23 84.5q0 79 53.5 118t128.5 39q42 0 79 -12t62 -37q37 49 84 49q32 0 51 -18.5zM330.5 227q24.5 33 24.5 101q0 58 -26 91t-82 33
q-55 0 -81.5 -34.5t-26.5 -97.5q0 -58 24.5 -92t78.5 -34q64 0 88.5 33zM168 0q-35 -13 -49.5 -36.5t-14.5 -50.5q0 -46 37.5 -72t103.5 -26q71 0 113 30t42 84q0 37 -26.5 54t-94.5 17h-111zM135 688h29q0 -36 25 -58t56 -22q32 0 58 22t26 58h29q0 -132 -113 -132
q-110 0 -110 132z" />
    <glyph glyph-name="Gcommaaccent" unicode="&#x122;" horiz-adv-x="650" 
d="M195 30q-67 42 -102.5 118.5t-35.5 177.5q0 104 37 182t107.5 121t167.5 43q43 0 71.5 -7t56.5 -19q27 -11 38 -11q9 0 16 4t9 10l5 11h22l10 -174h-27q-19 62 -63.5 109t-130.5 47q-84 0 -135.5 -48t-73.5 -120t-22 -148q0 -80 24.5 -150t79 -114t139.5 -44
q55 0 93 21.5t38 76.5v114q0 44 -48 44h-16v27h184v-27h-11q-35 0 -35 -33v-244h-16q-5 12 -12 18t-20 6t-53 -11q-42 -11 -71.5 -16.5t-66.5 -5.5q-92 0 -159 42z" />
    <glyph glyph-name="gcommaaccent" unicode="&#x123;" horiz-adv-x="567" 
d="M215.5 528q-12.5 17 -12.5 41q0 33 23.5 59t61.5 32l4 -20q-20 -2 -35 -14t-15 -26q0 -5 4 -7.5t10 -4.5t10 -4q26 -10 26 -34q0 -18 -11.5 -28.5t-29.5 -10.5q-23 0 -35.5 17zM523 460.5q19 -18.5 19 -44.5q0 -20 -10.5 -32.5t-28.5 -12.5q-17 0 -28 10t-11 25
q0 5 2 11.5t2 11.5q0 8 -6.5 13t-14.5 5q-15 0 -42 -37q24 -37 24 -88q0 -79 -53 -117t-129 -38q-36 0 -64 8q-66 -31 -66 -70q0 -49 105 -49h61q97 0 139 -29t42 -87q0 -78 -63 -115t-163 -37q-89 0 -143.5 29t-54.5 89q0 33 19.5 58t63.5 43q-29 9 -45.5 31t-16.5 46
q0 28 22.5 54.5t67.5 47.5q-40 18 -63 51.5t-23 84.5q0 79 53.5 118t128.5 39q42 0 79 -12t62 -37q37 49 84 49q32 0 51 -18.5zM330.5 227q24.5 33 24.5 101q0 58 -26 91t-82 33q-55 0 -81.5 -34.5t-26.5 -97.5q0 -58 24.5 -92t78.5 -34q64 0 88.5 33zM168 0
q-35 -13 -49.5 -36.5t-14.5 -50.5q0 -46 37.5 -72t103.5 -26q71 0 113 30t42 84q0 37 -26.5 54t-94.5 17h-111z" />
    <glyph glyph-name="Imacron" unicode="&#x12a;" horiz-adv-x="331" 
d="M53 27q38 0 53 4.5t19 16t4 41.5v482q0 30 -4 41.5t-19 16t-53 4.5v27h226v-27q-38 0 -53 -4.5t-19 -16t-4 -41.5v-482q0 -30 4 -41.5t19 -16t53 -4.5v-27h-226v27zM51 809h230v-46h-230v46z" />
    <glyph glyph-name="imacron" unicode="&#x12b;" horiz-adv-x="251" 
d="M27 27q36 0 49.5 3.5t17.5 14t4 38.5v303q0 25 -6 33.5t-24 8.5h-37v27l110 18h23v-390q0 -27 4 -38t18 -14.5t49 -3.5v-27h-208v27zM11 616h230v-46h-230v46z" />
    <glyph glyph-name="Iogonek" unicode="&#x12e;" horiz-adv-x="331" 
d="M283 -123q-12 -29 -34 -42t-46 -13q-72 0 -72 59q0 56 94 119h-172v27q38 0 53 4.5t19 16t4 41.5v482q0 30 -4 41.5t-19 16t-53 4.5v27h226v-27q-38 0 -53 -4.5t-19 -16t-4 -41.5v-482q0 -30 4 -41.5t19 -16t53 -4.5v-27h-22q-41 -36 -56 -60.5t-15 -47.5q0 -17 12 -27
t28 -10q15 0 27 7.5t18 20.5z" />
    <glyph glyph-name="iogonek" unicode="&#x12f;" horiz-adv-x="290" 
d="M105 588q-14 14 -14 34q0 22 13.5 36t35.5 14t35.5 -14t13.5 -36q-1 -21 -14.5 -34.5t-34.5 -13.5t-35 14zM156 -60.5q-15 -24.5 -15 -47.5q0 -17 12 -27t28 -10q15 0 27 7.5t18 20.5l12 -6q-12 -29 -34 -42t-46 -13q-72 0 -72 59q0 56 94 119h-142v27q36 0 49.5 3.5
t17.5 14t4 38.5v303q0 25 -6 33.5t-24 8.5h-37v27l106 18h27v-390q0 -27 4 -38t18 -14.5t49 -3.5v-27h-34q-41 -36 -56 -60.5z" />
    <glyph glyph-name="dotlessi" unicode="&#x131;" horiz-adv-x="251" 
d="M27 27q36 0 49.5 3.5t17.5 14t4 38.5v303q0 25 -6 33.5t-24 8.5h-37v27l110 18h23v-390q0 -27 4 -38t18 -14.5t49 -3.5v-27h-208v27z" />
    <glyph glyph-name="Kcommaaccent" unicode="&#x136;" horiz-adv-x="609" 
d="M551.5 46.5q25.5 -19.5 52.5 -19.5v-27h-218v27h21q9 0 15 6t6 16q0 12 -10 25l-199 259l-16 -15v-229q0 -30 4 -41.5t19 -16t53 -4.5v-27h-226v27q38 0 53 4.5t19 16t4 41.5v482q0 30 -4 41.5t-19 16t-53 4.5v27h226v-27q-38 0 -53 -4.5t-19 -16t-4 -41.5v-217l251 236
q16 16 16 28q0 15 -22 15h-28v27h160v-27q-25 0 -40.5 -10t-54.5 -45l-16 -15l-195 -179l233 -295q19 -23 44.5 -42.5zM291 -173q20 2 35 14t15 26q0 5 -4 7.5t-10 4.5t-10 4q-26 10 -26 34q0 18 11.5 28.5t29.5 10.5q23 0 35.5 -17t12.5 -41q0 -33 -23.5 -59t-61.5 -32z
" />
    <glyph glyph-name="kcommaaccent" unicode="&#x137;" horiz-adv-x="502" 
d="M499 27v-27h-183v27h20q25 0 25 11q0 7 -20 36l-124 165l-41 -42v-114q0 -27 4 -38t18 -14.5t49 -3.5v-27h-208v27q36 0 49.5 3.5t17.5 14t4 38.5v523q0 25 -6 33.5t-24 8.5h-37v27l106 18h27v-457l161 160q20 19 20 32q0 12 -19 12h-16v27h158v-27h-15
q-34 0 -57.5 -15.5t-43 -35l-25.5 -25.5l-77 -79l135 -178q37 -49 55 -64.5t37 -15.5h10zM219 -173q20 2 35 14t15 26q0 5 -4 7.5t-10 4.5t-10 4q-26 10 -26 34q0 18 11.5 28.5t29.5 10.5q23 0 35.5 -17t12.5 -41q0 -33 -23.5 -59t-61.5 -32z" />
    <glyph glyph-name="Lacute" unicode="&#x139;" horiz-adv-x="565" 
d="M53 27q38 0 53 4t19 15.5t4 42.5v482q0 30 -4 41.5t-19 16t-53 4.5v27h226v-27q-38 0 -53 -4.5t-19 -16t-4 -41.5v-457q0 -37 9.5 -54.5t34.5 -23.5t79 -6q63 0 95.5 9.5t51 37.5t29.5 88h27l-11 -165h-465v27zM227 909q8 16 17 23.5t22 7.5q12 0 21 -9.5t9 -22.5
q0 -10 -4.5 -17.5t-19.5 -23.5l-103 -112h-18z" />
    <glyph glyph-name="lacute" unicode="&#x13a;" horiz-adv-x="273" 
d="M33 27q36 0 49.5 3.5t17.5 14t4 38.5v523q0 25 -6 33.5t-24 8.5h-37v27l106 18h27v-610q0 -27 4 -38t18 -14.5t49 -3.5v-27h-208v27zM135 882q8 16 17 23.5t22 7.5q12 0 21 -9.5t9 -22.5q0 -10 -4.5 -17.5t-19.5 -23.5l-103 -112h-18z" />
    <glyph glyph-name="Lcommaaccent" unicode="&#x13b;" horiz-adv-x="565" 
d="M53 27q38 0 53 4t19 15.5t4 42.5v482q0 30 -4 41.5t-19 16t-53 4.5v27h226v-27q-38 0 -53 -4.5t-19 -16t-4 -41.5v-457q0 -37 9.5 -54.5t34.5 -23.5t79 -6q63 0 95.5 9.5t51 37.5t29.5 88h27l-11 -165h-465v27zM232 -173q20 2 35 14t15 26q0 5 -4 7.5t-10 4.5t-10 4
q-26 10 -26 34q0 18 11.5 28.5t29.5 10.5q23 0 35.5 -17t12.5 -41q0 -33 -23.5 -59t-61.5 -32z" />
    <glyph glyph-name="lcommaaccent" unicode="&#x13c;" horiz-adv-x="273" 
d="M33 27q36 0 49.5 3.5t17.5 14t4 38.5v523q0 25 -6 33.5t-24 8.5h-37v27l106 18h27v-610q0 -27 4 -38t18 -14.5t49 -3.5v-27h-208v27zM87 -173q20 2 35 14t15 26q0 5 -4 7.5t-10 4.5t-10 4q-26 10 -26 34q0 18 11.5 28.5t29.5 10.5q23 0 35.5 -17t12.5 -41
q0 -33 -23.5 -59t-61.5 -32z" />
    <glyph glyph-name="Lcaron" unicode="&#x13d;" horiz-adv-x="565" 
d="M53 27q38 0 53 4t19 15.5t4 42.5v482q0 30 -4 41.5t-19 16t-53 4.5v27h226v-27q-38 0 -53 -4.5t-19 -16t-4 -41.5v-457q0 -37 9.5 -54.5t34.5 -23.5t79 -6q63 0 95.5 9.5t51 37.5t29.5 88h27l-11 -165h-465v27zM338 546q20 2 35 14t15 26q0 5 -4 7.5t-10 4.5t-10 4
q-26 10 -26 34q0 18 11.5 28.5t29.5 10.5q23 0 35.5 -17t12.5 -41q0 -33 -23.5 -59t-61.5 -32z" />
    <glyph glyph-name="lcaron" unicode="&#x13e;" horiz-adv-x="273" 
d="M33 27q36 0 49.5 3.5t17.5 14t4 38.5v523q0 25 -6 33.5t-24 8.5h-37v27l106 18h27v-610q0 -27 4 -38t18 -14.5t49 -3.5v-27h-208v27zM211 579q20 2 35 14t15 26q0 5 -4 7.5t-10 4.5t-10 4q-26 10 -26 34q0 18 11.5 28.5t29.5 10.5q23 0 35.5 -17t12.5 -41
q0 -33 -23.5 -59t-61.5 -32z" />
    <glyph glyph-name="Lslash" unicode="&#x141;" horiz-adv-x="592" 
d="M556 165l-11 -165h-465v27q38 0 53 4t19 15.5t4 42.5v171l-103 -73v45l103 73v266q0 30 -4 41.5t-19 16t-53 4.5v27h226v-27q-38 0 -53 -4.5t-19 -16t-4 -41.5v-214l179 126v-45l-179 -126v-198q0 -37 9.5 -54.5t34.5 -23.5t79 -6q63 0 95.5 9.5t51 37.5t29.5 88h27z" />
    <glyph glyph-name="lslash" unicode="&#x142;" horiz-adv-x="312" 
d="M181 378v-295q0 -27 4 -38t18 -14.5t49 -3.5v-27h-208v27q36 0 49.5 3.5t17.5 14t4 38.5v249l-84 -58v42l84 58v232q0 25 -6 33.5t-24 8.5h-37v27l106 18h27v-273l99 68v-42z" />
    <glyph glyph-name="Nacute" unicode="&#x143;" horiz-adv-x="691" 
d="M154 570h-2v-491q0 -28 11.5 -40t38.5 -12h36v-27h-196v27h29q24 0 35.5 12.5t11.5 39.5v497q0 26 -5 37.5t-20.5 15.5t-51.5 4v27h153l346 -523h2v448q0 48 -51 48h-35v27h196v-27h-30q-46 0 -46 -48v-591h-33zM363 909q8 16 17 23.5t22 7.5q12 0 21 -9.5t9 -22.5
q0 -10 -4.5 -17.5t-19.5 -23.5l-103 -112h-18z" />
    <glyph glyph-name="nacute" unicode="&#x144;" horiz-adv-x="569" 
d="M468 44.5q4 -10.5 17.5 -14t49.5 -3.5v-27h-208v27q35 0 49 3.5t18 14.5t4 38v244q0 49 -22.5 81.5t-74.5 32.5q-42 0 -70.5 -22t-56.5 -64v-272q0 -27 4 -38t18 -14.5t49 -3.5v-27h-208v27q36 0 49.5 3.5t17.5 14t4 38.5v303q0 25 -6 33.5t-24 8.5h-37v27l103 18h27v-78
h1q30 44 65.5 64t90.5 20q71 0 103.5 -34.5t32.5 -108.5v-253q0 -28 4 -38.5zM287 716q8 16 17 23.5t22 7.5q12 0 21 -9.5t9 -22.5q0 -10 -4.5 -17.5t-19.5 -23.5l-103 -112h-18z" />
    <glyph glyph-name="Ncommaaccent" unicode="&#x145;" horiz-adv-x="691" 
d="M154 570h-2v-491q0 -28 11.5 -40t38.5 -12h36v-27h-196v27h29q24 0 35.5 12.5t11.5 39.5v497q0 26 -5 37.5t-20.5 15.5t-51.5 4v27h153l346 -523h2v448q0 48 -51 48h-35v27h196v-27h-30q-46 0 -46 -48v-591h-33zM315 -173q20 2 35 14t15 26q0 5 -4 7.5t-10 4.5t-10 4
q-26 10 -26 34q0 18 11.5 28.5t29.5 10.5q23 0 35.5 -17t12.5 -41q0 -33 -23.5 -59t-61.5 -32z" />
    <glyph glyph-name="ncommaaccent" unicode="&#x146;" horiz-adv-x="569" 
d="M468 44.5q4 -10.5 17.5 -14t49.5 -3.5v-27h-208v27q35 0 49 3.5t18 14.5t4 38v244q0 49 -22.5 81.5t-74.5 32.5q-42 0 -70.5 -22t-56.5 -64v-272q0 -27 4 -38t18 -14.5t49 -3.5v-27h-208v27q36 0 49.5 3.5t17.5 14t4 38.5v303q0 25 -6 33.5t-24 8.5h-37v27l103 18h27v-78
h1q30 44 65.5 64t90.5 20q71 0 103.5 -34.5t32.5 -108.5v-253q0 -28 4 -38.5zM239 -173q20 2 35 14t15 26q0 5 -4 7.5t-10 4.5t-10 4q-26 10 -26 34q0 18 11.5 28.5t29.5 10.5q23 0 35.5 -17t12.5 -41q0 -33 -23.5 -59t-61.5 -32z" />
    <glyph glyph-name="Ncaron" unicode="&#x147;" horiz-adv-x="691" 
d="M154 570h-2v-491q0 -28 11.5 -40t38.5 -12h36v-27h-196v27h29q24 0 35.5 12.5t11.5 39.5v497q0 26 -5 37.5t-20.5 15.5t-51.5 4v27h153l346 -523h2v448q0 48 -51 48h-35v27h196v-27h-30q-46 0 -46 -48v-591h-33zM238 890h34l88 -88l87 88h34l-92 -140h-59z" />
    <glyph glyph-name="ncaron" unicode="&#x148;" horiz-adv-x="569" 
d="M468 44.5q4 -10.5 17.5 -14t49.5 -3.5v-27h-208v27q35 0 49 3.5t18 14.5t4 38v244q0 49 -22.5 81.5t-74.5 32.5q-42 0 -70.5 -22t-56.5 -64v-272q0 -27 4 -38t18 -14.5t49 -3.5v-27h-208v27q36 0 49.5 3.5t17.5 14t4 38.5v303q0 25 -6 33.5t-24 8.5h-37v27l103 18h27v-78
h1q30 44 65.5 64t90.5 20q71 0 103.5 -34.5t32.5 -108.5v-253q0 -28 4 -38.5zM162 697h34l88 -88l87 88h34l-92 -140h-59z" />
    <glyph glyph-name="Omacron" unicode="&#x14c;" horiz-adv-x="701" 
d="M186.5 32q-65.5 44 -97.5 120.5t-32 174.5q0 96 31 174t97 124.5t166 46.5t166 -46.5t97 -124.5t31 -174q0 -98 -32 -174.5t-97.5 -120.5t-164.5 -44t-164.5 44zM514.5 110.5q42.5 92.5 42.5 216.5q0 138 -41.5 226.5t-164.5 88.5t-164.5 -88.5t-41.5 -226.5
q0 -124 42.5 -216.5t163.5 -92.5t163.5 92.5zM237 809h230v-46h-230v46z" />
    <glyph glyph-name="omacron" unicode="&#x14d;" horiz-adv-x="516" 
d="M102 51.5q-52 63.5 -52 182.5q0 118 52.5 181.5t155.5 63.5q104 0 156.5 -63.5t52.5 -181.5q0 -119 -52.5 -182.5t-156.5 -63.5t-156 63.5zM358 72q33 57 33 162q0 104 -33 161t-100 57q-66 0 -99.5 -57t-33.5 -161q0 -105 33.5 -162t99.5 -57q67 0 100 57zM143 616h230
v-46h-230v46z" />
    <glyph glyph-name="OE" unicode="&#x152;" horiz-adv-x="961" 
d="M213.5 40.5q-75.5 40.5 -116 116.5t-40.5 182q0 153 84 237t233 84h511v-156h-27q-7 54 -19.5 79.5t-40.5 35.5t-86 10h-93q-23 0 -29 -6t-6 -31v-232h122q40 0 58 7.5t24.5 23.5t11.5 51h24v-199h-24q-5 36 -11.5 51.5t-24.5 23.5t-58 8h-122v-212q0 -37 9.5 -54.5
t35 -23.5t80.5 -6q65 0 99.5 9.5t54 37.5t30.5 88h27l-11 -165h-516q-104 0 -179.5 40.5zM470 36.5q20 6.5 30 26.5t10 59v446q0 25 -4.5 37t-23.5 18t-61 6q-151 0 -213.5 -71.5t-62.5 -215.5q0 -174 73 -243t197 -69q35 0 55 6.5z" />
    <glyph glyph-name="oe" unicode="&#x153;" horiz-adv-x="842" 
d="M467 230v-6q2 -209 150 -209q65 0 100.5 34.5t48.5 81.5l25 -8q-17 -61 -61 -98t-129 -37q-121 0 -173 82q-53 -82 -170 -82q-104 0 -156 63.5t-52 182.5q0 118 52.5 181.5t155.5 63.5q120 0 173 -87q54 87 174 87q114 0 152 -69.5t38 -172.5v-7h-328zM358 72
q33 57 33 162q0 104 -33 161t-100 57q-66 0 -99.5 -57t-33.5 -161q0 -105 33.5 -162t99.5 -57q67 0 100 57zM468 257h251q0 99 -27.5 147t-89.5 48q-126 0 -134 -195z" />
    <glyph glyph-name="Racute" unicode="&#x154;" horiz-adv-x="578" 
d="M53 27q36 0 51.5 4.5t20 15.5t4.5 36v493q0 26 -5 37t-20.5 15.5t-50.5 4.5v27h245q95 0 150.5 -40.5t55.5 -123.5q0 -66 -36 -108.5t-98 -59.5v-1q45 -15 68.5 -44.5t34.5 -97.5l8 -47q10 -61 26.5 -86t52.5 -25v-27h-110q-14 15 -22.5 36t-15.5 56l-21 114
q-11 57 -38.5 81t-84.5 24h-65v-228q0 -26 5 -37t22 -15t57 -4v-27h-234v27zM267 345q80 0 118 33.5t38 106.5q0 74 -38.5 108t-119.5 34q-38 0 -50 -8t-12 -27v-247h64zM296 909q8 16 17 23.5t22 7.5q12 0 21 -9.5t9 -22.5q0 -10 -4.5 -17.5t-19.5 -23.5l-103 -112h-18z
" />
    <glyph glyph-name="racute" unicode="&#x155;" horiz-adv-x="372" 
d="M346 460q19 -19 19 -56q0 -61 -52 -61q-24 0 -36 12.5t-12 30.5q0 11 4 19t12 17t8 14q0 9 -14 9q-22 0 -46 -22t-39.5 -58.5t-15.5 -76.5v-205q0 -27 4 -38t18 -14.5t49 -3.5v-27h-208v27q36 0 49.5 3.5t17.5 14t4 38.5v303q0 25 -6 33.5t-24 8.5h-37v27l103 18h27v-98
h1q18 31 31.5 50.5t37 36.5t54.5 17q32 0 51 -19zM209 716q8 16 17 23.5t22 7.5q12 0 21 -9.5t9 -22.5q0 -10 -4.5 -17.5t-19.5 -23.5l-103 -112h-18z" />
    <glyph glyph-name="Rcommaaccent" unicode="&#x156;" horiz-adv-x="578" 
d="M53 27q36 0 51.5 4.5t20 15.5t4.5 36v493q0 26 -5 37t-20.5 15.5t-50.5 4.5v27h245q95 0 150.5 -40.5t55.5 -123.5q0 -66 -36 -108.5t-98 -59.5v-1q45 -15 68.5 -44.5t34.5 -97.5l8 -47q10 -61 26.5 -86t52.5 -25v-27h-110q-14 15 -22.5 36t-15.5 56l-21 114
q-11 57 -38.5 81t-84.5 24h-65v-228q0 -26 5 -37t22 -15t57 -4v-27h-234v27zM267 345q80 0 118 33.5t38 106.5q0 74 -38.5 108t-119.5 34q-38 0 -50 -8t-12 -27v-247h64zM248 -173q20 2 35 14t15 26q0 5 -4 7.5t-10 4.5t-10 4q-26 10 -26 34q0 18 11.5 28.5t29.5 10.5
q23 0 35.5 -17t12.5 -41q0 -33 -23.5 -59t-61.5 -32z" />
    <glyph glyph-name="rcommaaccent" unicode="&#x157;" horiz-adv-x="372" 
d="M346 460q19 -19 19 -56q0 -61 -52 -61q-24 0 -36 12.5t-12 30.5q0 11 4 19t12 17t8 14q0 9 -14 9q-22 0 -46 -22t-39.5 -58.5t-15.5 -76.5v-205q0 -27 4 -38t18 -14.5t49 -3.5v-27h-208v27q36 0 49.5 3.5t17.5 14t4 38.5v303q0 25 -6 33.5t-24 8.5h-37v27l103 18h27v-98
h1q18 31 31.5 50.5t37 36.5t54.5 17q32 0 51 -19zM100 -173q20 2 35 14t15 26q0 5 -4 7.5t-10 4.5t-10 4q-26 10 -26 34q0 18 11.5 28.5t29.5 10.5q23 0 35.5 -17t12.5 -41q0 -33 -23.5 -59t-61.5 -32z" />
    <glyph glyph-name="Rcaron" unicode="&#x158;" horiz-adv-x="578" 
d="M53 27q36 0 51.5 4.5t20 15.5t4.5 36v493q0 26 -5 37t-20.5 15.5t-50.5 4.5v27h245q95 0 150.5 -40.5t55.5 -123.5q0 -66 -36 -108.5t-98 -59.5v-1q45 -15 68.5 -44.5t34.5 -97.5l8 -47q10 -61 26.5 -86t52.5 -25v-27h-110q-14 15 -22.5 36t-15.5 56l-21 114
q-11 57 -38.5 81t-84.5 24h-65v-228q0 -26 5 -37t22 -15t57 -4v-27h-234v27zM267 345q80 0 118 33.5t38 106.5q0 74 -38.5 108t-119.5 34q-38 0 -50 -8t-12 -27v-247h64zM171 890h34l88 -88l87 88h34l-92 -140h-59z" />
    <glyph glyph-name="rcaron" unicode="&#x159;" horiz-adv-x="372" 
d="M346 460q19 -19 19 -56q0 -61 -52 -61q-24 0 -36 12.5t-12 30.5q0 11 4 19t12 17t8 14q0 9 -14 9q-22 0 -46 -22t-39.5 -58.5t-15.5 -76.5v-205q0 -27 4 -38t18 -14.5t49 -3.5v-27h-208v27q36 0 49.5 3.5t17.5 14t4 38.5v303q0 25 -6 33.5t-24 8.5h-37v27l103 18h27v-98
h1q18 31 31.5 50.5t37 36.5t54.5 17q32 0 51 -19zM84 697h34l88 -88l87 88h34l-92 -140h-59z" />
    <glyph glyph-name="Sacute" unicode="&#x15a;" horiz-adv-x="519" 
d="M49 182h27q5 -71 53.5 -117.5t120.5 -46.5q69 0 106.5 41.5t37.5 99.5q0 47 -28 78t-88 57l-60 26q-80 35 -121 77t-41 112q0 86 57.5 124.5t141.5 38.5q36 0 58 -6t42 -16q16 -7 22 -7q9 0 13 8t6 21h24l10 -174h-27q-6 61 -44 102.5t-108 41.5q-55 0 -87 -28.5
t-32 -91.5q0 -48 23 -76t81 -52l58 -25q56 -25 91.5 -46.5t60 -58.5t24.5 -93q0 -91 -62.5 -137t-155.5 -46q-37 0 -61.5 5.5t-52.5 15.5q-19 8 -29 8q-19 0 -21 -29h-27zM251 909q8 16 17 23.5t22 7.5q12 0 21 -9.5t9 -22.5q0 -10 -4.5 -17.5t-19.5 -23.5l-103 -112h-18z
" />
    <glyph glyph-name="sacute" unicode="&#x15b;" horiz-adv-x="439" 
d="M176 -6q-19 5 -39 13q-22 9 -32 9t-14.5 -4t-8.5 -15h-19l-11 165h17q19 -76 56.5 -111t93.5 -35q48 0 79 23.5t31 64.5q0 47 -34 70t-90 41l-28 9q-56 18 -86 44.5t-30 75.5q0 61 45 98t117 37q23 0 37.5 -3t31.5 -9q18 -6 24 -6q10 0 13.5 4.5t5 8.5t1.5 5h16l7 -147
h-17q-12 58 -37.5 89t-79.5 31q-47 0 -77 -23t-30 -59t29.5 -59.5t68.5 -34.5l24 -7q78 -23 114 -54t36 -84q0 -64 -46.5 -103t-119.5 -39q-29 0 -48 5zM219 716q8 16 17 23.5t22 7.5q12 0 21 -9.5t9 -22.5q0 -10 -4.5 -17.5t-19.5 -23.5l-103 -112h-18z" />
    <glyph glyph-name="Scedilla" unicode="&#x15e;" horiz-adv-x="519" 
d="M411.5 37q-58.5 -46 -148.5 -49l-18 -41q12 3 27 3q20 0 39 -15.5t19 -44.5q0 -35 -25.5 -51.5t-60.5 -16.5q-45 0 -78 15l11 25q24 -12 53 -12q22 0 36.5 9.5t14.5 26.5q0 16 -12.5 26t-26.5 10q-9 0 -18 -3.5t-12 -4.5l-10 5l31 70q-45 3 -96 20q-19 8 -28 8
q-19 0 -21 -29h-27l-12 194h27q5 -71 53.5 -117.5t120.5 -46.5q69 0 106.5 41.5t37.5 99.5q0 47 -28 78t-88 57l-60 26q-80 35 -121 77t-41 112q0 86 57.5 124.5t141.5 38.5q36 0 58 -6t42 -16q16 -7 22 -7q9 0 13 8t6 21h24l10 -174h-27q-6 61 -44 102.5t-108 41.5
q-55 0 -87 -28.5t-32 -91.5q0 -48 23 -76t81 -52l58 -25q56 -25 91.5 -46.5t60 -58.5t24.5 -93q0 -88 -58.5 -134z" />
    <glyph glyph-name="scedilla" unicode="&#x15f;" horiz-adv-x="439" 
d="M345.5 30q-44.5 -39 -113.5 -41l-19 -42q12 3 27 3q20 0 39 -15.5t19 -44.5q0 -35 -25.5 -51.5t-60.5 -16.5q-45 0 -78 15l11 25q24 -12 53 -12q22 0 36.5 9.5t14.5 26.5q0 16 -12.5 26t-26.5 10q-9 0 -18 -3.5t-12 -4.5l-10 5l31 71q-28 3 -63 17q-22 9 -33 9
q-10 0 -14.5 -4t-8.5 -15h-19l-11 165h17q19 -76 56.5 -111t93.5 -35q48 0 79 23.5t31 64.5q0 47 -34 70t-90 41l-28 9q-56 18 -86 44.5t-30 75.5q0 61 45 98t117 37q23 0 37.5 -3t31.5 -9q18 -6 24 -6q10 0 13.5 4.5t5 8.5t1.5 5h16l7 -147h-17q-12 58 -37.5 89t-79.5 31
q-47 0 -77 -23t-30 -59t29.5 -59.5t68.5 -34.5l24 -7q78 -23 114 -54t36 -84q0 -62 -44.5 -101z" />
    <glyph glyph-name="Scaron" unicode="&#x160;" horiz-adv-x="519" 
d="M49 182h27q5 -71 53.5 -117.5t120.5 -46.5q69 0 106.5 41.5t37.5 99.5q0 47 -28 78t-88 57l-60 26q-80 35 -121 77t-41 112q0 86 57.5 124.5t141.5 38.5q36 0 58 -6t42 -16q16 -7 22 -7q9 0 13 8t6 21h24l10 -174h-27q-6 61 -44 102.5t-108 41.5q-55 0 -87 -28.5
t-32 -91.5q0 -48 23 -76t81 -52l58 -25q56 -25 91.5 -46.5t60 -58.5t24.5 -93q0 -91 -62.5 -137t-155.5 -46q-37 0 -61.5 5.5t-52.5 15.5q-19 8 -29 8q-19 0 -21 -29h-27zM126 890h34l88 -88l87 88h34l-92 -140h-59z" />
    <glyph glyph-name="scaron" unicode="&#x161;" horiz-adv-x="439" 
d="M176 -6q-19 5 -39 13q-22 9 -32 9t-14.5 -4t-8.5 -15h-19l-11 165h17q19 -76 56.5 -111t93.5 -35q48 0 79 23.5t31 64.5q0 47 -34 70t-90 41l-28 9q-56 18 -86 44.5t-30 75.5q0 61 45 98t117 37q23 0 37.5 -3t31.5 -9q18 -6 24 -6q10 0 13.5 4.5t5 8.5t1.5 5h16l7 -147
h-17q-12 58 -37.5 89t-79.5 31q-47 0 -77 -23t-30 -59t29.5 -59.5t68.5 -34.5l24 -7q78 -23 114 -54t36 -84q0 -64 -46.5 -103t-119.5 -39q-29 0 -48 5zM94 697h34l88 -88l87 88h34l-92 -140h-59z" />
    <glyph glyph-name="uni0162" unicode="&#x162;" horiz-adv-x="570" 
d="M550 660v-158h-27q-6 56 -18.5 82t-40 36t-84.5 10h-58v-541q0 -30 4.5 -41.5t23.5 -16t67 -4.5v-27h-117l-24 -53q12 3 27 3q20 0 39 -15.5t19 -44.5q0 -35 -25.5 -51.5t-60.5 -16.5q-45 0 -78 15l11 25q24 -12 53 -12q22 0 36.5 9.5t14.5 26.5q0 16 -12.5 26t-26.5 10
q-9 0 -18 -3.5t-12 -4.5l-10 5l36 81h-116v27q48 0 66.5 4.5t23.5 16t5 41.5v541h-58q-58 0 -85.5 -10t-39.5 -36t-18 -82h-27v158h530z" />
    <glyph glyph-name="uni0163" unicode="&#x163;" horiz-adv-x="295" 
d="M204 -65.5q19 -15.5 19 -44.5q0 -35 -25.5 -51.5t-60.5 -16.5q-45 0 -78 15l11 25q24 -12 53 -12q22 0 36.5 9.5t14.5 26.5q0 16 -12.5 26t-26.5 10q-9 0 -18 -3.5t-12 -4.5l-10 5l36 82h1q-37 22 -37 85v354h-82v27q55 0 87 41.5t40 107.5h21v-149h113v-27h-113v-351
q0 -38 10.5 -53t28.5 -15q17 0 37 11t31 22l11 -23q-25 -21 -45 -31.5t-53 -10.5q-15 0 -23 2l-20 -44q12 3 27 3q20 0 39 -15.5z" />
    <glyph glyph-name="Tcaron" unicode="&#x164;" horiz-adv-x="570" 
d="M153 27q48 0 66.5 4.5t23.5 16t5 41.5v541h-58q-58 0 -85.5 -10t-39.5 -36t-18 -82h-27v158h530v-158h-27q-6 56 -18.5 82t-40 36t-84.5 10h-58v-541q0 -30 4.5 -41.5t23.5 -16t67 -4.5v-27h-264v27zM157 890h34l88 -88l87 88h34l-92 -140h-59z" />
    <glyph glyph-name="tcaron" unicode="&#x165;" horiz-adv-x="295" 
d="M121.5 8.5q-26.5 19.5 -26.5 77.5v354h-82v27q55 0 87 41.5t40 107.5h21v-149h113v-27h-113v-351q0 -38 10.5 -53t28.5 -15q17 0 37 11t31 22l11 -23q-25 -21 -45 -31.5t-53 -10.5t-59.5 19.5zM224 543q20 2 35 14t15 26q0 5 -4 7.5t-10 4.5t-10 4q-26 10 -26 34
q0 18 11.5 28.5t29.5 10.5q23 0 35.5 -17t12.5 -41q0 -33 -23.5 -59t-61.5 -32z" />
    <glyph glyph-name="Umacron" unicode="&#x16a;" horiz-adv-x="719" 
d="M181.5 49q-59.5 61 -59.5 186v336q0 30 -4 41.5t-19 16t-53 4.5v27h226v-27q-38 0 -53 -4.5t-19 -16t-4 -41.5v-345q0 -95 41.5 -151.5t123.5 -56.5t123.5 56.5t41.5 151.5v345q0 30 -4 41.5t-19 16t-53 4.5v27h226v-27q-38 0 -53 -4.5t-19 -16t-4 -41.5v-336
q0 -125 -59.5 -186t-179.5 -61t-179.5 61zM246 809h230v-46h-230v46z" />
    <glyph glyph-name="umacron" unicode="&#x16b;" horiz-adv-x="571" 
d="M460 44.5q4 -10.5 17.5 -14t49.5 -3.5v-27h-136v71h-2q-28 -41 -64.5 -62t-91.5 -21q-68 0 -100.5 35t-32.5 108v255q0 25 -6 33.5t-24 8.5h-37v27l106 18h27v-333q0 -50 22 -82t73 -32q42 0 72 22.5t56 63.5l1 274q0 25 -6 33.5t-24 8.5h-37v27l106 18h27v-390
q0 -28 4 -38.5zM155 616h230v-46h-230v46z" />
    <glyph glyph-name="Uring" unicode="&#x16e;" horiz-adv-x="719" 
d="M181.5 49q-59.5 61 -59.5 186v336q0 30 -4 41.5t-19 16t-53 4.5v27h226v-27q-38 0 -53 -4.5t-19 -16t-4 -41.5v-345q0 -95 41.5 -151.5t123.5 -56.5t123.5 56.5t41.5 151.5v345q0 30 -4 41.5t-19 16t-53 4.5v27h226v-27q-38 0 -53 -4.5t-19 -16t-4 -41.5v-336
q0 -125 -59.5 -186t-179.5 -61t-179.5 61zM301.5 750q-24.5 25 -24.5 59t24.5 58.5t59.5 24.5q34 0 58.5 -24t24.5 -59t-24.5 -59.5t-58.5 -24.5q-35 0 -59.5 25zM399.5 770q15.5 16 15.5 39t-16 38.5t-38 15.5q-23 0 -39 -16t-16 -38q0 -23 16 -39t39 -16t38.5 16z" />
    <glyph glyph-name="uring" unicode="&#x16f;" horiz-adv-x="571" 
d="M460 44.5q4 -10.5 17.5 -14t49.5 -3.5v-27h-136v71h-2q-28 -41 -64.5 -62t-91.5 -21q-68 0 -100.5 35t-32.5 108v255q0 25 -6 33.5t-24 8.5h-37v27l106 18h27v-333q0 -50 22 -82t73 -32q42 0 72 22.5t56 63.5l1 274q0 25 -6 33.5t-24 8.5h-37v27l106 18h27v-390
q0 -28 4 -38.5zM210.5 557q-24.5 25 -24.5 59t24.5 58.5t59.5 24.5q34 0 58.5 -24t24.5 -59t-24.5 -59.5t-58.5 -24.5q-35 0 -59.5 25zM308.5 577q15.5 16 15.5 39t-16 38.5t-38 15.5q-23 0 -39 -16t-16 -38q0 -23 16 -39t39 -16t38.5 16z" />
    <glyph glyph-name="Uogonek" unicode="&#x172;" horiz-adv-x="719" 
d="M676 660v-27q-38 0 -53 -4.5t-19 -16t-4 -41.5v-336q0 -190 -141 -234h3q-41 -37 -56.5 -61.5t-15.5 -47.5q0 -17 12 -27t28 -10q15 0 27 7.5t18 20.5l12 -6q-12 -29 -34 -42t-46 -13q-72 0 -72 59q0 52 82 111q-23 -4 -56 -4q-120 0 -179.5 61t-59.5 186v336
q0 30 -4 41.5t-19 16t-53 4.5v27h226v-27q-38 0 -53 -4.5t-19 -16t-4 -41.5v-345q0 -95 41.5 -151.5t123.5 -56.5t123.5 56.5t41.5 151.5v345q0 30 -4 41.5t-19 16t-53 4.5v27h226z" />
    <glyph glyph-name="uogonek" unicode="&#x173;" horiz-adv-x="571" 
d="M399 -60.5q-15 -24.5 -15 -47.5q0 -17 12 -27t28 -10q15 0 27 7.5t18 20.5l12 -6q-12 -29 -34 -42t-46 -13q-72 0 -72 59q0 56 94 119h-32v71h-2q-28 -41 -64.5 -62t-91.5 -21q-68 0 -100.5 35t-32.5 108v255q0 25 -6 33.5t-24 8.5h-37v27l106 18h27v-333q0 -50 22 -82
t73 -32q42 0 72 22.5t56 63.5l1 274q0 25 -6 33.5t-24 8.5h-37v27l106 18h27v-390q0 -28 4 -38.5t17.5 -14t49.5 -3.5v-27h-72q-41 -36 -56 -60.5z" />
    <glyph glyph-name="Ycircumflex" unicode="&#x176;" horiz-adv-x="611" 
d="M592 660v-27q-29 0 -43 -5t-23 -16t-26 -42l-147 -299v-182q0 -30 4.5 -41.5t23 -16t63.5 -4.5v-27h-256v27q45 0 63.5 4.5t23 16t4.5 41.5v168l-171 328q-16 30 -31.5 39t-52.5 9v27h216v-27h-50q-15 0 -15 -14q0 -5 5 -15l150 -294h2l142 292q5 12 5 17q0 14 -16 14
h-55v27h184zM279 890h59l92 -140h-34l-87 88l-88 -88h-34z" />
    <glyph glyph-name="ycircumflex" unicode="&#x177;" horiz-adv-x="462" 
d="M458 467v-27q-27 0 -40 -4.5t-19.5 -14t-14.5 -30.5l-203 -530q-15 -40 -31.5 -56.5t-51.5 -16.5q-36 0 -57 20t-21 48q0 21 13 35t32 14q15 0 27.5 -9.5t12.5 -27.5q0 -11 -6 -21.5t-6 -17.5q0 -14 17 -14q15 0 24 14.5t28 63.5l40 105l-146 392q-12 32 -24.5 41
t-45.5 9v27h192v-27h-35q-24 0 -24 -17q0 -5 4 -17l112 -320h1l121 317q4 11 4 19q0 18 -24 18h-43v27h164zM192 697h59l92 -140h-34l-87 88l-88 -88h-34z" />
    <glyph glyph-name="Ydieresis" unicode="&#x178;" horiz-adv-x="611" 
d="M592 660v-27q-29 0 -43 -5t-23 -16t-26 -42l-147 -299v-182q0 -30 4.5 -41.5t23 -16t63.5 -4.5v-27h-256v27q45 0 63.5 4.5t23 16t4.5 41.5v168l-171 328q-16 30 -31.5 39t-52.5 9v27h216v-27h-50q-15 0 -15 -14q0 -5 5 -15l150 -294h2l142 292q5 12 5 17q0 14 -16 14
h-55v27h184zM193 780.5q-13 12.5 -13 30.5t13 31t31 13t31 -13t13 -31t-13 -30.5t-31 -12.5t-31 12.5zM362 780.5q-13 12.5 -13 30.5t13.5 31t30.5 13q18 0 31.5 -13t13.5 -31t-13.5 -30.5t-31.5 -12.5t-31 12.5z" />
    <glyph glyph-name="Zacute" unicode="&#x179;" horiz-adv-x="566" 
d="M26 27l428 603h-180q-67 0 -99.5 -10t-46.5 -37.5t-20 -86.5h-27v164h453v-27l-428 -603h197q79 0 119 10t60.5 39.5t29.5 90.5h28l-10 -170h-504v27zM293 909q8 16 17 23.5t22 7.5q12 0 21 -9.5t9 -22.5q0 -10 -4.5 -17.5t-19.5 -23.5l-103 -112h-18z" />
    <glyph glyph-name="zacute" unicode="&#x17a;" horiz-adv-x="459" 
d="M44 27l296 413h-110q-52 0 -76.5 -8.5t-34.5 -30t-17 -69.5h-27v135h335v-27l-296 -413h139q54 0 82 9.5t42 33t22 70.5h27l-10 -140h-372v27zM238 716q8 16 17 23.5t22 7.5q12 0 21 -9.5t9 -22.5q0 -10 -4.5 -17.5t-19.5 -23.5l-103 -112h-18z" />
    <glyph glyph-name="Zdotaccent" unicode="&#x17b;" horiz-adv-x="566" 
d="M26 27l428 603h-180q-67 0 -99.5 -10t-46.5 -37.5t-20 -86.5h-27v164h453v-27l-428 -603h197q79 0 119 10t60.5 39.5t29.5 90.5h28l-10 -170h-504v27zM258 780.5q-13 12.5 -13 30.5t13.5 31t30.5 13q18 0 31.5 -13t13.5 -31t-13.5 -30.5t-31.5 -12.5t-31 12.5z" />
    <glyph glyph-name="zdotaccent" unicode="&#x17c;" horiz-adv-x="459" 
d="M44 27l296 413h-110q-52 0 -76.5 -8.5t-34.5 -30t-17 -69.5h-27v135h335v-27l-296 -413h139q54 0 82 9.5t42 33t22 70.5h27l-10 -140h-372v27zM203 587.5q-13 12.5 -13 30.5t13.5 31t30.5 13q18 0 31.5 -13t13.5 -31t-13.5 -30.5t-31.5 -12.5t-31 12.5z" />
    <glyph glyph-name="Zcaron" unicode="&#x17d;" horiz-adv-x="566" 
d="M26 27l428 603h-180q-67 0 -99.5 -10t-46.5 -37.5t-20 -86.5h-27v164h453v-27l-428 -603h197q79 0 119 10t60.5 39.5t29.5 90.5h28l-10 -170h-504v27zM168 890h34l88 -88l87 88h34l-92 -140h-59z" />
    <glyph glyph-name="zcaron" unicode="&#x17e;" horiz-adv-x="459" 
d="M44 27l296 413h-110q-52 0 -76.5 -8.5t-34.5 -30t-17 -69.5h-27v135h335v-27l-296 -413h139q54 0 82 9.5t42 33t22 70.5h27l-10 -140h-372v27zM113 697h34l88 -88l87 88h34l-92 -140h-59z" />
    <glyph glyph-name="florin" unicode="&#x192;" horiz-adv-x="465" 
d="M11 -91.5q-31 21.5 -31 60.5q0 24 12.5 40t34.5 16q19 0 34 -11t15 -35q0 -15 -8 -27t-8 -18q0 -10 9 -15t24 -5q25 0 42 21.5t27 85.5l51 332h-107v38h113l23 150q11 75 52.5 101.5t89.5 26.5q49 0 80 -22t31 -59q0 -22 -11 -35.5t-31 -13.5q-18 0 -31.5 11t-13.5 31
q0 15 7.5 26.5t7.5 14.5q0 6 -11.5 13t-28.5 7q-39 0 -55 -34t-25 -94l-19 -123h129v-38h-135l-49 -321q-12 -74 -40.5 -109.5t-94.5 -35.5q-52 0 -83 21.5z" />
    <glyph glyph-name="Scommaaccent" unicode="&#x218;" horiz-adv-x="519" 
d="M49 182h27q5 -71 53.5 -117.5t120.5 -46.5q69 0 106.5 41.5t37.5 99.5q0 47 -28 78t-88 57l-60 26q-80 35 -121 77t-41 112q0 86 57.5 124.5t141.5 38.5q36 0 58 -6t42 -16q16 -7 22 -7q9 0 13 8t6 21h24l10 -174h-27q-6 61 -44 102.5t-108 41.5q-55 0 -87 -28.5
t-32 -91.5q0 -48 23 -76t81 -52l58 -25q56 -25 91.5 -46.5t60 -58.5t24.5 -93q0 -91 -62.5 -137t-155.5 -46q-37 0 -61.5 5.5t-52.5 15.5q-19 8 -29 8q-19 0 -21 -29h-27zM203 -173q20 2 35 14t15 26q0 5 -4 7.5t-10 4.5t-10 4q-26 10 -26 34q0 18 11.5 28.5t29.5 10.5
q23 0 35.5 -17t12.5 -41q0 -33 -23.5 -59t-61.5 -32z" />
    <glyph glyph-name="scommaaccent" unicode="&#x219;" horiz-adv-x="439" 
d="M176 -6q-19 5 -39 13q-22 9 -32 9t-14.5 -4t-8.5 -15h-19l-11 165h17q19 -76 56.5 -111t93.5 -35q48 0 79 23.5t31 64.5q0 47 -34 70t-90 41l-28 9q-56 18 -86 44.5t-30 75.5q0 61 45 98t117 37q23 0 37.5 -3t31.5 -9q18 -6 24 -6q10 0 13.5 4.5t5 8.5t1.5 5h16l7 -147
h-17q-12 58 -37.5 89t-79.5 31q-47 0 -77 -23t-30 -59t29.5 -59.5t68.5 -34.5l24 -7q78 -23 114 -54t36 -84q0 -64 -46.5 -103t-119.5 -39q-29 0 -48 5zM171 -173q20 2 35 14t15 26q0 5 -4 7.5t-10 4.5t-10 4q-26 10 -26 34q0 18 11.5 28.5t29.5 10.5q23 0 35.5 -17
t12.5 -41q0 -33 -23.5 -59t-61.5 -32z" />
    <glyph glyph-name="uni021A" unicode="&#x21a;" horiz-adv-x="570" 
d="M153 27q48 0 66.5 4.5t23.5 16t5 41.5v541h-58q-58 0 -85.5 -10t-39.5 -36t-18 -82h-27v158h530v-158h-27q-6 56 -18.5 82t-40 36t-84.5 10h-58v-541q0 -30 4.5 -41.5t23.5 -16t67 -4.5v-27h-264v27zM234 -173q20 2 35 14t15 26q0 5 -4 7.5t-10 4.5t-10 4q-26 10 -26 34
q0 18 11.5 28.5t29.5 10.5q23 0 35.5 -17t12.5 -41q0 -33 -23.5 -59t-61.5 -32z" />
    <glyph glyph-name="uni021B" unicode="&#x21b;" horiz-adv-x="295" 
d="M121.5 8.5q-26.5 19.5 -26.5 77.5v354h-82v27q55 0 87 41.5t40 107.5h21v-149h113v-27h-113v-351q0 -38 10.5 -53t28.5 -15q17 0 37 11t31 22l11 -23q-25 -21 -45 -31.5t-53 -10.5t-59.5 19.5zM96 -173q20 2 35 14t15 26q0 5 -4 7.5t-10 4.5t-10 4q-26 10 -26 34
q0 18 11.5 28.5t29.5 10.5q23 0 35.5 -17t12.5 -41q0 -33 -23.5 -59t-61.5 -32z" />
    <glyph glyph-name="circumflex" unicode="&#x2c6;" horiz-adv-x="381" 
d="M161 697h59l92 -140h-34l-87 88l-88 -88h-34z" />
    <glyph glyph-name="caron" unicode="&#x2c7;" horiz-adv-x="379" 
d="M68 697h34l88 -88l87 88h34l-92 -140h-59z" />
    <glyph glyph-name="breve" unicode="&#x2d8;" horiz-adv-x="333" 
d="M55 688h29q0 -36 25 -58t56 -22q32 0 58 22t26 58h29q0 -132 -113 -132q-110 0 -110 132z" />
    <glyph glyph-name="dotaccent" unicode="&#x2d9;" horiz-adv-x="397" 
d="M167 587.5q-13 12.5 -13 30.5t13.5 31t30.5 13q18 0 31.5 -13t13.5 -31t-13.5 -30.5t-31.5 -12.5t-31 12.5z" />
    <glyph glyph-name="ring" unicode="&#x2da;" horiz-adv-x="381" 
d="M131.5 557q-24.5 25 -24.5 59t24.5 58.5t59.5 24.5q34 0 58.5 -24t24.5 -59t-24.5 -59.5t-58.5 -24.5q-35 0 -59.5 25zM229.5 577q15.5 16 15.5 39t-16 38.5t-38 15.5q-23 0 -39 -16t-16 -38q0 -23 16 -39t39 -16t38.5 16z" />
    <glyph glyph-name="ogonek" unicode="&#x2db;" horiz-adv-x="371" 
d="M113 -119q0 23 20.5 53.5t75.5 66.5h31q-41 -37 -56.5 -61.5t-15.5 -47.5q0 -17 12 -27t28 -10q15 0 27 7.5t18 20.5l12 -6q-12 -29 -34 -42t-46 -13q-72 0 -72 59z" />
    <glyph glyph-name="tilde" unicode="&#x2dc;" horiz-adv-x="354" 
d="M167 583q-40 19 -59 19q-18 0 -29.5 -12t-11.5 -27h-19q0 41 21 64.5t56 23.5q27 0 69 -18q14 -6 29 -11t27 -5q19 0 30 11t11 24h19q0 -35 -22.5 -62t-54.5 -27q-24 0 -66 20z" />
    <glyph glyph-name="hungarumlaut" unicode="&#x2dd;" horiz-adv-x="402" 
d="M147 706q9 16 18 23.5t22 7.5q12 0 21 -9.5t9 -22.5q0 -10 -4.5 -17.5t-19.5 -23.5l-103 -103h-18zM262 706q8 16 17 23.5t22 7.5q12 0 21 -9.5t9 -22.5q0 -10 -4.5 -17.5t-19.5 -23.5l-102 -103h-19z" />
    <glyph glyph-name="gravecomb" unicode="&#x300;" 
d="M-290 674q-15 16 -19.5 23.5t-4.5 17.5q0 13 9 22.5t21 9.5q13 0 22 -7.5t17 -23.5l76 -154h-18z" />
    <glyph glyph-name="acutecomb" unicode="&#x301;" 
d="M-237 716q8 16 17 23.5t22 7.5q12 0 21 -9.5t9 -22.5q0 -10 -4.5 -17.5t-19.5 -23.5l-103 -112h-18z" />
    <glyph glyph-name="uni0302" unicode="&#x302;" 
d="M-281 697h59l92 -140h-34l-87 88l-88 -88h-34z" />
    <glyph glyph-name="tildecomb" unicode="&#x303;" 
d="M-261 583q-40 19 -59 19q-18 0 -29.5 -12t-11.5 -27h-19q0 41 21 64.5t56 23.5q27 0 69 -18q14 -6 29 -11t27 -5q19 0 30 11t11 24h19q0 -35 -22.5 -62t-54.5 -27q-24 0 -66 20z" />
    <glyph glyph-name="uni0304" unicode="&#x304;" 
d="M-365 616h230v-46h-230v46z" />
    <glyph glyph-name="uni0306" unicode="&#x306;" 
d="M-361 688h29q0 -36 25 -58t56 -22q32 0 58 22t26 58h29q0 -132 -113 -132q-110 0 -110 132z" />
    <glyph glyph-name="uni0307" unicode="&#x307;" 
d="M-282 587.5q-13 12.5 -13 30.5t13.5 31t30.5 13q18 0 31.5 -13t13.5 -31t-13.5 -30.5t-31.5 -12.5t-31 12.5z" />
    <glyph glyph-name="uni0308" unicode="&#x308;" 
d="M-365 587.5q-13 12.5 -13 30.5t13 31t31 13t31 -13t13 -31t-13 -30.5t-31 -12.5t-31 12.5zM-196 587.5q-13 12.5 -13 30.5t13.5 31t30.5 13q18 0 31.5 -13t13.5 -31t-13.5 -30.5t-31.5 -12.5t-31 12.5z" />
    <glyph glyph-name="uni030A" unicode="&#x30a;" 
d="M-309.5 557q-24.5 25 -24.5 59t24.5 58.5t59.5 24.5q34 0 58.5 -24t24.5 -59t-24.5 -59.5t-58.5 -24.5q-35 0 -59.5 25zM-211.5 577q15.5 16 15.5 39t-16 38.5t-38 15.5q-23 0 -39 -16t-16 -38q0 -23 16 -39t39 -16t38.5 16z" />
    <glyph glyph-name="uni030B" unicode="&#x30b;" 
d="M-303 706q9 16 18 23.5t22 7.5q12 0 21 -9.5t9 -22.5q0 -10 -4.5 -17.5t-19.5 -23.5l-103 -103h-18zM-188 706q8 16 17 23.5t22 7.5q12 0 21 -9.5t9 -22.5q0 -10 -4.5 -17.5t-19.5 -23.5l-102 -103h-19z" />
    <glyph glyph-name="uni030C" unicode="&#x30c;" 
d="M-374 697h34l88 -88l87 88h34l-92 -140h-59z" />
    <glyph glyph-name="uni0326" unicode="&#x326;" 
d="M-201 -173q20 2 35 14t15 26q0 5 -4 7.5t-10 4.5t-10 4q-26 10 -26 34q0 18 11.5 28.5t29.5 10.5q23 0 35.5 -17t12.5 -41q0 -33 -23.5 -59t-61.5 -32z" />
    <glyph glyph-name="uni0327" unicode="&#x327;" 
d="M-305 -163l11 25q24 -12 53 -12q22 0 36.5 9.5t14.5 26.5q0 16 -12.5 26t-26.5 10q-9 0 -18 -3.5t-12 -4.5l-10 5l36 82h31l-24 -54q12 3 27 3q20 0 39 -15.5t19 -44.5q0 -35 -25.5 -51.5t-60.5 -16.5q-45 0 -78 15z" />
    <glyph glyph-name="uni0328" unicode="&#x328;" 
d="M-275 -119q0 23 20.5 53.5t75.5 66.5h31q-41 -37 -56.5 -61.5t-15.5 -47.5q0 -17 12 -27t28 -10q15 0 27 7.5t18 20.5l12 -6q-12 -29 -34 -42t-46 -13q-72 0 -72 59z" />
    <glyph glyph-name="uni0335" unicode="&#x335;" 
d="M-393 284h285v-60h-285v60z" />
    <glyph glyph-name="uni0338" unicode="&#x338;" 
d="M-109 666h45l-508 -672h-46z" />
    <glyph glyph-name="pi" unicode="&#x3c0;" horiz-adv-x="594" 
d="M428 413q-4 -42 -6 -117.5t-2 -136.5q0 -112 67 -112q10 0 23.5 5.5t24.5 14.5l14 -17q-23 -29 -46.5 -45.5t-55.5 -16.5q-43 0 -64 38t-21 133q0 65 6.5 134t15.5 120h-132h-5q-1 -64 -9 -153.5t-15 -130.5q-23 -141 -93 -141q-29 0 -29 23q0 13 7 28t22 41q24 42 31 62
q31 92 32 270q-51 -2 -80 -9.5t-58 -27.5l-16 29q25 26 76.5 46t136.5 20h303v-57h-127z" />
    <glyph glyph-name="uni05B0" unicode="&#x5b0;" 
d="M60 -129q-10 10 -10 24t10 24t24 10t24 -10t10 -24t-10 -24t-24 -10t-24 10zM60 -240q-10 10 -10 24t10 24t24 10t24 -10t10 -24t-10 -24t-24 -10t-24 10z" />
    <glyph glyph-name="uni05B1" unicode="&#x5b1;" 
d="M60 -129q-10 10 -10 24t10 24t24 10t24 -10t10 -24t-10 -24t-24 -10t-24 10zM184 -129q-10 10 -10 24t10 24t24 10t24 -10t10 -24t-10 -24t-24 -10t-24 10zM293 -129q-10 10 -10 24t10 24t24 10t24 -10t10 -24t-10 -24t-24 -10t-24 10zM122 -240q-10 10 -10 24t10 24
t24 10t24 -10t10 -24t-10 -24t-24 -10t-24 10zM293 -240q-10 10 -10 24t10 24t24 10t24 -10t10 -24t-10 -24t-24 -10t-24 10z" />
    <glyph glyph-name="uni05B2" unicode="&#x5b2;" 
d="M267 -129q-10 10 -10 24t10 24t24 10t24 -10t10 -24t-10 -24t-24 -10t-24 10zM63 -82h160l-13 -45h-160zM267 -240q-10 10 -10 24t10 24t24 10t24 -10t10 -24t-10 -24t-24 -10t-24 10z" />
    <glyph glyph-name="uni05B3" unicode="&#x5b3;" 
d="M261 -128q-10 10 -10 24t10 23.5t24 9.5t24.5 -9.5t10.5 -23.5t-10.5 -24t-24.5 -10t-24 10zM114 -238.5q-10 11.5 -7 27.5l14 84h-71l13 46h159l-13 -46h-57l15 -84q3 -17 -7 -28t-23 -11t-23 11.5zM261 -240.5q-10 9.5 -10 23.5t10 24t24 10t24.5 -10t10.5 -24
t-10.5 -23.5t-24.5 -9.5t-24 9.5z" />
    <glyph glyph-name="uni05B4" unicode="&#x5b4;" 
d="M60 -129q-10 10 -10 24t10 24t24 10t24 -10t10 -24t-10 -24t-24 -10t-24 10z" />
    <glyph glyph-name="uni05B5" unicode="&#x5b5;" 
d="M60 -129q-10 10 -10 24q0 13 10.5 23.5t23.5 10.5q14 0 24 -10t10 -24t-10 -24t-24 -10t-24 10zM184 -129q-10 10 -10 24q0 13 10.5 23.5t23.5 10.5q14 0 24 -10t10 -24t-10 -24t-24 -10t-24 10z" />
    <glyph glyph-name="uni05B6" unicode="&#x5b6;" 
d="M60 -129q-10 10 -10 24t10 24t24 10t24 -10t10 -24t-10 -24t-24 -10t-24 10zM184 -129q-10 10 -10 24t10 24t24 10t24 -10t10 -24t-10 -24t-24 -10t-24 10zM122 -240q-10 10 -10 24t10 24t24 10t24 -10t10 -24t-10 -24t-24 -10t-24 10z" />
    <glyph glyph-name="uni05B7" unicode="&#x5b7;" 
d="M61 -81h135l-13 -45h-133z" />
    <glyph glyph-name="uni05B8" unicode="&#x5b8;" 
d="M113.5 -228.5q-10.5 11.5 -6.5 27.5l14 75h-71l13 45h160l-13 -45h-58l15 -75q3 -17 -7 -28t-23 -11t-23.5 11.5z" />
    <glyph glyph-name="uni05B9" unicode="&#x5b9;" 
d="M60 624q-10 10 -10 24t10 24t24 10t24 -10t10 -24t-10 -24t-24 -10t-24 10z" />
    <glyph glyph-name="uni05BA" unicode="&#x5ba;" 
d="M60 624q-10 10 -10 24t10 24t24 10t24 -10t10 -24t-10 -24t-24 -10t-24 10z" />
    <glyph glyph-name="uni05BB" unicode="&#x5bb;" 
d="M60 -129q-10 10 -10 24t10 24t24 10t24.5 -10t10.5 -24t-10.5 -24t-24.5 -10t-24 10zM115.5 -199q-9.5 10 -9.5 24t10 24t23 10q14 0 24 -10.5t10 -23.5q0 -14 -10 -24t-24 -10t-23.5 10zM169.5 -270q-10.5 10 -10.5 24t10.5 24t24.5 10t23.5 -10t9.5 -24t-9.5 -24
t-23.5 -10t-24.5 10z" />
    <glyph glyph-name="uni05BC" unicode="&#x5bc;" 
d="M60 251q-10 10 -10 24t10 24t24 10t24 -10t10 -24t-10 -24t-24 -10t-24 10z" />
    <glyph glyph-name="uni05BD" unicode="&#x5bd;" 
d="M50 -240v159l45 10v-159z" />
    <glyph glyph-name="uni05BE" unicode="&#x5be;" horiz-adv-x="310" 
d="M60 544h205l-15 -84h-205z" />
    <glyph glyph-name="uni05BF" unicode="&#x5bf;" 
d="M61 671h165l-12 -45h-164z" />
    <glyph glyph-name="uni05C0" unicode="&#x5c0;" horiz-adv-x="197" 
d="M72 544h52v-544h-52v544z" />
    <glyph glyph-name="uni05C1" unicode="&#x5c1;" 
d="M60 624q-10 10 -10 24t10 24t24 10t24 -10t10 -24t-10 -24t-24 -10t-24 10z" />
    <glyph glyph-name="uni05C2" unicode="&#x5c2;" 
d="M60 624q-10 10 -10 24t10 24t24 10t24 -10t10 -24t-10 -24t-24 -10t-24 10z" />
    <glyph glyph-name="uni05C3" unicode="&#x5c3;" horiz-adv-x="262" 
d="M98.5 389.5q-13.5 13.5 -13.5 32.5t13.5 32t32.5 13t32.5 -13t13.5 -32t-13.5 -32.5t-32.5 -13.5t-32.5 13.5zM98.5 4.5q-13.5 13.5 -13.5 32.5t13.5 32t32.5 13t32.5 -13t13.5 -32t-13.5 -32.5t-32.5 -13.5t-32.5 13.5z" />
    <glyph glyph-name="uni05C7" unicode="&#x5c7;" 
d="M124.5 -228.5q-9.5 11.5 -7.5 27.5l7 55h-74l13 65h180l-13 -65h-61l8 -55q3 -18 -7 -28.5t-23 -10.5t-22.5 11.5z" />
    <glyph glyph-name="uni05D0" unicode="&#x5d0;" horiz-adv-x="537" 
d="M445 133q34 -39 34 -76q0 -11 -3.5 -24t-13.5 -39h-12q-3 27 -37 67l-260 302l-24 -34q-22 -32 -22 -65q0 -16 4.5 -36.5t11.5 -43.5l21 -74q9 -30 9 -70q0 -16 -2 -40h-106v27h28q16 0 14 18l-17 135q-3 26 -3 47q0 34 8 60t24 50l34 49l-54 63q-11 13 -17 32t-6 39
q0 16 4 29t14 37h12v-4q0 -13 4 -27t24 -37l218 -254q1 56 44 136l30 57l-20 3q-35 5 -35 43q0 22 8 41.5t20 41.5h15v-19q0 -12 4 -16t14 -6l42 -6q38 -6 38 -46q0 -16 -5 -32.5t-9 -24.5h-9q-2 7 -4.5 10t-7.5 4l-24 3l-28 -58q-19 -38 -27.5 -66.5t-8.5 -55.5
q0 -32 11 -65z" />
    <glyph glyph-name="uni05D1" unicode="&#x5d1;" horiz-adv-x="493" 
d="M55 84h299q20 111 20 220q0 73 -3.5 101.5t-17 40.5t-46.5 12h-201q-26 0 -37.5 11.5t-11.5 35.5q0 16 4 29.5t9 26t7 19.5h15v-12q0 -14 6 -19t23 -5h206q37 0 62 -20.5t25 -68.5v-151q0 -111 -28 -220h72l-15 -84h-403z" />
    <glyph glyph-name="uni05D2" unicode="&#x5d2;" horiz-adv-x="319" 
d="M37 84h42q49 0 77.5 39t31.5 101l9 174q2 31 -3.5 41t-25.5 12l-41 5q-18 3 -27.5 11.5t-9.5 28.5q0 29 14 54.5t16 29.5h15v-17q0 -13 4 -17.5t18 -6.5l45 -6q23 -4 31 -14.5t8 -32.5l-1 -23l-10 -203q-2 -36 6 -64.5t23 -62.5q12 -29 18.5 -50t6.5 -46q0 -19 -5 -37
h-15q-3 32 -16.5 59.5t-44.5 80.5l-60 -140h-118z" />
    <glyph glyph-name="uni05D3" unicode="&#x5d3;" horiz-adv-x="455" 
d="M410 521v-63h-44q-17 -12 -15 -91l8 -315q2 -56 -33 -56q-8 0 -16 2v5q3 4 4 13.5t1 28.5v319q0 40 8 59.5t17 33.5v1h-266q-27 0 -38 11.5t-11 37.5q0 23 9 46t11 27h15v-13q0 -12 6 -17.5t23 -5.5h298q23 0 23 -23z" />
    <glyph glyph-name="uni05D4" unicode="&#x5d4;" horiz-adv-x="535" 
d="M410 -2v5q3 4 4 13.5t1 28.5v319q0 40 8 59.5t17 33.5v1h-326q-27 0 -38 10.5t-11 34.5q0 29 9 51t11 26h15v-12q0 -14 6 -19t23 -5h328q13 0 13 -13v-71l-4 -3q-7 -5 -11.5 -29.5t-3.5 -60.5l8 -315q2 -56 -33 -56q-8 0 -16 2zM75 -2v5q3 4 4 13.5t1 28.5v219
q0 21 5 33.5t20 12.5l16 -2v-5q-3 -4 -4.5 -12.5t-0.5 -29.5l8 -209q2 -56 -33 -56q-8 0 -16 2z" />
    <glyph glyph-name="uni05D5" unicode="&#x5d5;" horiz-adv-x="251" 
d="M132 -1v5q3 4 4 13.5t1 28.5v357q0 30 -5.5 39t-25.5 12l-34 5q-17 3 -27 12t-10 30q0 31 28 79h15v-14q0 -13 4 -17.5t20 -6.5l32 -5q21 -3 28.5 -14t8.5 -40l10 -430q2 -56 -33 -56q-8 0 -16 2z" />
    <glyph glyph-name="uni05D6" unicode="&#x5d6;" horiz-adv-x="246" 
d="M185 59q2 -9 2 -25q0 -19 -7.5 -28.5t-24.5 -9.5l-16 1v6q4 8 4 18q0 8 -3 29l-43 276q-3 20 -3 35q0 18 4 37t13 53l-41 6q-35 5 -35 43q0 30 13.5 54t14.5 26h15v-16q0 -12 4 -16t14 -6l67 -10q38 -6 38 -46q0 -15 -5 -31.5t-9 -24.5h-9q-2 6 -4.5 8.5t-7.5 3.5l-34 5
q-6 -20 -6 -44q0 -18 4 -38z" />
    <glyph glyph-name="uni05D7" unicode="&#x5d7;" horiz-adv-x="558" 
d="M493 531v-71l-4 -3q-7 -5 -11.5 -29.5t-3.5 -60.5l8 -315q2 -56 -33 -56q-8 0 -16 2v5q3 4 4 13.5t1 28.5v319q0 40 8 59.5t17 33.5v1h-300q-14 -12 -21.5 -37.5t-6.5 -53.5l8 -315q2 -56 -33 -56q-8 0 -16 2v5q3 4 4 13.5t1 28.5v319q0 57 17 74.5t18 18.5v1h-15
q-27 0 -38 10.5t-11 34.5q0 28 9.5 50.5t10.5 26.5h15v-12q0 -14 6 -19t23 -5h346q13 0 13 -13z" />
    <glyph glyph-name="uni05D8" unicode="&#x5d8;" horiz-adv-x="528" 
d="M455 487q23 -61 23 -155q0 -105 -22.5 -178t-64.5 -154h-295l-7 45q-2 11 -14.5 95t-12.5 133q0 40 11 90t30 90l-23 4q-35 5 -35 43q0 30 13.5 54t14.5 26h15v-16q0 -12 4 -16t14 -6l42 -8q38 -7 38 -45q0 -15 -5 -31.5t-9 -24.5h-9q-2 6 -4.5 8.5t-7.5 3.5l-25 4
q-10 -21 -18.5 -62t-8.5 -93q0 -74 25 -184q4 -15 6 -26h265q50 110 50 216q0 78 -23 118t-63 40q-18 0 -41.5 -18.5t-45.5 -79.5l-13 -36h-18l5 47q9 83 45.5 130t84.5 47q56 0 79 -61z" />
    <glyph glyph-name="uni05D9" unicode="&#x5d9;" horiz-adv-x="258" 
d="M115 303q68 53 68 114q0 21 -8.5 31t-26.5 10h-69q-26 0 -37.5 11.5t-11.5 35.5q0 16 4 29.5t9 26t7 19.5h15v-12q0 -14 6 -19t23 -5h73q34 0 47 -29q4 -10 6.5 -29.5t2.5 -37.5q0 -65 -30 -103.5t-69 -68.5z" />
    <glyph glyph-name="uni05DA" unicode="&#x5da;" horiz-adv-x="479" 
d="M361 -158v5q3 6 4 15.5t1 29.5v513q0 31 -10 42t-35 11h-237q-27 0 -38 10.5t-11 34.5q0 28 9.5 50.5t10.5 26.5h15v-12q0 -14 6 -19t23 -5h278q17 0 23.5 -9t6.5 -21l-2 -22q-7 -45 -6 -87l15 -511q1 -27 -8 -40.5t-29 -13.5q-8 0 -16 2z" />
    <glyph glyph-name="uni05DB" unicode="&#x5db;" horiz-adv-x="478" 
d="M55 84h210q73 0 101 48t28 135q0 94 -30 142.5t-99 48.5h-161q-27 0 -38 10.5t-11 34.5q0 32 20 77h15v-12q0 -14 6 -19t23 -5h174q68 0 95 -55q13 -26 26.5 -79.5t13.5 -138.5q0 -80 -15 -138.5t-43 -91.5q-16 -19 -37 -30t-41 -11h-252z" />
    <glyph glyph-name="uni05DC" unicode="&#x5dc;" horiz-adv-x="485" 
d="M196 2.5q-11 12.5 -11 32.5q0 48 63 113l101 103q23 23 30.5 55t7.5 70q0 31 -5 48t-21 25.5t-48 8.5h-225q-21 0 -30.5 11.5t-9.5 35.5q0 35 11 79t26 93q2 6 2 10q0 14 -16 17l-27 5q-9 2 -14 10t-5 21q0 28 19 60h14v-14q0 -6 3 -9.5t10 -4.5l32 -6q27 -5 27 -36
q0 -13 -5.5 -31t-12.5 -36q-11 -31 -16 -47t-5 -33q0 -21 12 -30t44 -9h214q38 0 58 -24q21 -23 21 -106q0 -42 -10.5 -91t-45.5 -84l-103 -106q-18 -19 -24.5 -30t-6.5 -23q0 -7 3.5 -21t3.5 -25q0 -22 -10.5 -33t-24.5 -11q-15 0 -26 12.5z" />
    <glyph glyph-name="uni05DD" unicode="&#x5dd;" horiz-adv-x="548" 
d="M84 361q0 33 6.5 53.5t23.5 42.5v1h-10q-27 0 -38 10.5t-11 34.5q0 28 9.5 50.5t10.5 26.5h15v-12q0 -14 6 -19t23 -5h284q32 0 53.5 -19.5t21.5 -66.5v-458h-394v361zM442 84v300q0 37 -12 55.5t-41 18.5h-240q-29 -26 -29 -97v-257q0 -13 5 -16.5t17 -3.5h300z" />
    <glyph glyph-name="uni05DE" unicode="&#x5de;" horiz-adv-x="542" 
d="M69 248q21 86 52 143l17 31q4 8 4 11q0 10 -15 11l-47 8q-20 3 -27.5 17t-7.5 30q0 24 13 49t15 32h15v-18q0 -13 3.5 -18t14.5 -7l32 -6q38 -7 38 -44q0 -21 -11 -50h2q30 20 57.5 47t35.5 70h11q34 0 77 -12t74 -39q70 -61 70 -214q0 -55 -7 -107.5t-21 -141.5
q-3 -11 -7 -40h-248l15 84h216q12 100 12 170q0 92 -33 148t-109 56q-57 0 -101 -31.5t-71 -77.5q-59 -109 -59 -349h-34q3 162 24 248z" />
    <glyph glyph-name="uni05DF" unicode="&#x5df;" horiz-adv-x="205" 
d="M80 -158v5q3 4 4 13.5t1 28.5v471q0 22 3.5 33.5t12.5 27.5q8 14 8 25q0 7 -3 9.5t-13 2.5h-33q-40 0 -40 48q0 16 4 30.5t9 26.5t7 17h15v-12q0 -14 6 -19t20 -5h50q24 0 24 -28v-31q0 -12 -4 -23.5t-9.5 -21t-7.5 -14.5q-7 -14 -10.5 -28.5t-2.5 -36.5l8 -465
q2 -56 -33 -56q-8 0 -16 2z" />
    <glyph glyph-name="uni05E0" unicode="&#x5e0;" horiz-adv-x="325" 
d="M41 84h180l-5 30q-6 33 -9 58.5t-3 59.5q0 21 1 33l7 133q2 31 -3.5 41t-25.5 12l-41 5q-18 3 -27.5 11.5t-9.5 28.5q0 29 14 54.5t16 29.5h15v-17q0 -13 4 -17.5t18 -6.5l45 -6q23 -4 31 -14.5t8 -32.5l-1 -23l-10 -203q-1 -34 3.5 -63.5t14.5 -70.5q12 -43 12 -64
q0 -16 -6 -62h-239z" />
    <glyph glyph-name="uni05E1" unicode="&#x5e1;" horiz-adv-x="510" 
d="M446.5 411.5q13.5 -53.5 13.5 -138.5q0 -138 -48.5 -211.5t-158.5 -73.5q-104 0 -153.5 66t-49.5 188q0 71 16 119.5t48 94.5v2h-11q-27 0 -38 10.5t-11 34.5q0 32 20 77h15v-12q0 -14 6 -19t23 -5h207q67 0 95 -55q13 -24 26.5 -77.5zM385 122.5q42 48.5 42 148.5
q0 86 -31 136.5t-99 50.5h-153q-19 -24 -36.5 -73.5t-17.5 -121.5q0 -97 40 -143t125 -46q88 0 130 48.5z" />
    <glyph glyph-name="uni05E2" unicode="&#x5e2;" horiz-adv-x="476" 
d="M432.5 523.5q8.5 -9.5 8.5 -32.5v-26q0 -28 -10 -54l-28 -70q-2 -5 -20 -47.5t-18 -86.5v-20q0 -70 -35.5 -111t-114.5 -79l-137 -68v86l134 66q-3 72 -38 118l-47 61q-34 47 -34 104q0 35 13 89l-26 4q-35 5 -35 43q0 30 13.5 54t14.5 26h15v-16q0 -12 4 -16t14 -6
l42 -8q38 -7 38 -45q0 -15 -5 -31.5t-9 -24.5h-9q-2 6 -4.5 8.5t-7.5 3.5l-20 3q-5 -23 -5 -39q0 -50 41 -104l34 -45q37 -50 37 -136l-1 -30l27 13q24 11 33.5 34.5t17.5 65.5q10 56 24 86l56 122q5 10 5 20q0 14 -10 15l-52 9q-18 3 -27.5 11.5t-9.5 28.5q0 22 8.5 40
t21.5 41h15v-14q0 -13 4 -17.5t18 -6.5l35 -6q21 -3 29.5 -12.5z" />
    <glyph glyph-name="uni05E3" unicode="&#x5e3;" horiz-adv-x="479" 
d="M376 -160q-8 0 -16 2v5q3 4 4 13.5t1 28.5v499q0 39 -17 54.5t-56 15.5h-169q-19 -25 -33 -65.5t-14 -71.5h49q28 0 37.5 -9t9.5 -37v-49h-15q-4 12 -17.5 18.5t-31.5 6.5q-21 0 -32.5 -8t-11.5 -22h-29q-2 28 -2 42q0 60 19 112t38 81v2h-11q-27 0 -38 10.5t-11 34.5
q0 28 9.5 50.5t10.5 26.5h15v-12q0 -14 6 -19t23 -5h198q60 0 83.5 -27.5t25.5 -93.5l8 -527q2 -56 -33 -56z" />
    <glyph glyph-name="uni05E4" unicode="&#x5e4;" horiz-adv-x="508" 
d="M444.5 409.5q13.5 -53.5 13.5 -133.5q0 -138 -50 -276h-358l15 84h287q72 0 72 179q0 97 -25 146t-84 49h-157q-19 -25 -33 -65.5t-14 -71.5h49q28 0 37.5 -9t9.5 -37v-49h-15q-4 12 -17.5 18.5t-31.5 6.5q-21 0 -32.5 -8t-11.5 -22h-29q-2 28 -2 42q0 60 19 112t38 81v2
h-11q-27 0 -38 10.5t-11 34.5q0 28 9.5 50.5t10.5 26.5h15v-12q0 -14 6 -19t23 -5h194q36 0 58.5 -13t36.5 -42q13 -26 26.5 -79.5z" />
    <glyph glyph-name="uni05E5" unicode="&#x5e5;" horiz-adv-x="402" 
d="M387 490q0 -16 -5 -32.5t-9 -24.5h-9q-2 7 -4.5 10t-7.5 4l-19 3l-147 -196q-17 -23 -27.5 -62t-10.5 -65l1 -9l25 -222q3 -23 -5 -39.5t-28 -16.5q-8 0 -16 2v5q1 1 3 3.5t2 9.5q0 14 -2 29l-40 431q-4 45 19 101q7 18 7 25t-3 9.5t-13 2.5h-33q-40 0 -40 48
q0 16 4 30.5t9 26.5t7 17h15v-12q0 -14 6 -19t20 -5h50q24 0 24 -28v-31q0 -11 -3 -21t-8 -19l-9 -19q-15 -39 -15 -84q0 -14 1 -21l10 -91q19 36 57 86l106 138l-18 3q-35 5 -35 43q0 30 13.5 54t14.5 26h15v-16q0 -12 4 -16t14 -6l42 -6q38 -6 38 -46z" />
    <glyph glyph-name="uni05E6" unicode="&#x5e6;" horiz-adv-x="474" 
d="M335 393q-18 -26 -29.5 -67.5t-12.5 -81.5l87 -78q28 -25 28 -69q0 -22 -7 -47l-13 -50h-332l11 84h274q2 8 2 11q0 20 -29 45l-119 104q-30 26 -40 47.5t-10 58.5v96q0 7 -3 9.5t-13 2.5h-44q-40 0 -40 48q0 16 4 30.5t9 26.5t7 17h15v-12q0 -14 6 -19t20 -5h50
q24 0 24 -28v-120q0 -29 6 -46t18 -27l47 -42q2 27 18 62.5t40 67.5l32 43l-18 3q-35 5 -35 43q0 30 13.5 54t14.5 26h15v-16q0 -12 4 -16t14 -6l42 -6q38 -6 38 -46q0 -16 -5 -32.5t-9 -24.5h-9q-2 7 -4.5 10t-7.5 4l-20 3z" />
    <glyph glyph-name="uni05E7" unicode="&#x5e7;" horiz-adv-x="496" 
d="M188 7v34q0 34 12 55.5t44 45.5l115 86q28 20 37.5 45t9.5 69q0 61 -18 88.5t-66 27.5h-218q-27 0 -38 10.5t-11 34.5q0 28 9.5 50.5t10.5 26.5h15v-12q0 -14 6 -19t23 -5h231q33 0 54 -15q24 -18 35.5 -56t11.5 -99q0 -70 -17 -107.5t-64 -72.5l-108 -82
q-25 -18 -31.5 -33t-6.5 -48v-24q0 -17 -17 -17q-19 0 -19 17zM69 -158v5q3 4 4 13.5t1 28.5v378q0 21 5 33.5t20 12.5l16 -2v-5q-3 -4 -4.5 -12.5t-0.5 -29.5l8 -368q0 -26 -6.5 -41t-26.5 -15q-8 0 -16 2z" />
    <glyph glyph-name="uni05E8" unicode="&#x5e8;" horiz-adv-x="474" 
d="M355 -1v5q3 4 4 13.5t1 28.5v342q0 39 -17 54.5t-56 15.5h-213q-27 0 -38 10.5t-11 34.5q0 28 9.5 50.5t10.5 26.5h15v-12q0 -14 6 -19t23 -5h198q60 0 83.5 -27.5t25.5 -93.5l8 -370q2 -56 -33 -56q-8 0 -16 2z" />
    <glyph glyph-name="uni05E9" unicode="&#x5e9;" horiz-adv-x="609" 
d="M560.5 523.5q8.5 -9.5 8.5 -32.5v-16q0 -14 -8 -40t-15 -44l-64 -153q-21 -49 -36 -91.5t-32 -119.5l-6 -27h-297q-20 94 -32 160.5t-12 114.5q0 38 8.5 88t22.5 90l-23 4q-35 5 -35 43q0 30 13.5 54t14.5 26h15v-16q0 -12 4 -16t14 -6l42 -8q38 -7 38 -45
q0 -15 -5 -31.5t-9 -24.5h-9q-2 6 -4.5 8.5t-7.5 3.5l-25 4q-5 -22 -11 -63.5t-6 -80.5q0 -66 10.5 -112t30.5 -110h42l110 371l-19 3q-35 5 -35 43q0 30 13.5 54t14.5 26h15v-16q0 -12 4 -16t14 -6l42 -8q38 -7 38 -45q0 -15 -5 -31.5t-9 -24.5h-9q-2 6 -4.5 8.5t-7.5 3.5
l-23 4l-109 -366h163q8 38 26 81t52 114q5 12 17 36l50 106q3 8 3 13q0 14 -17 17l-45 9q-18 3 -27.5 11.5t-9.5 28.5q0 22 8.5 40t21.5 41h15v-14q0 -13 4 -17.5t18 -6.5l35 -6q21 -3 29.5 -12.5z" />
    <glyph glyph-name="uni05EA" unicode="&#x5ea;" horiz-adv-x="560" 
d="M457 -3q-8 0 -16 2v5q3 4 4 13.5t1 28.5v342q0 39 -17 54.5t-56 15.5h-178q-7 -3 -18.5 -29t-20 -64.5t-8.5 -78.5q0 -42 14 -126q5 -26 8.5 -52t3.5 -44q0 -23 -4 -36.5t-10 -27.5h-135l11 84h76q1 6 1 23q0 13 -2 59q-2 54 -2 86q0 36 3 63q8 73 50 141v2h-36
q-27 0 -38 10.5t-11 34.5q0 28 9.5 50.5t10.5 26.5h15v-12q0 -14 6 -19t23 -5h232q60 0 83.5 -27.5t25.5 -93.5l8 -370q2 -56 -33 -56z" />
    <glyph glyph-name="uni05F0" unicode="&#x5f0;" horiz-adv-x="502" 
d="M383 -1v5q3 4 4 13.5t1 28.5v357q0 30 -5.5 39t-25.5 12l-34 5q-17 3 -27 12t-10 30q0 31 28 79h15v-14q0 -13 4 -17.5t20 -6.5l32 -5q21 -3 28.5 -14t8.5 -40l10 -430q2 -56 -33 -56q-8 0 -16 2zM132 -1v5q3 4 4 13.5t1 28.5v357q0 30 -5.5 39t-25.5 12l-34 5
q-17 3 -27 12t-10 30q0 31 28 79h15v-14q0 -13 4 -17.5t20 -6.5l32 -5q21 -3 28.5 -14t8.5 -40l10 -430q2 -56 -33 -56q-8 0 -16 2z" />
    <glyph glyph-name="uni05F1" unicode="&#x5f1;" horiz-adv-x="509" 
d="M366 303q68 53 68 114q0 21 -8.5 31t-26.5 10h-69q-26 0 -37.5 11.5t-11.5 35.5q0 16 4 29.5t9 26t7 19.5h15v-12q0 -14 6 -19t23 -5h73q34 0 47 -29q4 -10 6.5 -29.5t2.5 -37.5q0 -65 -30 -103.5t-69 -68.5zM132 -1v5q3 4 4 13.5t1 28.5v357q0 30 -5.5 39t-25.5 12
l-34 5q-17 3 -27 12t-10 30q0 31 28 79h15v-14q0 -13 4 -17.5t20 -6.5l32 -5q21 -3 28.5 -14t8.5 -40l10 -430q2 -56 -33 -56q-8 0 -16 2z" />
    <glyph glyph-name="uni05F2" unicode="&#x5f2;" horiz-adv-x="516" 
d="M373 303q68 53 68 114q0 21 -8.5 31t-26.5 10h-69q-26 0 -37.5 11.5t-11.5 35.5q0 16 4 29.5t9 26t7 19.5h15v-12q0 -14 6 -19t23 -5h73q34 0 47 -29q4 -10 6.5 -29.5t2.5 -37.5q0 -65 -30 -103.5t-69 -68.5zM115 303q68 53 68 114q0 21 -8.5 31t-26.5 10h-69
q-26 0 -37.5 11.5t-11.5 35.5q0 16 4 29.5t9 26t7 19.5h15v-12q0 -14 6 -19t23 -5h73q34 0 47 -29q4 -10 6.5 -29.5t2.5 -37.5q0 -65 -30 -103.5t-69 -68.5z" />
    <glyph glyph-name="uni05F3" unicode="&#x5f3;" horiz-adv-x="158" 
d="M30 422q29 9 42 21.5t13 32.5q0 15 -14 17q-16 2 -28.5 12.5t-12.5 33.5q0 22 14 34.5t34 12.5q21 0 34.5 -16t13.5 -48q0 -42 -21 -77.5t-70 -45.5z" />
    <glyph glyph-name="uni05F4" unicode="&#x5f4;" horiz-adv-x="290" 
d="M25 422q29 9 42 21.5t13 32.5q0 15 -14 17q-16 2 -28.5 12.5t-12.5 33.5q0 22 14 34.5t34 12.5q21 0 34.5 -16t13.5 -48q0 -42 -21 -77.5t-70 -45.5zM164 422q29 9 42 21.5t13 32.5q0 15 -14 17q-16 2 -28.5 12.5t-12.5 33.5q0 22 14 34.5t34 12.5q21 0 34.5 -16
t13.5 -48q0 -42 -21 -77.5t-70 -45.5z" />
    <glyph glyph-name="Ygrave" unicode="&#x1ef2;" horiz-adv-x="611" 
d="M592 660v-27q-29 0 -43 -5t-23 -16t-26 -42l-147 -299v-182q0 -30 4.5 -41.5t23 -16t63.5 -4.5v-27h-256v27q45 0 63.5 4.5t23 16t4.5 41.5v168l-171 328q-16 30 -31.5 39t-52.5 9v27h216v-27h-50q-15 0 -15 -14q0 -5 5 -15l150 -294h2l142 292q5 12 5 17q0 14 -16 14
h-55v27h184zM260 867q-15 16 -19.5 23.5t-4.5 17.5q0 13 9 22.5t21 9.5q13 0 22 -7.5t17 -23.5l76 -154h-18z" />
    <glyph glyph-name="ygrave" unicode="&#x1ef3;" horiz-adv-x="462" 
d="M458 467v-27q-27 0 -40 -4.5t-19.5 -14t-14.5 -30.5l-203 -530q-15 -40 -31.5 -56.5t-51.5 -16.5q-36 0 -57 20t-21 48q0 21 13 35t32 14q15 0 27.5 -9.5t12.5 -27.5q0 -11 -6 -21.5t-6 -17.5q0 -14 17 -14q15 0 24 14.5t28 63.5l40 105l-146 392q-12 32 -24.5 41
t-45.5 9v27h192v-27h-35q-24 0 -24 -17q0 -5 4 -17l112 -320h1l121 317q4 11 4 19q0 18 -24 18h-43v27h164zM173 674q-15 16 -19.5 23.5t-4.5 17.5q0 13 9 22.5t21 9.5q13 0 22 -7.5t17 -23.5l76 -154h-18z" />
    <glyph glyph-name="uni200C" unicode="&#x200c;" horiz-adv-x="258" 
d="M98 664h63v-724h-63v724z" />
    <glyph glyph-name="endash" unicode="&#x2013;" horiz-adv-x="414" 
d="M0 270h414v-46h-414v46z" />
    <glyph glyph-name="emdash" unicode="&#x2014;" horiz-adv-x="827" 
d="M0 270h827v-46h-827v46z" />
    <glyph glyph-name="quoteleft" unicode="&#x2018;" horiz-adv-x="248" 
d="M88.5 520q-13.5 16 -13.5 48q0 42 21 77.5t70 45.5l5 -23q-29 -9 -42 -21.5t-13 -32.5q0 -15 14 -17q16 -2 28.5 -12.5t12.5 -33.5q0 -22 -14 -34.5t-34 -12.5q-21 0 -34.5 16z" />
    <glyph glyph-name="quoteright" unicode="&#x2019;" horiz-adv-x="248" 
d="M78 527q29 9 42 21.5t13 32.5q0 14 -14 17q-41 8 -41 46q0 22 14 34.5t34 12.5q21 0 34.5 -16t13.5 -48q0 -42 -21 -77.5t-70 -45.5z" />
    <glyph glyph-name="quotesinglbase" unicode="&#x201a;" horiz-adv-x="248" 
d="M78 -69q29 9 42 21.5t13 32.5q0 15 -14 17q-16 2 -28.5 12.5t-12.5 33.5q0 22 14 34.5t34 12.5q21 0 34.5 -16t13.5 -48q0 -42 -21 -77.5t-70 -45.5z" />
    <glyph glyph-name="quotedblleft" unicode="&#x201c;" horiz-adv-x="381" 
d="M83.5 520q-13.5 16 -13.5 48q0 42 21 77.5t70 45.5l5 -23q-29 -9 -42 -21.5t-13 -32.5q0 -16 14 -17q15 -1 28 -12t13 -34q0 -22 -14 -34.5t-34 -12.5q-21 0 -34.5 16zM225.5 520q-13.5 16 -13.5 48q0 42 21 77.5t70 45.5l5 -23q-29 -9 -42 -21.5t-13 -32.5q0 -16 14 -17
q15 -1 28 -12t13 -34q0 -22 -14 -34.5t-34 -12.5q-21 0 -34.5 16z" />
    <glyph glyph-name="quotedblright" unicode="&#x201d;" horiz-adv-x="381" 
d="M73 527q29 9 42 21.5t13 32.5q0 16 -14 17q-15 1 -28 12t-13 34q0 22 14 34.5t34 12.5q21 0 34.5 -16t13.5 -48q0 -42 -21 -77.5t-70 -45.5zM215 527q29 9 42 21.5t13 32.5q0 16 -14 17q-15 1 -28 12t-13 34q0 22 14 34.5t34 12.5q21 0 34.5 -16t13.5 -48
q0 -42 -21 -77.5t-70 -45.5z" />
    <glyph glyph-name="quotedblbase" unicode="&#x201e;" horiz-adv-x="381" 
d="M73 -92q29 9 42 21.5t13 32.5q0 16 -14 17q-15 1 -28 12t-13 34q0 22 14 34.5t34 12.5q21 0 34.5 -16t13.5 -48q0 -42 -21 -77.5t-70 -45.5zM215 -92q29 9 42 21.5t13 32.5q0 16 -14 17q-15 1 -28 12t-13 34q0 22 14 34.5t34 12.5q21 0 34.5 -16t13.5 -48
q0 -42 -21 -77.5t-70 -45.5z" />
    <glyph glyph-name="dagger" unicode="&#x2020;" horiz-adv-x="478" 
d="M212 169q-9 112 -9 132q0 25 5 51t15 64q-68 -6 -114 -14q-33 -5 -43 -5q-15 0 -20.5 8t-5.5 24q0 18 5.5 27.5t20.5 9.5q8 0 52 -7q88 -13 104 -15l-10 82q-11 77 -11 103q0 24 9 33.5t30 9.5t29.5 -9.5t8.5 -33.5q0 -23 -9 -88q-10 -78 -11 -97q19 2 105 15q42 7 51 7
q14 0 19 -9t5 -28q0 -16 -4.5 -24t-19.5 -8q-10 0 -43 5q-46 8 -114 14q2 -8 10 -44.5t8 -69.5q0 -23 -9 -147q-12 -164 -17 -273h-19q-4 95 -18 287z" />
    <glyph glyph-name="daggerdbl" unicode="&#x2021;" horiz-adv-x="478" 
d="M210 -98.5q-9 9.5 -9 33.5q0 26 11 103l10 82q-63 -8 -103 -15q-44 -7 -53 -7q-15 0 -20.5 9.5t-5.5 27.5q0 16 5.5 24t20.5 8q10 0 43 -5q46 -8 114 -14q-20 91 -20 131q0 46 20 137q-68 -6 -114 -14q-33 -5 -43 -5q-15 0 -20.5 8t-5.5 24q0 18 5.5 27.5t20.5 9.5
q9 0 53 -7q40 -7 103 -15l-10 82q-11 77 -11 103q0 24 9 33.5t30 9.5t29.5 -9.5t8.5 -33.5q0 -23 -9 -88q-10 -78 -11 -97q19 2 105 15q42 7 51 7q14 0 19 -9t5 -28q0 -16 -4.5 -24t-19.5 -8q-10 0 -43 5q-46 8 -114 14q18 -99 18 -138q0 -35 -8.5 -79t-9.5 -51q68 6 114 14
q33 5 43 5q15 0 19.5 -8t4.5 -24q0 -19 -5 -28t-19 -9q-9 0 -51 7q-86 13 -105 15q1 -19 11 -97q9 -65 9 -88q0 -24 -8.5 -33.5t-29.5 -9.5t-30 9.5z" />
    <glyph glyph-name="bullet" unicode="&#x2022;" horiz-adv-x="423" 
d="M137.5 203q-33.5 20 -53.5 53.5t-20 73.5t20 73.5t53.5 53.5t73.5 20t73.5 -20t53.5 -53.5t20 -73.5t-20 -73.5t-53.5 -53.5t-73.5 -20t-73.5 20z" />
    <glyph glyph-name="ellipsis" unicode="&#x2026;" horiz-adv-x="856" 
d="M116.5 4.5q-13.5 13.5 -13.5 33.5q0 19 13.5 33t33.5 14q19 0 33 -14t14 -33t-13.5 -33t-33.5 -14t-33.5 13.5zM394.5 4.5q-13.5 13.5 -13.5 33.5q0 19 13.5 33t33.5 14q19 0 32.5 -14t13.5 -33t-13.5 -33t-32.5 -14q-20 0 -33.5 13.5zM673 5q-14 14 -14 33t14 33t33 14
t33 -14t14 -33t-13.5 -33t-33.5 -14q-19 0 -33 14z" />
    <glyph glyph-name="perthousand" unicode="&#x2030;" horiz-adv-x="1105" 
d="M116 371.5q-38 48.5 -38 126.5q0 77 38 125.5t99 48.5q62 0 100 -48t38 -126q0 -79 -38 -127t-100 -48q-61 0 -99 48.5zM557 672h38l-368 -684h-37zM281.5 379.5q19.5 38.5 19.5 118.5q0 79 -19.5 117.5t-66.5 38.5q-46 0 -65.5 -38.5t-19.5 -117.5q0 -80 19.5 -118.5
t65.5 -38.5q47 0 66.5 38.5zM473 36.5q-38 48.5 -38 126.5q0 77 38 125.5t99 48.5q62 0 100 -48t38 -126q0 -79 -38 -127t-100 -48q-61 0 -99 48.5zM800 36.5q-38 48.5 -38 126.5q0 77 38 125.5t99 48.5q62 0 100 -48t38 -126q0 -79 -38 -127t-100 -48q-61 0 -99 48.5z
M638.5 44.5q19.5 38.5 19.5 118.5q0 79 -19.5 117.5t-66.5 38.5q-46 0 -65.5 -38.5t-19.5 -117.5q0 -80 19.5 -118.5t65.5 -38.5q47 0 66.5 38.5zM965.5 44.5q19.5 38.5 19.5 118.5q0 79 -19.5 117.5t-66.5 38.5q-46 0 -65.5 -38.5t-19.5 -117.5q0 -80 19.5 -118.5
t65.5 -38.5q47 0 66.5 38.5z" />
    <glyph glyph-name="guilsinglleft" unicode="&#x2039;" horiz-adv-x="299" 
d="M35 247l211 221h20l-138 -221l138 -222h-20z" />
    <glyph glyph-name="guilsinglright" unicode="&#x203a;" horiz-adv-x="299" 
d="M170 247l-138 221h20l211 -221l-211 -222h-20z" />
    <glyph glyph-name="fraction" unicode="&#x2044;" horiz-adv-x="50" 
d="M189 672h38l-368 -684h-37z" />
    <glyph glyph-name="uni2070" unicode="&#x2070;" horiz-adv-x="360" 
d="M72.5 314q-37.5 57 -37.5 148t37.5 148t107.5 57t107.5 -57t37.5 -148t-37.5 -148t-107.5 -57t-107.5 57zM248 319q19 43 19 143t-19 143t-68 43t-68 -42.5t-19 -143.5q0 -70 8 -110t26.5 -58t52.5 -18q49 0 68 43z" />
    <glyph glyph-name="uni2074" unicode="&#x2074;" horiz-adv-x="340" 
d="M153 282h29q12 0 16.5 5.5t4.5 17.5v70h-181v32q103 152 193 258h39v-252h61v-38h-61v-70q0 -12 4 -17.5t16 -5.5h24v-18h-145v18zM203 413v196h-2q-78 -96 -148 -196h150z" />
    <glyph glyph-name="uni2075" unicode="&#x2075;" horiz-adv-x="336" 
d="M65 274.5q-30 17.5 -30 49.5q0 18 10 28t26 10q15 0 24 -8t9 -23q0 -11 -6 -19.5t-6 -13.5q0 -12 14.5 -17t35.5 -5q46 0 71 25.5t25 76.5t-23 76.5t-66 25.5q-24 0 -42 -8.5t-36 -25.5h-14l18 214h160q15 0 21 3t9 11h16l-17 -61h-173l-13 -135l1 -1q42 31 98 31
q57 0 87.5 -33t30.5 -85q0 -59 -40.5 -96t-111.5 -37q-48 0 -78 17.5z" />
    <glyph glyph-name="uni2076" unicode="&#x2076;" horiz-adv-x="353" 
d="M72.5 303.5q-37.5 46.5 -37.5 129.5q0 110 64 173t172 66v-18q-77 -4 -125 -57t-54 -142h1q17 31 44 47t60 16q48 0 83 -34.5t35 -94.5q0 -57 -37 -94.5t-100 -37.5q-68 0 -105.5 46.5zM238 303.5q21 27.5 21 77.5q0 49 -21.5 75t-60.5 26t-62 -25t-23 -70
q0 -46 23 -78.5t65 -32.5q37 0 58 27.5z" />
    <glyph glyph-name="uni2077" unicode="&#x2077;" horiz-adv-x="331" 
d="M104 267.5q-6 10.5 -6 30.5q0 73 75 192q14 22 42.5 63.5t43.5 59.5h-164q-22 0 -31 -6t-16 -23l-5 -11h-18l11 87h257v-39q-18 -21 -46 -61.5t-41 -63.5q-24 -41 -34.5 -75.5t-12.5 -57t-4 -67.5q-1 -19 -7.5 -29t-21.5 -10q-16 0 -22 10.5z" />
    <glyph glyph-name="uni2078" unicode="&#x2078;" horiz-adv-x="337" 
d="M66 282q-35 25 -35 71q0 34 22.5 61t70.5 51q-41 23 -59 47t-18 53q0 49 39 75.5t89 26.5q45 0 78.5 -21t33.5 -64q0 -59 -76 -101q46 -25 67 -50t21 -61q0 -51 -37.5 -82t-102.5 -31q-58 0 -93 25zM253 577q0 31 -21.5 51t-58.5 20q-34 0 -56.5 -17t-22.5 -46
q0 -26 20.5 -44t79.5 -50q59 38 59 86zM228 296q25 20 25 54q0 19 -10 33t-32.5 29.5t-70.5 42.5q-33 -18 -53.5 -43t-20.5 -55q0 -36 27.5 -58.5t69.5 -22.5q40 0 65 20z" />
    <glyph glyph-name="uni2079" unicode="&#x2079;" horiz-adv-x="353" 
d="M82 269q77 4 125 57t54 143h-1q-17 -30 -44 -46.5t-60 -16.5q-48 0 -83 35.5t-35 94.5q0 56 37 93.5t100 37.5q68 0 105.5 -47.5t37.5 -129.5q0 -109 -64 -172.5t-172 -65.5v17zM238 466.5q23 24.5 23 69.5q0 46 -23 78.5t-65 32.5q-38 0 -58.5 -27.5t-20.5 -75.5
q0 -49 21.5 -75.5t60.5 -26.5t62 24.5z" />
    <glyph glyph-name="uni2080" unicode="&#x2080;" horiz-adv-x="360" 
d="M72.5 50q-37.5 57 -37.5 148t37.5 148t107.5 57t107.5 -57t37.5 -148t-37.5 -148t-107.5 -57t-107.5 57zM248 55q19 43 19 143t-19 143t-68 43t-68 -42.5t-19 -143.5q0 -70 8 -110t26.5 -58t52.5 -18q49 0 68 43z" />
    <glyph glyph-name="uni2081" unicode="&#x2081;" horiz-adv-x="298" 
d="M69 18h33q22 0 29.5 5.5t7.5 22.5v303q-56 -26 -92 -39v22q27 12 58 31.5t45 32.5h41v-350q0 -17 7 -22.5t29 -5.5h33v-18h-191v18z" />
    <glyph glyph-name="uni2082" unicode="&#x2082;" horiz-adv-x="345" 
d="M31 6q0 37 29 74.5t83 81.5q33 27 49 43t29.5 41t13.5 57q0 39 -20.5 60t-57.5 21q-25 0 -41 -9.5t-16 -22.5q0 -6 6.5 -14.5t6.5 -17.5q0 -15 -9.5 -24t-24.5 -9q-16 0 -25.5 10t-9.5 29q0 37 36 57t87 20q60 0 93.5 -28.5t33.5 -79.5q0 -31 -12.5 -53t-33 -39
t-57.5 -41q-58 -38 -86.5 -65t-29.5 -48h147q36 0 48.5 8.5t18.5 29.5h18l-23 -87h-253v6z" />
    <glyph glyph-name="uni2083" unicode="&#x2083;" horiz-adv-x="347" 
d="M64 13.5q-36 20.5 -36 55.5q0 18 10 28t27 10q15 0 23.5 -8t8.5 -23q0 -11 -6 -19t-6 -13q0 -14 18 -23t45 -9q45 0 69 26.5t24 74.5q0 93 -96 93q-16 0 -27 -1v23q9 -1 27 -1q37 0 57.5 22.5t20.5 57.5q0 34 -19 55.5t-53 21.5q-23 0 -40 -9t-17 -22q0 -5 6 -13.5
t6 -18.5q0 -14 -9 -22t-24 -8q-16 0 -25.5 9.5t-9.5 27.5q0 35 36 55t88 20q54 0 86.5 -24t32.5 -70q0 -36 -21 -59t-61 -30v-2q42 -2 71.5 -29.5t29.5 -77.5q0 -55 -39.5 -86.5t-106.5 -31.5q-54 0 -90 20.5z" />
    <glyph glyph-name="uni2084" unicode="&#x2084;" horiz-adv-x="340" 
d="M153 18h29q12 0 16.5 5.5t4.5 17.5v70h-181v32q103 152 193 258h39v-252h61v-38h-61v-70q0 -12 4 -17.5t16 -5.5h24v-18h-145v18zM203 149v196h-2q-78 -96 -148 -196h150z" />
    <glyph glyph-name="uni2085" unicode="&#x2085;" horiz-adv-x="336" 
d="M65 10.5q-30 17.5 -30 49.5q0 18 10 28t26 10q15 0 24 -8t9 -23q0 -11 -6 -19.5t-6 -13.5q0 -12 14.5 -17t35.5 -5q46 0 71 25.5t25 76.5t-23 76.5t-66 25.5q-24 0 -42 -8.5t-36 -25.5h-14l18 214h160q15 0 21 3t9 11h16l-17 -61h-173l-13 -135l1 -1q42 31 98 31
q57 0 87.5 -33t30.5 -85q0 -59 -40.5 -96t-111.5 -37q-48 0 -78 17.5z" />
    <glyph glyph-name="uni2086" unicode="&#x2086;" horiz-adv-x="353" 
d="M72.5 39.5q-37.5 46.5 -37.5 129.5q0 110 64 173t172 66v-18q-77 -4 -125 -57t-54 -142h1q17 31 44 47t60 16q48 0 83 -34.5t35 -94.5q0 -57 -37 -94.5t-100 -37.5q-68 0 -105.5 46.5zM238 39.5q21 27.5 21 77.5q0 49 -21.5 75t-60.5 26t-62 -25t-23 -70q0 -46 23 -78.5
t65 -32.5q37 0 58 27.5z" />
    <glyph glyph-name="uni2087" unicode="&#x2087;" horiz-adv-x="331" 
d="M104 3.5q-6 10.5 -6 30.5q0 73 75 192q14 22 42.5 63.5t43.5 59.5h-164q-22 0 -31 -6t-16 -23l-5 -11h-18l11 87h257v-39q-18 -21 -46 -61.5t-41 -63.5q-24 -41 -34.5 -75.5t-12.5 -57t-4 -67.5q-1 -19 -7.5 -29t-21.5 -10q-16 0 -22 10.5z" />
    <glyph glyph-name="uni2088" unicode="&#x2088;" horiz-adv-x="337" 
d="M66 18q-35 25 -35 71q0 34 22.5 61t70.5 51q-41 23 -59 47t-18 53q0 49 39 75.5t89 26.5q45 0 78.5 -21t33.5 -64q0 -59 -76 -101q46 -25 67 -50t21 -61q0 -51 -37.5 -82t-102.5 -31q-58 0 -93 25zM253 313q0 31 -21.5 51t-58.5 20q-34 0 -56.5 -17t-22.5 -46
q0 -26 20.5 -44t79.5 -50q59 38 59 86zM228 32q25 20 25 54q0 19 -10 33t-32.5 29.5t-70.5 42.5q-33 -18 -53.5 -43t-20.5 -55q0 -36 27.5 -58.5t69.5 -22.5q40 0 65 20z" />
    <glyph glyph-name="uni2089" unicode="&#x2089;" horiz-adv-x="353" 
d="M82 5q77 4 125 57t54 143h-1q-17 -30 -44 -46.5t-60 -16.5q-48 0 -83 35.5t-35 94.5q0 56 37 93.5t100 37.5q68 0 105.5 -47.5t37.5 -129.5q0 -109 -64 -172.5t-172 -65.5v17zM238 202.5q23 24.5 23 69.5q0 46 -23 78.5t-65 32.5q-38 0 -58.5 -27.5t-20.5 -75.5
q0 -49 21.5 -75.5t60.5 -26.5t62 24.5z" />
    <glyph glyph-name="uni20AA" unicode="&#x20aa;" horiz-adv-x="664" 
d="M589 514v-217q0 -66 -10.5 -130.5t-36.5 -166.5h-275q-7 45 -11.5 115t-4.5 110v95q0 27 5.5 41.5t24.5 14.5q8 0 16 -2v-5q-3 -4 -4 -13.5t-1 -28.5v-76q0 -106 13 -167h206q19 44 26.5 94t7.5 119v132q0 19 -2.5 24.5t-11.5 5.5h-9q-27 0 -38 10.5t-11 34.5
q0 28 9.5 50.5t10.5 26.5h15v-12q0 -14 6 -19t23 -5h24q28 0 28 -31zM361 458h-176q-27 -22 -27 -91v-315q0 -26 -6.5 -41t-26.5 -15q-8 0 -16 2v5q3 4 4 13.5t1 28.5v319q0 26 6 45.5t13 31t11 16.5v1h-10q-27 0 -38 10.5t-11 34.5q0 28 9.5 50.5t10.5 26.5h15v-12
q0 -14 6 -19t23 -5h247q20 0 28.5 -8t8.5 -28v-286q0 -27 -5.5 -41.5t-24.5 -14.5q-8 0 -16 2v5q3 4 4 13.5t1 28.5v208q0 35 -31 35z" />
    <glyph glyph-name="Euro" unicode="&#x20ac;" horiz-adv-x="565" 
d="M522 116q-25 -66 -69 -97t-111 -31q-104 0 -169 66.5t-81 189.5h-57v36h54q-2 30 -2 47q0 23 1 34h-53v36h56q14 129 78 202t172 73q75 0 126 -34.5t51 -92.5q0 -30 -14 -44.5t-37 -14.5t-36.5 12.5t-13.5 34.5q0 17 12 31q10 12 10 24q0 23 -23 40t-70 17
q-85 0 -129 -62.5t-52 -185.5h209v-36h-211v-22q0 -21 2 -59h209v-36h-206q25 -229 188 -229q65 0 97 30.5t53 77.5z" />
    <glyph glyph-name="uni20BA" unicode="&#x20ba;" horiz-adv-x="528" 
d="M471 211q13 -14 13 -36q0 -33 -26.5 -77.5t-80 -76.5t-130.5 -32q-24 0 -53.5 3t-44.5 8v254l-94 -50v28l94 50v80l-94 -50v28l94 50v181q0 30 -4 41.5t-19 16t-53 4.5v27h226v-27q-38 0 -53 -4.5t-19 -16t-4 -41.5v-142l122 64v-28l-122 -64v-80l122 64v-28l-122 -64
v-264h53q38 0 71.5 14.5t53.5 36t20 41.5q0 8 -3 12t-9 9q-8 6 -12.5 12.5t-4.5 20.5q0 22 13 36t33 14t33 -14z" />
    <glyph glyph-name="uni20BD" unicode="&#x20bd;" horiz-adv-x="537" 
d="M191 272v-72h149v-31h-149v-86q0 -26 5 -37t22 -15t57 -4v-27h-234v27q36 0 51.5 4.5t20 15.5t4.5 36v86h-57v31h57v72h-57v30h57v274q0 26 -5 37t-20.5 15.5t-50.5 4.5v27h225q110 0 173.5 -45t63.5 -142q0 -99 -65.5 -150t-171.5 -51h-75zM191 306h64q85 0 125.5 38
t40.5 122t-41 122.5t-127 38.5q-39 0 -50.5 -8t-11.5 -27v-286z" />
    <glyph glyph-name="uni2113" unicode="&#x2113;" horiz-adv-x="440" 
d="M124 108q-31 -30 -82 -72l-18 23q53 45 90 82q-25 91 -25 229q0 200 47.5 292.5t125.5 92.5q57 0 89 -43.5t32 -119.5q0 -109 -55.5 -222t-165.5 -225q33 -124 117 -124q36 0 66 16t60 46l16 -21q-32 -36 -67.5 -56.5t-82.5 -20.5q-100 0 -147 123zM336 594
q0 65 -19.5 98t-57.5 33q-53 0 -86 -82t-33 -266q0 -116 14 -194q182 201 182 411z" />
    <glyph glyph-name="trademark" unicode="&#x2122;" horiz-adv-x="885" 
d="M102 301h14q20 0 25 10.5t5 36.5v297h-59q-29 0 -39 -14t-14 -48h-16v77h308v-77h-15q-4 34 -14.5 48t-38.5 14h-60v-297q0 -26 5 -36.5t26 -10.5h14v-15h-141v15zM381 301q28 0 37 9.5t9 37.5v253q0 20 -14 32t-34 12h-13v15h99l143 -288l145 288h85v-14h-10
q-39 0 -39 -44v-261q0 -23 5.5 -31.5t26.5 -8.5h11v-15h-141v15h15q21 0 26 8.5t5 31.5v234h-2l-143 -287h-6l-141 287h-2v-227q0 -30 9.5 -38.5t37.5 -8.5v-15h-109v15z" />
    <glyph glyph-name="uni2126" unicode="&#x2126;" horiz-adv-x="770" 
d="M39 158h22q7 -51 17 -73t30.5 -29.5t66.5 -7.5h112l-4 21q-99 30 -157 114.5t-58 204.5q0 97 38.5 166.5t110 106.5t168.5 37t168.5 -37t110 -106.5t38.5 -166.5q0 -120 -58 -204.5t-157 -114.5l-4 -21h112q46 0 66.5 7.5t30.5 29.5t17 73h22l-10 -158h-280l10 82
q98 48 145 123.5t47 184.5q0 136 -68.5 208.5t-189.5 72.5t-189.5 -72.5t-68.5 -208.5q0 -109 47 -184.5t145 -123.5l10 -82h-280z" />
    <glyph glyph-name="estimated" unicode="&#x212e;" horiz-adv-x="800" 
d="M222.5 33q-81.5 45 -129 122t-47.5 169t47.5 169t129 122t177.5 45t177.5 -45t129 -122t47.5 -169v-8h-574q-4 0 -4 -4v-184q0 -8 8 -20q41 -47 97.5 -73.5t120.5 -26.5q66 0 125.5 30t102.5 82h52q-51 -61 -124.5 -96.5t-157.5 -35.5q-96 0 -177.5 45zM620 334q6 0 6 6
v184q0 12 -10 22q-43 44 -98.5 69t-115.5 25q-63 0 -119 -26t-99 -72q-8 -12 -8 -22v-180q0 -6 4 -6h440z" />
    <glyph glyph-name="partialdiff" unicode="&#x2202;" horiz-adv-x="477" 
d="M143.5 12.5q-41.5 24.5 -68 72.5t-26.5 113q0 67 27 109.5t67.5 62t83.5 19.5q82 0 154 -72q1 35 -2 86t-15 94q-16 54 -52 94t-88 40q-25 0 -57.5 -10t-55.5 -38l-28 35q25 20 55.5 34.5t75.5 14.5q72 0 121.5 -45t73.5 -121.5t24 -171.5q0 -101 -26 -178.5t-72 -120
t-105 -42.5q-45 0 -86.5 24.5zM379 281q-27 29 -61 51.5t-80 22.5q-35 0 -67 -17t-53 -53.5t-21 -92.5q0 -54 20 -92.5t51 -58t65 -19.5q120 0 146 259z" />
    <glyph glyph-name="uni2206" unicode="&#x2206;" horiz-adv-x="618" 
d="M311 660h28l263 -660h-586zM531 44l-215 549l-241 -549h456z" />
    <glyph glyph-name="summation" unicode="&#x2211;" horiz-adv-x="623" 
d="M288 282l-260 447h537l10 -151h-21q-6 36 -14.5 58t-29.5 36t-60 14h-339l227 -390l-252 -446h370q46 0 66.5 7.5t30.5 29.5t17 73h22l-10 -158h-563z" />
    <glyph glyph-name="minus" unicode="&#x2212;" horiz-adv-x="541" 
d="M36 260h469v-51h-469v51z" />
    <glyph glyph-name="radical" unicode="&#x221a;" horiz-adv-x="467" 
d="M101 128l-42 -20l-17 34l84 38l143 -318l149 867h39l-163 -927h-45z" />
    <glyph glyph-name="integral" unicode="&#x222b;" horiz-adv-x="121" 
d="M-64 -102.5q-16 14.5 -16 34.5q0 18 11.5 34t37.5 16q13 0 21.5 -4t17 -12t14.5 -8q14 0 26.5 33.5t12.5 114.5q0 30 -1 47l-11 269q-4 94 -4 139q0 116 21 180.5t77 64.5q26 0 42 -13.5t16 -37.5t-16 -36.5t-34 -12.5q-11 0 -17.5 4.5t-14.5 13t-14 8.5
q-9 0 -12.5 -14.5t-3.5 -44.5q0 -19 4 -101q3 -48 7 -148l9 -268q3 -87 -14 -148.5t-47.5 -93t-68.5 -31.5q-27 0 -43 14.5z" />
    <glyph glyph-name="notequal" unicode="&#x2260;" horiz-adv-x="541" 
d="M325 286l-67 -126h247v-44h-271l-70 -131l-39 21l59 110h-148v44h172l67 126h-239v44h263l72 134l39 -20l-61 -114h156v-44h-180z" />
    <glyph glyph-name="lessequal" unicode="&#x2264;" horiz-adv-x="541" 
d="M36 241v50l469 179v-50l-408 -154l408 -154v-49zM36 21h469v-44h-469v44z" />
    <glyph glyph-name="greaterequal" unicode="&#x2265;" horiz-adv-x="541" 
d="M36 112l407 154l-407 154v50l469 -179v-50l-469 -178v49zM36 21h469v-44h-469v44z" />
    <glyph glyph-name="lozenge" unicode="&#x25ca;" horiz-adv-x="530" 
d="M85 330l154 362h49l157 -362l-157 -362h-49zM395 330l-131 311l-130 -311l130 -311z" />
    <glyph glyph-name="uniFB20" unicode="&#xfb20;" horiz-adv-x="488" 
d="M444.5 523.5q8.5 -9.5 8.5 -32.5v-26q0 -28 -10 -54l-28 -70q-3 -9 -13.5 -35.5t-17.5 -52.5t-7 -46v-35q0 -76 -33 -124t-112 -48h-192l12 84h142q0 30 -4.5 59.5t-23.5 59.5l-37 58q-36 57 -36 126q0 27 7 67l-20 3q-35 5 -35 43q0 30 13.5 54t14.5 26h15v-16
q0 -12 4 -16t14 -6l42 -8q38 -7 38 -45q0 -15 -5 -31.5t-9 -24.5h-9q-2 6 -4.5 8.5t-7.5 3.5l-22 4q-1 -6 -1 -19q0 -29 10 -58t31 -66l24 -42q31 -54 31 -180h30q24 0 38.5 14.5t21 37t14.5 62.5q12 69 28 104l51 113q5 10 5 20q0 14 -10 15l-52 9q-18 3 -27.5 11.5
t-9.5 28.5q0 22 8.5 40t21.5 41h15v-14q0 -13 4 -17.5t18 -6.5l35 -6q21 -3 29.5 -12.5z" />
    <glyph glyph-name="uniFB21" unicode="&#xfb21;" horiz-adv-x="800" 
d="M747.5 100q7.5 -20 7.5 -45q0 -40 -12 -61h-12q0 18 -8.5 35t-26.5 29l-516 337l-46 -68q-18 -28 -18 -68q0 -24 9 -78l13 -71q10 -53 10 -75q0 -18 -4 -35h-99v27h28q16 0 14 18l-14 132q-2 16 -2 43q0 36 8 62t25 52l52 77l-60 39q-31 22 -31 70q0 17 3.5 30t12.5 30
h12v-1q0 -15 5.5 -28.5t30.5 -30.5l451 -295q2 65 26 116l52 113l-20 3q-35 5 -35 43q0 30 13.5 54t14.5 26h15v-16q0 -12 4 -16t14 -6l42 -6q38 -6 38 -46q0 -16 -5 -32.5t-9 -24.5h-9q-2 7 -4.5 10t-7.5 4l-21 3l-32 -70q-31 -68 -31 -112q0 -30 12 -80l83 -54
q20 -14 27.5 -34z" />
    <glyph glyph-name="uniFB22" unicode="&#xfb22;" horiz-adv-x="735" 
d="M690 521v-61h-44q-17 -12 -15 -91l8 -317q2 -56 -33 -56q-8 0 -16 2v5q3 4 4 13.5t1 28.5v321q0 63 20 93v1h-541q-27 0 -38 11t-11 36q0 23 9 46t11 27h15v-13q0 -12 6 -17.5t23 -5.5h578q23 0 23 -23z" />
    <glyph glyph-name="uniFB23" unicode="&#xfb23;" horiz-adv-x="825" 
d="M700 -2v5q3 4 4 13.5t1 28.5v324q0 63 20 93v1h-601q-27 0 -38 10.5t-11 34.5q0 28 9.5 51t10.5 27h15v-15q0 -14 6 -19t23 -5h608q13 0 13 -13v-69l-4 -3q-7 -5 -11.5 -29.5t-3.5 -60.5l8 -320q2 -56 -33 -56q-8 0 -16 2zM85 -2v5q3 4 4 13.5t1 28.5v222q0 21 5 33.5
t20 12.5l16 -2v-5q-3 -4 -4.5 -12.5t-0.5 -29.5l8 -212q0 -26 -6.5 -41t-26.5 -15q-8 0 -16 2z" />
    <glyph glyph-name="uniFB24" unicode="&#xfb24;" horiz-adv-x="768" 
d="M50 84h505q73 0 101 46.5t28 133.5q0 96 -30 146t-99 50h-451q-27 0 -38 10.5t-11 34.5q0 22 6 39t14 36h15v-12q0 -14 6 -19t23 -5h464q68 0 95 -55q13 -26 26.5 -80.5t13.5 -140.5q0 -160 -58 -227q-16 -19 -37 -30t-41 -11h-542z" />
    <glyph glyph-name="uniFB25" unicode="&#xfb25;" horiz-adv-x="785" 
d="M496 3q-11 13 -11 34q0 28 18 54.5t45 56.5l101 103q23 23 30.5 54.5t7.5 70.5q0 32 -5 49.5t-21 26t-48 8.5h-525q-21 0 -30.5 11.5t-9.5 35.5q0 53 37 170q2 6 2 10q0 14 -16 17l-27 5q-9 2 -14 10t-5 21q0 28 19 60h14v-14q0 -6 3 -9.5t10 -4.5l32 -6q27 -5 27 -35
q0 -13 -5 -30t-9 -27t-5 -14q-20 -52 -20 -75q-2 -22 12 -31.5t44 -9.5h514q38 0 58 -24q21 -23 21 -104q0 -43 -10.5 -92.5t-45.5 -84.5l-103 -106q-18 -19 -24.5 -30t-6.5 -21q0 -4 3 -22q4 -14 4 -28q0 -19 -10.5 -30.5t-24.5 -11.5q-15 0 -26 13z" />
    <glyph glyph-name="uniFB26" unicode="&#xfb26;" horiz-adv-x="818" 
d="M84 363q0 33 6.5 53.5t23.5 42.5v1h-10q-27 0 -38 9.5t-11 33.5q0 28 9.5 50.5t10.5 26.5h15v-12q0 -14 6 -19t23 -5h554q32 0 53.5 -19.5t21.5 -66.5v-458h-664v363zM712 86v300q0 37 -12 55.5t-41 18.5h-510q-29 -26 -29 -97v-257q0 -13 5 -16.5t17 -3.5h570z" />
    <glyph glyph-name="uniFB27" unicode="&#xfb27;" horiz-adv-x="764" 
d="M645 -1v5q3 4 4 13.5t1 28.5v344q0 39 -17 54.5t-56 15.5h-503q-27 0 -38 10.5t-11 34.5q0 28 9.5 51t10.5 27h15v-15q0 -14 6 -19t23 -5h488q60 0 83.5 -27.5t25.5 -93.5l8 -370q2 -56 -33 -56q-8 0 -16 2z" />
    <glyph glyph-name="uniFB28" unicode="&#xfb28;" horiz-adv-x="850" 
d="M747 -3q-8 0 -16 2v5q3 4 4 13.5t1 28.5v344q0 37 -17 52.5t-56 17.5h-468q-7 -3 -18.5 -29.5t-20 -65t-8.5 -79.5q0 -42 14 -126q5 -26 8.5 -52t3.5 -44q0 -23 -4 -36.5t-10 -27.5h-135l11 86h70q10 7 10 35q0 13 -1 31t-2 39q-4 66 -4 88q0 88 56 179v2h-39
q-27 0 -38 10t-11 33q0 28 9.5 50.5t10.5 26.5h15v-12q0 -14 6 -19t23 -5h522q60 0 83.5 -27.5t25.5 -93.5l8 -370q2 -56 -33 -56z" />
    <glyph glyph-name="uniFB2A" unicode="&#xfb2a;" horiz-adv-x="609" 
d="M560.5 523.5q8.5 -9.5 8.5 -32.5v-16q0 -14 -8 -40t-15 -44l-64 -153q-21 -49 -36 -91.5t-32 -119.5l-6 -27h-297q-20 94 -32 160.5t-12 114.5q0 38 8.5 88t22.5 90l-23 4q-35 5 -35 43q0 30 13.5 54t14.5 26h15v-16q0 -12 4 -16t14 -6l42 -8q38 -7 38 -45
q0 -15 -5 -31.5t-9 -24.5h-9q-2 6 -4.5 8.5t-7.5 3.5l-25 4q-5 -22 -11 -63.5t-6 -80.5q0 -66 10.5 -112t30.5 -110h42l110 371l-19 3q-35 5 -35 43q0 30 13.5 54t14.5 26h15v-16q0 -12 4 -16t14 -6l42 -8q38 -7 38 -45q0 -15 -5 -31.5t-9 -24.5h-9q-2 6 -4.5 8.5t-7.5 3.5
l-23 4l-109 -366h163q8 38 26 81t52 114q5 12 17 36l50 106q3 8 3 13q0 14 -17 17l-45 9q-18 3 -27.5 11.5t-9.5 28.5q0 22 8.5 40t21.5 41h15v-14q0 -13 4 -17.5t18 -6.5l35 -6q21 -3 29.5 -12.5zM485 624q-10 10 -10 24t10 24t24 10t24 -10t10 -24t-10 -24t-24 -10t-24 10
z" />
    <glyph glyph-name="uniFB2B" unicode="&#xfb2b;" horiz-adv-x="609" 
d="M560.5 523.5q8.5 -9.5 8.5 -32.5v-16q0 -14 -8 -40t-15 -44l-64 -153q-21 -49 -36 -91.5t-32 -119.5l-6 -27h-297q-20 94 -32 160.5t-12 114.5q0 38 8.5 88t22.5 90l-23 4q-35 5 -35 43q0 30 13.5 54t14.5 26h15v-16q0 -12 4 -16t14 -6l42 -8q38 -7 38 -45
q0 -15 -5 -31.5t-9 -24.5h-9q-2 6 -4.5 8.5t-7.5 3.5l-25 4q-5 -22 -11 -63.5t-6 -80.5q0 -66 10.5 -112t30.5 -110h42l110 371l-19 3q-35 5 -35 43q0 30 13.5 54t14.5 26h15v-16q0 -12 4 -16t14 -6l42 -8q38 -7 38 -45q0 -15 -5 -31.5t-9 -24.5h-9q-2 6 -4.5 8.5t-7.5 3.5
l-23 4l-109 -366h163q8 38 26 81t52 114q5 12 17 36l50 106q3 8 3 13q0 14 -17 17l-45 9q-18 3 -27.5 11.5t-9.5 28.5q0 22 8.5 40t21.5 41h15v-14q0 -13 4 -17.5t18 -6.5l35 -6q21 -3 29.5 -12.5zM90 624q-10 10 -10 24t10 24t24 10t24 -10t10 -24t-10 -24t-24 -10t-24 10z
" />
    <glyph glyph-name="uniFB2C" unicode="&#xfb2c;" horiz-adv-x="609" 
d="M560.5 523.5q8.5 -9.5 8.5 -32.5v-16q0 -14 -8 -40t-15 -44l-64 -153q-21 -49 -36 -91.5t-32 -119.5l-6 -27h-297q-20 94 -32 160.5t-12 114.5q0 38 8.5 88t22.5 90l-23 4q-35 5 -35 43q0 30 13.5 54t14.5 26h15v-16q0 -12 4 -16t14 -6l42 -8q38 -7 38 -45
q0 -15 -5 -31.5t-9 -24.5h-9q-2 6 -4.5 8.5t-7.5 3.5l-25 4q-5 -22 -11 -63.5t-6 -80.5q0 -66 10.5 -112t30.5 -110h42l110 371l-19 3q-35 5 -35 43q0 30 13.5 54t14.5 26h15v-16q0 -12 4 -16t14 -6l42 -8q38 -7 38 -45q0 -15 -5 -31.5t-9 -24.5h-9q-2 6 -4.5 8.5t-7.5 3.5
l-23 4l-109 -366h163q8 38 26 81t52 114q5 12 17 36l50 106q3 8 3 13q0 14 -17 17l-45 9q-18 3 -27.5 11.5t-9.5 28.5q0 22 8.5 40t21.5 41h15v-14q0 -13 4 -17.5t18 -6.5l35 -6q21 -3 29.5 -12.5zM339 251q-10 10 -10 24t10 24t24 10t24 -10t10 -24t-10 -24t-24 -10t-24 10
zM485 624q-10 10 -10 24t10 24t24 10t24 -10t10 -24t-10 -24t-24 -10t-24 10z" />
    <glyph glyph-name="uniFB2D" unicode="&#xfb2d;" horiz-adv-x="609" 
d="M560.5 523.5q8.5 -9.5 8.5 -32.5v-16q0 -14 -8 -40t-15 -44l-64 -153q-21 -49 -36 -91.5t-32 -119.5l-6 -27h-297q-20 94 -32 160.5t-12 114.5q0 38 8.5 88t22.5 90l-23 4q-35 5 -35 43q0 30 13.5 54t14.5 26h15v-16q0 -12 4 -16t14 -6l42 -8q38 -7 38 -45
q0 -15 -5 -31.5t-9 -24.5h-9q-2 6 -4.5 8.5t-7.5 3.5l-25 4q-5 -22 -11 -63.5t-6 -80.5q0 -66 10.5 -112t30.5 -110h42l110 371l-19 3q-35 5 -35 43q0 30 13.5 54t14.5 26h15v-16q0 -12 4 -16t14 -6l42 -8q38 -7 38 -45q0 -15 -5 -31.5t-9 -24.5h-9q-2 6 -4.5 8.5t-7.5 3.5
l-23 4l-109 -366h163q8 38 26 81t52 114q5 12 17 36l50 106q3 8 3 13q0 14 -17 17l-45 9q-18 3 -27.5 11.5t-9.5 28.5q0 22 8.5 40t21.5 41h15v-14q0 -13 4 -17.5t18 -6.5l35 -6q21 -3 29.5 -12.5zM339 251q-10 10 -10 24t10 24t24 10t24 -10t10 -24t-10 -24t-24 -10t-24 10
zM90 624q-10 10 -10 24t10 24t24 10t24 -10t10 -24t-10 -24t-24 -10t-24 10z" />
    <glyph glyph-name="uniFB2E" unicode="&#xfb2e;" horiz-adv-x="537" 
d="M445 133q34 -39 34 -76q0 -11 -3.5 -24t-13.5 -39h-12q-3 27 -37 67l-260 302l-24 -34q-22 -32 -22 -65q0 -16 4.5 -36.5t11.5 -43.5l21 -74q9 -30 9 -70q0 -16 -2 -40h-106v27h28q16 0 14 18l-17 135q-3 26 -3 47q0 34 8 60t24 50l34 49l-54 63q-11 13 -17 32t-6 39
q0 16 4 29t14 37h12v-4q0 -13 4 -27t24 -37l218 -254q1 56 44 136l30 57l-20 3q-35 5 -35 43q0 22 8 41.5t20 41.5h15v-19q0 -12 4 -16t14 -6l42 -6q38 -6 38 -46q0 -16 -5 -32.5t-9 -24.5h-9q-2 7 -4.5 10t-7.5 4l-24 3l-28 -58q-19 -38 -27.5 -66.5t-8.5 -55.5
q0 -32 11 -65zM215 -81h135l-13 -45h-133z" />
    <glyph glyph-name="uniFB2F" unicode="&#xfb2f;" horiz-adv-x="537" 
d="M445 133q34 -39 34 -76q0 -11 -3.5 -24t-13.5 -39h-12q-3 27 -37 67l-260 302l-24 -34q-22 -32 -22 -65q0 -16 4.5 -36.5t11.5 -43.5l21 -74q9 -30 9 -70q0 -16 -2 -40h-106v27h28q16 0 14 18l-17 135q-3 26 -3 47q0 34 8 60t24 50l34 49l-54 63q-11 13 -17 32t-6 39
q0 16 4 29t14 37h12v-4q0 -13 4 -27t24 -37l218 -254q1 56 44 136l30 57l-20 3q-35 5 -35 43q0 22 8 41.5t20 41.5h15v-19q0 -12 4 -16t14 -6l42 -6q38 -6 38 -46q0 -16 -5 -32.5t-9 -24.5h-9q-2 7 -4.5 10t-7.5 4l-24 3l-28 -58q-19 -38 -27.5 -66.5t-8.5 -55.5
q0 -32 11 -65zM253.5 -228.5q-10.5 11.5 -6.5 27.5l14 75h-71l13 45h160l-13 -45h-58l15 -75q3 -17 -7 -28t-23 -11t-23.5 11.5z" />
    <glyph glyph-name="uniFB30" unicode="&#xfb30;" horiz-adv-x="537" 
d="M445 133q34 -39 34 -76q0 -11 -3.5 -24t-13.5 -39h-12q-3 27 -37 67l-260 302l-24 -34q-22 -32 -22 -65q0 -16 4.5 -36.5t11.5 -43.5l21 -74q9 -30 9 -70q0 -16 -2 -40h-106v27h28q16 0 14 18l-17 135q-3 26 -3 47q0 34 8 60t24 50l34 49l-54 63q-11 13 -17 32t-6 39
q0 16 4 29t14 37h12v-4q0 -13 4 -27t24 -37l218 -254q1 56 44 136l30 57l-20 3q-35 5 -35 43q0 22 8 41.5t20 41.5h15v-19q0 -12 4 -16t14 -6l42 -6q38 -6 38 -46q0 -16 -5 -32.5t-9 -24.5h-9q-2 7 -4.5 10t-7.5 4l-24 3l-28 -58q-19 -38 -27.5 -66.5t-8.5 -55.5
q0 -32 11 -65zM269.5 141q8.5 -9 8.5 -22t-8.5 -21.5t-21.5 -8.5t-22 8.5t-9 21.5q0 14 9 22.5t22 8.5t21.5 -9z" />
    <glyph glyph-name="uniFB31" unicode="&#xfb31;" horiz-adv-x="493" 
d="M55 84h299q20 111 20 220q0 73 -3.5 101.5t-17 40.5t-46.5 12h-201q-26 0 -37.5 11.5t-11.5 35.5q0 16 4 29.5t9 26t7 19.5h15v-12q0 -14 6 -19t23 -5h206q37 0 62 -20.5t25 -68.5v-151q0 -111 -28 -220h72l-15 -84h-403zM192 251q-10 10 -10 24t10 24t24 10t24 -10
t10 -24t-10 -24t-24 -10t-24 10z" />
    <glyph glyph-name="uniFB32" unicode="&#xfb32;" horiz-adv-x="319" 
d="M37 84h42q49 0 77.5 39t31.5 101l9 174q2 31 -3.5 41t-25.5 12l-41 5q-18 3 -27.5 11.5t-9.5 28.5q0 29 14 54.5t16 29.5h15v-17q0 -13 4 -17.5t18 -6.5l45 -6q23 -4 31 -14.5t8 -32.5l-1 -23l-10 -203q-2 -36 6 -64.5t23 -62.5q12 -29 18.5 -50t6.5 -46q0 -19 -5 -37
h-15q-3 32 -16.5 59.5t-44.5 80.5l-60 -140h-118zM64 251q-10 10 -10 24t10 24t24 10t24 -10t10 -24t-10 -24t-24 -10t-24 10z" />
    <glyph glyph-name="uniFB33" unicode="&#xfb33;" horiz-adv-x="455" 
d="M410 521v-63h-44q-17 -12 -15 -91l8 -315q2 -56 -33 -56q-8 0 -16 2v5q3 4 4 13.5t1 28.5v319q0 40 8 59.5t17 33.5v1h-266q-27 0 -38 11.5t-11 37.5q0 23 9 46t11 27h15v-13q0 -12 6 -17.5t23 -5.5h298q23 0 23 -23zM194 299q10 -10 10 -24t-10 -24t-24 -10t-24 10
t-10 24t10 24t24 10t24 -10z" />
    <glyph glyph-name="uniFB34" unicode="&#xfb34;" horiz-adv-x="535" 
d="M410 -2v5q3 4 4 13.5t1 28.5v319q0 40 8 59.5t17 33.5v1h-326q-27 0 -38 10.5t-11 34.5q0 29 9 51t11 26h15v-12q0 -14 6 -19t23 -5h328q13 0 13 -13v-71l-4 -3q-7 -5 -11.5 -29.5t-3.5 -60.5l8 -315q2 -56 -33 -56q-8 0 -16 2zM75 -2v5q3 4 4 13.5t1 28.5v219
q0 21 5 33.5t20 12.5l16 -2v-5q-3 -4 -4.5 -12.5t-0.5 -29.5l8 -209q2 -56 -33 -56q-8 0 -16 2zM242 251q-10 10 -10 24t10 24t24 10t24 -10t10 -24t-10 -24t-24 -10t-24 10z" />
    <glyph glyph-name="uniFB35" unicode="&#xfb35;" horiz-adv-x="251" 
d="M132 -1v5q3 4 4 13.5t1 28.5v357q0 30 -5.5 39t-25.5 12l-34 5q-17 3 -27 12t-10 30q0 31 28 79h15v-14q0 -13 4 -17.5t20 -6.5l32 -5q21 -3 28.5 -14t8.5 -40l10 -430q2 -56 -33 -56q-8 0 -16 2zM37 251q-10 10 -10 24t10 24t24 10t24 -10t10 -24t-10 -24t-24 -10
t-24 10z" />
    <glyph glyph-name="uniFB36" unicode="&#xfb36;" horiz-adv-x="246" 
d="M185 59q2 -9 2 -25q0 -19 -7.5 -28.5t-24.5 -9.5l-16 1v6q4 8 4 18q0 8 -3 29l-43 276q-3 20 -3 35q0 18 4 37t13 53l-41 6q-35 5 -35 43q0 30 13.5 54t14.5 26h15v-16q0 -12 4 -16t14 -6l67 -10q38 -6 38 -46q0 -15 -5 -31.5t-9 -24.5h-9q-2 6 -4.5 8.5t-7.5 3.5l-34 5
q-6 -20 -6 -44q0 -18 4 -38zM2 251q-10 10 -10 24t10 24t24 10t24 -10t10 -24t-10 -24t-24 -10t-24 10z" />
    <glyph glyph-name="uniFB38" unicode="&#xfb38;" horiz-adv-x="528" 
d="M455 487q23 -61 23 -155q0 -105 -22.5 -178t-64.5 -154h-295l-7 45q-2 11 -14.5 95t-12.5 133q0 40 11 90t30 90l-23 4q-35 5 -35 43q0 30 13.5 54t14.5 26h15v-16q0 -12 4 -16t14 -6l42 -8q38 -7 38 -45q0 -15 -5 -31.5t-9 -24.5h-9q-2 6 -4.5 8.5t-7.5 3.5l-25 4
q-10 -21 -18.5 -62t-8.5 -93q0 -74 25 -184q4 -15 6 -26h265q50 110 50 216q0 78 -23 118t-63 40q-18 0 -41.5 -18.5t-45.5 -79.5l-13 -36h-18l5 47q9 83 45.5 130t84.5 47q56 0 79 -61zM248 197q-10 10 -10 24t10 24t24 10t24 -10t10 -24t-10 -24t-24 -10t-24 10z" />
    <glyph glyph-name="uniFB39" unicode="&#xfb39;" horiz-adv-x="258" 
d="M115 303q68 53 68 114q0 21 -8.5 31t-26.5 10h-69q-26 0 -37.5 11.5t-11.5 35.5q0 16 4 29.5t9 26t7 19.5h15v-12q0 -14 6 -19t23 -5h73q34 0 47 -29q4 -10 6.5 -29.5t2.5 -37.5q0 -65 -30 -103.5t-69 -68.5zM83 369q-10 10 -10 24t10 24t24 10t24 -10t10 -24t-10 -24
t-24 -10t-24 10z" />
    <glyph glyph-name="uniFB3A" unicode="&#xfb3a;" horiz-adv-x="479" 
d="M361 -158v5q3 6 4 15.5t1 29.5v513q0 31 -10 42t-35 11h-237q-27 0 -38 10.5t-11 34.5q0 28 9.5 50.5t10.5 26.5h15v-12q0 -14 6 -19t23 -5h278q17 0 23.5 -9t6.5 -21l-2 -22q-7 -45 -6 -87l15 -511q1 -27 -8 -40.5t-29 -13.5q-8 0 -16 2zM184 251q-10 10 -10 24t10 24
t24 10t24 -10t10 -24t-10 -24t-24 -10t-24 10z" />
    <glyph glyph-name="uniFB3B" unicode="&#xfb3b;" horiz-adv-x="478" 
d="M55 84h210q73 0 101 48t28 135q0 94 -30 142.5t-99 48.5h-161q-27 0 -38 10.5t-11 34.5q0 32 20 77h15v-12q0 -14 6 -19t23 -5h174q68 0 95 -55q13 -26 26.5 -79.5t13.5 -138.5q0 -80 -15 -138.5t-43 -91.5q-16 -19 -37 -30t-41 -11h-252zM201 251q-10 10 -10 24t10 24
t24 10t24 -10t10 -24t-10 -24t-24 -10t-24 10z" />
    <glyph glyph-name="uniFB3C" unicode="&#xfb3c;" horiz-adv-x="485" 
d="M196 2.5q-11 12.5 -11 32.5q0 48 63 113l101 103q23 23 30.5 55t7.5 70q0 31 -5 48t-21 25.5t-48 8.5h-225q-21 0 -30.5 11.5t-9.5 35.5q0 35 11 79t26 93q2 6 2 10q0 14 -16 17l-27 5q-9 2 -14 10t-5 21q0 28 19 60h14v-14q0 -6 3 -9.5t10 -4.5l32 -6q27 -5 27 -36
q0 -13 -5.5 -31t-12.5 -36q-11 -31 -16 -47t-5 -33q0 -21 12 -30t44 -9h214q38 0 58 -24q21 -23 21 -106q0 -42 -10.5 -91t-45.5 -84l-103 -106q-18 -19 -24.5 -30t-6.5 -23q0 -7 3.5 -21t3.5 -25q0 -22 -10.5 -33t-24.5 -11q-15 0 -26 12.5zM177 294q-10 10 -10 24t10 24
t24 10t24 -10t10 -24t-10 -24t-24 -10t-24 10z" />
    <glyph glyph-name="uniFB3E" unicode="&#xfb3e;" horiz-adv-x="542" 
d="M69 248q21 86 52 143l17 31q4 8 4 11q0 10 -15 11l-47 8q-20 3 -27.5 17t-7.5 30q0 24 13 49t15 32h15v-18q0 -13 3.5 -18t14.5 -7l32 -6q38 -7 38 -44q0 -21 -11 -50h2q30 20 57.5 47t35.5 70h11q34 0 77 -12t74 -39q70 -61 70 -214q0 -55 -7 -107.5t-21 -141.5
q-3 -11 -7 -40h-248l15 84h216q12 100 12 170q0 92 -33 148t-109 56q-57 0 -101 -31.5t-71 -77.5q-59 -109 -59 -349h-34q3 162 24 248zM261 251q-10 10 -10 24t10 24t24 10t24 -10t10 -24t-10 -24t-24 -10t-24 10z" />
    <glyph glyph-name="uniFB40" unicode="&#xfb40;" horiz-adv-x="325" 
d="M41 84h180l-5 30q-6 33 -9 58.5t-3 59.5q0 21 1 33l7 133q2 31 -3.5 41t-25.5 12l-41 5q-18 3 -27.5 11.5t-9.5 28.5q0 29 14 54.5t16 29.5h15v-17q0 -13 4 -17.5t18 -6.5l45 -6q23 -4 31 -14.5t8 -32.5l-1 -23l-10 -203q-1 -34 3.5 -63.5t14.5 -70.5q12 -43 12 -64
q0 -16 -6 -62h-239zM102 251q-10 10 -10 24t10 24t24 10t24 -10t10 -24t-10 -24t-24 -10t-24 10z" />
    <glyph glyph-name="uniFB41" unicode="&#xfb41;" horiz-adv-x="510" 
d="M446.5 411.5q13.5 -53.5 13.5 -138.5q0 -138 -48.5 -211.5t-158.5 -73.5q-104 0 -153.5 66t-49.5 188q0 71 16 119.5t48 94.5v2h-11q-27 0 -38 10.5t-11 34.5q0 32 20 77h15v-12q0 -14 6 -19t23 -5h207q67 0 95 -55q13 -24 26.5 -77.5zM385 122.5q42 48.5 42 148.5
q0 86 -31 136.5t-99 50.5h-153q-19 -24 -36.5 -73.5t-17.5 -121.5q0 -97 40 -143t125 -46q88 0 130 48.5zM235 251q-10 10 -10 24t10 24t24 10t24 -10t10 -24t-10 -24t-24 -10t-24 10z" />
    <glyph glyph-name="uniFB43" unicode="&#xfb43;" horiz-adv-x="479" 
d="M376 -160q-8 0 -16 2v5q3 4 4 13.5t1 28.5v499q0 39 -17 54.5t-56 15.5h-169q-19 -25 -33 -65.5t-14 -71.5h49q28 0 37.5 -9t9.5 -37v-49h-15q-4 12 -17.5 18.5t-31.5 6.5q-21 0 -32.5 -8t-11.5 -22h-29q-2 28 -2 42q0 60 19 112t38 81v2h-11q-27 0 -38 10.5t-11 34.5
q0 28 9.5 50.5t10.5 26.5h15v-12q0 -14 6 -19t23 -5h198q60 0 83.5 -27.5t25.5 -93.5l8 -527q2 -56 -33 -56zM245 251q-10 10 -10 24t10 24t24 10t24 -10t10 -24t-10 -24t-24 -10t-24 10z" />
    <glyph glyph-name="uniFB44" unicode="&#xfb44;" horiz-adv-x="508" 
d="M444.5 409.5q13.5 -53.5 13.5 -133.5q0 -138 -50 -276h-358l15 84h287q72 0 72 179q0 97 -25 146t-84 49h-157q-19 -25 -33 -65.5t-14 -71.5h49q28 0 37.5 -9t9.5 -37v-49h-15q-4 12 -17.5 18.5t-31.5 6.5q-21 0 -32.5 -8t-11.5 -22h-29q-2 28 -2 42q0 60 19 112t38 81v2
h-11q-27 0 -38 10.5t-11 34.5q0 28 9.5 50.5t10.5 26.5h15v-12q0 -14 6 -19t23 -5h194q36 0 58.5 -13t36.5 -42q13 -26 26.5 -79.5zM292 251q-10 10 -10 24t10 24t24 10t24 -10t10 -24t-10 -24t-24 -10t-24 10z" />
    <glyph glyph-name="uniFB46" unicode="&#xfb46;" horiz-adv-x="474" 
d="M335 393q-18 -26 -29.5 -67.5t-12.5 -81.5l87 -78q28 -25 28 -69q0 -22 -7 -47l-13 -50h-332l11 84h274q2 8 2 11q0 20 -29 45l-119 104q-30 26 -40 47.5t-10 58.5v96q0 7 -3 9.5t-13 2.5h-44q-40 0 -40 48q0 16 4 30.5t9 26.5t7 17h15v-12q0 -14 6 -19t20 -5h50
q24 0 24 -28v-120q0 -29 6 -46t18 -27l47 -42q2 27 18 62.5t40 67.5l32 43l-18 3q-35 5 -35 43q0 30 13.5 54t14.5 26h15v-16q0 -12 4 -16t14 -6l42 -6q38 -6 38 -46q0 -16 -5 -32.5t-9 -24.5h-9q-2 7 -4.5 10t-7.5 4l-20 3zM185 147q-10 -10 -24 -10t-24 10t-10 24t10 24
t24 10t24 -10t10 -24t-10 -24z" />
    <glyph glyph-name="uniFB47" unicode="&#xfb47;" horiz-adv-x="496" 
d="M188 7v34q0 34 12 55.5t44 45.5l115 86q28 20 37.5 45t9.5 69q0 61 -18 88.5t-66 27.5h-218q-27 0 -38 10.5t-11 34.5q0 28 9.5 50.5t10.5 26.5h15v-12q0 -14 6 -19t23 -5h231q33 0 54 -15q24 -18 35.5 -56t11.5 -99q0 -70 -17 -107.5t-64 -72.5l-108 -82
q-25 -18 -31.5 -33t-6.5 -48v-24q0 -17 -17 -17q-19 0 -19 17zM69 -158v5q3 4 4 13.5t1 28.5v378q0 21 5 33.5t20 12.5l16 -2v-5q-3 -4 -4.5 -12.5t-0.5 -29.5l8 -368q0 -26 -6.5 -41t-26.5 -15q-8 0 -16 2zM234 294q-10 10 -10 24t10 24t24 10t24 -10t10 -24t-10 -24
t-24 -10t-24 10z" />
    <glyph glyph-name="uniFB48" unicode="&#xfb48;" horiz-adv-x="474" 
d="M355 -1v5q3 4 4 13.5t1 28.5v342q0 39 -17 54.5t-56 15.5h-213q-27 0 -38 10.5t-11 34.5q0 28 9.5 50.5t10.5 26.5h15v-12q0 -14 6 -19t23 -5h198q60 0 83.5 -27.5t25.5 -93.5l8 -370q2 -56 -33 -56q-8 0 -16 2zM193 251q-10 10 -10 24t10 24t24 10t24 -10t10 -24
t-10 -24t-24 -10t-24 10z" />
    <glyph glyph-name="uniFB49" unicode="&#xfb49;" horiz-adv-x="609" 
d="M560.5 523.5q8.5 -9.5 8.5 -32.5v-16q0 -14 -8 -40t-15 -44l-64 -153q-21 -49 -36 -91.5t-32 -119.5l-6 -27h-297q-20 94 -32 160.5t-12 114.5q0 38 8.5 88t22.5 90l-23 4q-35 5 -35 43q0 30 13.5 54t14.5 26h15v-16q0 -12 4 -16t14 -6l42 -8q38 -7 38 -45
q0 -15 -5 -31.5t-9 -24.5h-9q-2 6 -4.5 8.5t-7.5 3.5l-25 4q-5 -22 -11 -63.5t-6 -80.5q0 -66 10.5 -112t30.5 -110h42l110 371l-19 3q-35 5 -35 43q0 30 13.5 54t14.5 26h15v-16q0 -12 4 -16t14 -6l42 -8q38 -7 38 -45q0 -15 -5 -31.5t-9 -24.5h-9q-2 6 -4.5 8.5t-7.5 3.5
l-23 4l-109 -366h163q8 38 26 81t52 114q5 12 17 36l50 106q3 8 3 13q0 14 -17 17l-45 9q-18 3 -27.5 11.5t-9.5 28.5q0 22 8.5 40t21.5 41h15v-14q0 -13 4 -17.5t18 -6.5l35 -6q21 -3 29.5 -12.5zM339 251q-10 10 -10 24t10 24t24 10t24 -10t10 -24t-10 -24t-24 -10t-24 10
z" />
    <glyph glyph-name="uniFB4A" unicode="&#xfb4a;" horiz-adv-x="560" 
d="M457 -3q-8 0 -16 2v5q3 4 4 13.5t1 28.5v342q0 39 -17 54.5t-56 15.5h-178q-7 -3 -18.5 -29t-20 -64.5t-8.5 -78.5q0 -42 14 -126q5 -26 8.5 -52t3.5 -44q0 -23 -4 -36.5t-10 -27.5h-135l11 84h76q1 6 1 23q0 13 -2 59q-2 54 -2 86q0 36 3 63q8 73 50 141v2h-36
q-27 0 -38 10.5t-11 34.5q0 28 9.5 50.5t10.5 26.5h15v-12q0 -14 6 -19t23 -5h232q60 0 83.5 -27.5t25.5 -93.5l8 -370q2 -56 -33 -56zM273 251q-10 10 -10 24t10 24t24 10t24 -10t10 -24t-10 -24t-24 -10t-24 10z" />
    <glyph glyph-name="uniFB4B" unicode="&#xfb4b;" horiz-adv-x="251" 
d="M132 -1v5q3 4 4 13.5t1 28.5v357q0 30 -5.5 39t-25.5 12l-34 5q-17 3 -27 12t-10 30q0 31 28 79h15v-14q0 -13 4 -17.5t20 -6.5l32 -5q21 -3 28.5 -14t8.5 -40l10 -430q2 -56 -33 -56q-8 0 -16 2zM94 624q-10 10 -10 24t10 24t24 10t24 -10t10 -24t-10 -24t-24 -10
t-24 10z" />
    <glyph glyph-name="uniFB4C" unicode="&#xfb4c;" horiz-adv-x="493" 
d="M55 84h299q20 111 20 220q0 73 -3.5 101.5t-17 40.5t-46.5 12h-201q-26 0 -37.5 11.5t-11.5 35.5q0 16 4 29.5t9 26t7 19.5h15v-12q0 -14 6 -19t23 -5h206q37 0 62 -20.5t25 -68.5v-151q0 -111 -28 -220h72l-15 -84h-403zM164 671h165l-12 -45h-164z" />
    <glyph glyph-name="uniFB4D" unicode="&#xfb4d;" horiz-adv-x="478" 
d="M55 84h210q73 0 101 48t28 135q0 94 -30 142.5t-99 48.5h-161q-27 0 -38 10.5t-11 34.5q0 32 20 77h15v-12q0 -14 6 -19t23 -5h174q68 0 95 -55q13 -26 26.5 -79.5t13.5 -138.5q0 -80 -15 -138.5t-43 -91.5q-16 -19 -37 -30t-41 -11h-252zM150 671h165l-12 -45h-164z" />
    <glyph glyph-name="uniFB4E" unicode="&#xfb4e;" horiz-adv-x="508" 
d="M444.5 409.5q13.5 -53.5 13.5 -133.5q0 -138 -50 -276h-358l15 84h287q72 0 72 179q0 97 -25 146t-84 49h-157q-19 -25 -33 -65.5t-14 -71.5h49q28 0 37.5 -9t9.5 -37v-49h-15q-4 12 -17.5 18.5t-31.5 6.5q-21 0 -32.5 -8t-11.5 -22h-29q-2 28 -2 42q0 60 19 112t38 81v2
h-11q-27 0 -38 10.5t-11 34.5q0 28 9.5 50.5t10.5 26.5h15v-12q0 -14 6 -19t23 -5h194q36 0 58.5 -13t36.5 -42q13 -26 26.5 -79.5zM173 671h165l-12 -45h-164z" />
    <glyph glyph-name="uniFB4F" unicode="&#xfb4f;" horiz-adv-x="500" 
d="M408 140q20 -24 30 -42.5t10 -38.5q0 -15 -6 -34t-11 -31h-12q0 14 -14 35.5t-29 38.5l-312 374q-29 35 -29 75q0 41 33 78l65 73q9 9 9 16q0 8 -13 11l-21 6q-10 3 -15.5 9t-5.5 23t4 30.5t11 29.5h14v-14q0 -6 3 -9.5t10 -4.5l47 -12q30 -7 30 -33q0 -13 -15 -32
l-93 -118q-10 -13 -10 -26q0 -20 23 -48l184 -221q2 24 15 59.5t29 65.5l30 57l-20 3q-35 5 -35 43q0 22 8 41.5t20 41.5h15v-19q0 -12 4 -16t14 -6l42 -6q38 -6 38 -46q0 -16 -5 -32.5t-9 -24.5h-9q-2 7 -4.5 10t-7.5 4l-24 3l-28 -58q-19 -38 -27.5 -66.5t-8.5 -54.5
t7 -51z" />
    <glyph glyph-name="uni05DC.ss01" horiz-adv-x="461" 
d="M172 3q-11 13 -11 34q0 28 18 54.5t45 56.5l101 103q23 23 30.5 56t7.5 72q0 31 -5 47.5t-20.5 24t-48.5 7.5h-224q-22 0 -31 13.5t-9 43.5q0 88 14 120q15 34 60 34q51 0 168 -37q6 -2 10 -2q14 0 17 16l5 27q2 9 10 14t21 5q28 0 60 -19v-14h-14q-6 0 -9.5 -3t-4.5 -10
l-6 -32q-5 -27 -39 -27q-17 0 -34 4t-47 13q-37 11 -66.5 17t-62.5 6q-21 0 -30 -6t-9 -25v-18q0 -19 12.5 -26.5t42.5 -7.5h214q41 0 58 -21q21 -23 21 -104q0 -43 -10.5 -94t-45.5 -86l-103 -106q-18 -19 -24.5 -30t-6.5 -21q0 -4 3 -22q4 -14 4 -28q0 -19 -10.5 -30.5
t-24.5 -11.5q-15 0 -26 13z" />
    <glyph glyph-name="zero.loclIWR" horiz-adv-x="504" 
d="M103 64q-53 76 -53 207t53 207t148 76t149 -76.5t54 -206.5t-54 -206.5t-149 -76.5t-148 76zM325.5 41q27.5 26 40 81.5t12.5 148.5q0 134 -31 195t-96 61q-46 0 -73 -26t-39.5 -82t-12.5 -148q0 -98 12.5 -153.5t39 -79t73.5 -23.5t74.5 26z" />
    <glyph glyph-name="one.loclIWR" horiz-adv-x="433" 
d="M105 27h46q38 0 50 9.5t12 39.5v398h-1q-83 -43 -142 -67v33q41 20 88.5 52t69.5 52h47v-468q0 -30 12.5 -39.5t49.5 -9.5h46v-27h-278v27z" />
    <glyph glyph-name="two.loclIWR" horiz-adv-x="457" 
d="M45 7q0 51 37 101t114 117q42 36 63.5 58.5t36 55.5t14.5 78q0 58 -25 88t-69 30q-40 0 -62 -21t-22 -43q0 -7 2.5 -12t5.5 -9q5 -6 7.5 -11.5t2.5 -14.5q0 -21 -11 -32.5t-30 -11.5q-20 0 -32.5 14t-12.5 41q0 34 22 63t60 46.5t84 17.5q71 0 113.5 -41t42.5 -111
q0 -43 -17 -74.5t-42.5 -54t-70.5 -53.5q-82 -59 -120 -93.5t-38 -58.5h199q41 0 56.5 13.5t21.5 42.5h27l-29 -132h-328v7z" />
    <glyph glyph-name="three.loclIWR" horiz-adv-x="465" 
d="M85.5 16q-45.5 28 -45.5 82q0 27 12 41t33 14q20 0 31 -11.5t11 -33.5q0 -18 -9.5 -31.5t-9.5 -19.5q0 -19 30 -30.5t63 -11.5q52 0 85 33.5t33 100.5q0 65 -32 101t-85 36q-24 0 -39 -1v32q12 -1 39 -1q89 0 89 103q0 53 -23.5 84.5t-69.5 31.5q-31 0 -53 -13.5
t-22 -34.5q0 -10 8 -20q3 -4 6 -10.5t3 -16.5q0 -21 -11 -31.5t-30 -10.5q-45 0 -45 55t44 82t110 27q75 0 117 -35.5t42 -101.5q0 -53 -28 -82t-85 -37v-2q65 -2 103 -40.5t38 -109.5q0 -85 -53.5 -125.5t-139.5 -40.5q-71 0 -116.5 28z" />
    <glyph glyph-name="four.loclIWR" horiz-adv-x="436" 
d="M163 27h55q17 0 22.5 7.5t5.5 24.5v111h-216v41q85 136 231 341h42v-337h98v-45h-98v-111q0 -17 5 -24.5t21 -7.5h50v-27h-216v27zM248 215v279h-2q-67 -99 -184 -279h186z" />
    <glyph glyph-name="five.loclIWR" horiz-adv-x="460" 
d="M93 18.5q-43 30.5 -43 78.5q0 26 12.5 41t33.5 15q18 0 29.5 -12t11.5 -33q0 -18 -9.5 -32t-9.5 -20q0 -18 29.5 -29.5t60.5 -11.5q49 0 83.5 35.5t34.5 110.5q0 71 -32 109t-84 38q-31 0 -59.5 -13.5t-60.5 -45.5h-11l27 295h206q24 0 33 5t15 19h27l-27 -98h-235
l-20 -173l3 -1q32 27 68 39t69 12q69 0 112 -47t43 -118q0 -56 -27 -100t-73 -69t-101 -25q-63 0 -106 30.5z" />
    <glyph glyph-name="six.loclIWR" horiz-adv-x="488" 
d="M98.5 52.5q-48.5 64.5 -48.5 181.5q0 100 35.5 175.5t102 118.5t155.5 47v-20q-64 -5 -114.5 -42t-79.5 -100.5t-31 -146.5h1q18 44 59.5 67.5t86.5 23.5q42 0 79.5 -21.5t60.5 -62.5t23 -96q0 -56 -24 -99t-67.5 -66.5t-98.5 -23.5q-91 0 -139.5 64.5zM329.5 54
q31.5 39 31.5 108q0 72 -34 108t-89 36q-57 0 -89 -36.5t-32 -100.5t31.5 -109t93.5 -45q56 0 87.5 39z" />
    <glyph glyph-name="seven.loclIWR" horiz-adv-x="451" 
d="M152.5 -0.5q-9.5 11.5 -9.5 38.5q0 52 28 111.5t69 124.5l14 22l105 174h-217q-36 0 -49.5 -9.5t-22.5 -30.5l-8 -21h-27l18 134h343v-63l-104 -181q-32 -55 -47 -97.5t-19 -75.5t-7 -89q-1 -25 -7.5 -37t-29.5 -12q-20 0 -29.5 11.5z" />
    <glyph glyph-name="eight.loclIWR" horiz-adv-x="464" 
d="M88 24.5q-43 36.5 -43 92.5q0 43 27.5 81.5t91.5 80.5q-50 34 -70 63.5t-20 71.5q0 72 48.5 106.5t114.5 34.5q57 0 98.5 -28t41.5 -91q0 -40 -21 -73t-71 -65q71 -36 97.5 -71.5t26.5 -81.5q0 -71 -49 -114t-142 -43q-87 0 -130 36.5zM316.5 363q16.5 25 16.5 63
q0 48 -27 75t-73 27q-42 0 -69.5 -22t-27.5 -65q0 -23 10.5 -40.5t37.5 -38t79 -51.5q37 27 53.5 52zM313 39q34 24 34 78q0 30 -13.5 50t-44 39t-104.5 58q-47 -35 -71.5 -70t-24.5 -75q0 -52 38 -78t97 -26q55 0 89 24z" />
    <glyph glyph-name="nine.loclIWR" horiz-adv-x="488" 
d="M145 -11q64 5 114.5 42t79.5 100.5t31 146.5h-1q-18 -44 -59.5 -67.5t-86.5 -23.5q-42 0 -79.5 21.5t-60.5 62.5t-23 96q0 56 24 99t67.5 66.5t98.5 23.5q91 0 139.5 -64.5t48.5 -181.5q0 -100 -35.5 -175.5t-102 -118.5t-155.5 -47v20zM339 274.5q32 36.5 32 100.5
t-31.5 109t-93.5 45q-56 0 -87.5 -39t-31.5 -108q0 -72 34 -108t89 -36q57 0 89 36.5z" />
    <glyph glyph-name="zero.osf" horiz-adv-x="502" 
d="M99 64q-54 76 -54 207t54 207t151 76t152 -76.5t55 -206.5t-55 -206.5t-152 -76.5t-151 76zM324.5 41q27.5 26 40 81.5t12.5 148.5q0 134 -31 195t-96 61q-46 0 -73 -26t-39.5 -82t-12.5 -148q0 -98 12.5 -153.5t39 -79t73.5 -23.5t74.5 26z" />
    <glyph glyph-name="one.osf" horiz-adv-x="423" 
d="M80 27h46q38 0 50 9.5t12 39.5v398q-75 -47 -123 -67v33q39 19 76.5 49t61.5 55h57v-468q0 -30 12.5 -39.5t49.5 -9.5h46v-27h-288v27z" />
    <glyph glyph-name="two.osf" horiz-adv-x="511" 
d="M60 8q0 56 41.5 108.5t133.5 132.5q46 35 76.5 75.5t30.5 98.5q0 47 -24 76t-69 29q-36 0 -63.5 -17t-27.5 -40q0 -10 10 -22q12 -14 12 -32q0 -22 -13.5 -34.5t-35.5 -12.5q-24 0 -38 14.5t-14 43.5q0 39 25.5 68t66.5 44.5t86 15.5q76 0 120.5 -41.5t44.5 -105.5
q0 -53 -29.5 -86.5t-86.5 -70.5q-102 -70 -140 -104t-53 -72h255q54 0 74 64h19l-35 -140l-366 1v7z" />
    <glyph glyph-name="three.osf" horiz-adv-x="539" 
d="M101 -93.5q-56 34.5 -56 93.5q0 30 14.5 44t39.5 14q22 0 34.5 -11t12.5 -34q0 -11 -2.5 -17.5t-8.5 -15.5q-9 -11 -9 -21q0 -24 30.5 -41.5t74.5 -17.5q74 0 113.5 45t39.5 126q0 80 -39 119.5t-118 39.5q-24 0 -39 -1v32q12 -1 39 -1q59 0 93 35t34 99q0 60 -31.5 97
t-87.5 37q-39 0 -66.5 -17.5t-27.5 -41.5q0 -10 9 -21q6 -9 8.5 -15.5t2.5 -17.5q0 -23 -12.5 -34t-34.5 -11q-25 0 -39.5 14t-14.5 44q0 59 56.5 93.5t136.5 34.5q85 0 133 -41t48 -116q0 -62 -32 -100.5t-93 -48.5v-2q69 -2 112 -50.5t43 -127.5q0 -92 -60.5 -145
t-163.5 -53q-83 0 -139 34.5z" />
    <glyph glyph-name="four.osf" horiz-adv-x="523" 
d="M246 -83h43q20 0 26.5 9t6.5 30v123h-285v51q140 217 303 428h52v-423h93v-56h-93v-123q0 -22 5.5 -30.5t25.5 -8.5h35v-27h-212v27zM322 135v340h-3q-110 -142 -241 -340h244z" />
    <glyph glyph-name="five.osf" horiz-adv-x="519" 
d="M106.5 -99q-45.5 29 -45.5 81q0 30 14.5 45.5t39.5 15.5q22 0 34.5 -12.5t12.5 -36.5q0 -20 -12 -34q-8 -12 -8 -21q0 -21 23.5 -30t58.5 -9q73 0 114.5 42t41.5 134q0 84 -36.5 127t-106.5 43q-38 0 -66.5 -13t-56.5 -40h-19l27 351h244q24 0 32.5 5t15.5 19h23l-27 -97
h-264l-20 -230l3 -1q64 51 150 51q87 0 134 -54.5t47 -140.5q0 -66 -28 -117t-81 -79t-125 -28q-74 0 -119.5 29z" />
    <glyph glyph-name="six.osf" horiz-adv-x="540" 
d="M122.5 65q-57.5 77 -57.5 213q0 118 44 207t125.5 139.5t191.5 54.5v-27q-81 -6 -142.5 -49.5t-98 -119.5t-42.5 -177h1q25 56 68 86t96 30q47 0 89 -25t67.5 -74t25.5 -118q0 -62 -25.5 -111.5t-72.5 -77.5t-110 -28q-102 0 -159.5 77zM380 63q33 47 33 132t-33.5 128
t-96.5 43q-65 0 -103 -43t-38 -121q0 -77 37 -131.5t106 -54.5q62 0 95 47z" />
    <glyph glyph-name="seven.osf" horiz-adv-x="511" 
d="M165 -111.5q-8 16.5 -8 46.5q0 137 111 326q26 44 67 110.5t67 99.5h-256q-34 0 -47 -10t-26 -40l-7 -17h-27l18 140h393v-63q-30 -38 -70 -103t-67 -114q-36 -66 -53.5 -120.5t-21.5 -100t-5 -112.5q0 -28 -8 -43.5t-30 -15.5t-30 16.5z" />
    <glyph glyph-name="eight.osf" horiz-adv-x="519" 
d="M106.5 30.5q-51.5 42.5 -51.5 116.5q0 56 34.5 102.5t114.5 89.5q-67 41 -95 81.5t-28 88.5q0 55 29 91.5t73.5 54t92.5 17.5q68 0 118.5 -34.5t50.5 -107.5q0 -49 -27.5 -92.5t-89.5 -82.5q72 -43 104 -85t32 -99q0 -52 -24.5 -93.5t-72.5 -65.5t-117 -24
q-92 0 -143.5 42.5zM377.5 441q23.5 36 23.5 80q0 55 -34 89t-94 34q-55 0 -92.5 -29.5t-37.5 -81.5q0 -31 16 -54t46.5 -45t97.5 -63q51 34 74.5 70zM360.5 50q41.5 34 41.5 94q0 33 -16 57.5t-51.5 51t-109.5 71.5q-56 -33 -91 -77t-35 -98q0 -60 44.5 -96.5t111.5 -36.5
q64 0 105.5 34z" />
    <glyph glyph-name="nine.osf" horiz-adv-x="540" 
d="M137 -108q81 6 142.5 49.5t98 119.5t42.5 177h-1q-24 -55 -67.5 -85.5t-95.5 -30.5q-47 0 -89 26.5t-68 77t-26 117.5q0 60 25.5 108.5t73 76.5t110.5 28q102 0 159 -77.5t57 -213.5q0 -118 -44 -206.5t-125.5 -139t-191.5 -54.5v27zM383 221.5q38 43.5 38 120.5
t-36.5 131.5t-105.5 54.5q-62 0 -95.5 -47t-33.5 -129q0 -83 34 -128.5t98 -45.5q63 0 101 43.5z" />
    <glyph glyph-name="zero.tf" horiz-adv-x="559" 
d="M158.5 30q-50.5 42 -77 119t-26.5 181t26.5 181t77 119t120.5 42t121 -42t77.5 -119t26.5 -181t-26.5 -181t-77.5 -119t-121 -42t-120.5 42zM364.5 48q31.5 32 45.5 100t14 182t-14 182t-45.5 100t-85.5 32t-85 -32t-45 -100t-14 -182q0 -121 13.5 -188.5t44.5 -96.5
t86 -29q54 0 85.5 32z" />
    <glyph glyph-name="one.tf" horiz-adv-x="559" 
d="M153 27h46q38 0 50 9.5t12 39.5v514q-63 -34 -143 -67v33q41 20 88.5 52t69.5 52h57v-584q0 -30 12.5 -39.5t49.5 -9.5h46v-27h-288v27z" />
    <glyph glyph-name="two.tf" horiz-adv-x="559" 
d="M69 8q0 59 43 121t132 140q7 6 52 45t70 88t25 103q0 67 -33.5 103t-94.5 36q-41 0 -68.5 -17t-27.5 -41q0 -6 3 -11.5t7 -10.5q12 -14 12 -28q0 -25 -13 -37.5t-36 -12.5q-24 0 -38 14.5t-14 43.5q0 59 55.5 93.5t132.5 34.5q93 0 144 -48.5t51 -130.5q0 -51 -19 -88.5
t-50 -64.5t-87 -68q-97 -72 -140 -116t-43 -80h222q41 0 63 7.5t31 21t14 35.5h28l-35 -140h-386v8z" />
    <glyph glyph-name="three.tf" horiz-adv-x="559" 
d="M126 22.5q-56 34.5 -56 93.5q0 30 14.5 44t39.5 14q22 0 34.5 -11t12.5 -34q0 -11 -2.5 -17.5t-8.5 -15.5q-9 -11 -9 -21q0 -24 30.5 -41.5t74.5 -17.5q74 0 113.5 45t39.5 126q0 80 -39 119.5t-118 39.5q-24 0 -39 -1v32q12 -1 39 -1q59 0 93 35t34 99q0 60 -31.5 97
t-87.5 37q-39 0 -66.5 -17.5t-27.5 -41.5q0 -10 9 -21q6 -9 8.5 -15.5t2.5 -17.5q0 -23 -12.5 -34t-34.5 -11q-25 0 -39.5 14t-14.5 44q0 59 56.5 93.5t136.5 34.5q85 0 133 -41t48 -116q0 -62 -32 -100.5t-93 -48.5v-2q69 -2 112 -50.5t43 -127.5q0 -92 -60.5 -145
t-163.5 -53q-83 0 -139 34.5z" />
    <glyph glyph-name="four.tf" horiz-adv-x="559" 
d="M265 27h43q20 0 26.5 9t6.5 30v123h-285v51q140 217 303 428h52v-423h93v-56h-93v-123q0 -22 5.5 -30.5t25.5 -8.5h35v-27h-212v27zM341 245v340h-3q-110 -142 -241 -340h244z" />
    <glyph glyph-name="five.tf" horiz-adv-x="559" 
d="M125.5 17q-45.5 29 -45.5 81q0 30 14.5 45.5t39.5 15.5q22 0 34.5 -12.5t12.5 -36.5q0 -20 -12 -34q-8 -12 -8 -21q0 -21 23.5 -30t58.5 -9q73 0 114.5 42t41.5 134q0 84 -36.5 127t-106.5 43q-38 0 -66.5 -13t-56.5 -40h-19l27 351h244q24 0 32.5 5t15.5 19h23l-27 -97
h-264l-20 -230l3 -1q64 51 150 51q87 0 134 -54.5t47 -140.5q0 -66 -28 -117t-81 -79t-125 -28q-74 0 -119.5 29z" />
    <glyph glyph-name="six.tf" horiz-adv-x="559" 
d="M124.5 65q-57.5 77 -57.5 213q0 118 44 207t125.5 139.5t191.5 54.5v-27q-81 -6 -142.5 -49.5t-98 -119.5t-42.5 -177h1q25 56 68 86t96 30q47 0 89 -25t67.5 -74t25.5 -118q0 -62 -25.5 -111.5t-72.5 -77.5t-110 -28q-102 0 -159.5 77zM382 63q33 47 33 132t-33.5 128
t-96.5 43q-65 0 -103 -43t-38 -121q0 -77 37 -131.5t106 -54.5q62 0 95 47z" />
    <glyph glyph-name="seven.tf" horiz-adv-x="559" 
d="M200 4.5q-8 16.5 -8 46.5q0 137 111 326q26 44 67 110.5t67 99.5h-256q-34 0 -47 -10t-26 -40l-7 -17h-27l18 140h393v-63q-30 -38 -70 -103t-67 -114q-36 -66 -53.5 -120.5t-21.5 -100t-5 -112.5q0 -28 -8 -43.5t-30 -15.5t-30 16.5z" />
    <glyph glyph-name="eight.tf" horiz-adv-x="559" 
d="M126.5 30.5q-51.5 42.5 -51.5 116.5q0 56 34.5 102.5t114.5 89.5q-67 41 -95 81.5t-28 88.5q0 55 29 91.5t73.5 54t92.5 17.5q68 0 118.5 -34.5t50.5 -107.5q0 -49 -27.5 -92.5t-89.5 -82.5q72 -43 104 -85t32 -99q0 -52 -24.5 -93.5t-72.5 -65.5t-117 -24
q-92 0 -143.5 42.5zM397.5 441q23.5 36 23.5 80q0 55 -34 89t-94 34q-55 0 -92.5 -29.5t-37.5 -81.5q0 -31 16 -54t46.5 -45t97.5 -63q51 34 74.5 70zM380.5 50q41.5 34 41.5 94q0 33 -16 57.5t-51.5 51t-109.5 71.5q-56 -33 -91 -77t-35 -98q0 -60 44.5 -96.5t111.5 -36.5
q64 0 105.5 34z" />
    <glyph glyph-name="nine.tf" horiz-adv-x="559" 
d="M131 8q81 6 142.5 49.5t98 119.5t42.5 177h-1q-24 -55 -67.5 -85.5t-95.5 -30.5q-47 0 -89 26.5t-68 77t-26 117.5q0 60 25.5 108.5t73 76.5t110.5 28q102 0 159 -77.5t57 -213.5q0 -118 -44 -206.5t-125.5 -139t-191.5 -54.5v27zM377 337.5q38 43.5 38 120.5
t-36.5 131.5t-105.5 54.5q-62 0 -95.5 -47t-33.5 -129q0 -83 34 -128.5t98 -45.5q63 0 101 43.5z" />
    <glyph glyph-name="zero.tosf" horiz-adv-x="502" 
d="M99 64q-54 76 -54 207t54 207t151 76t152 -76.5t55 -206.5t-55 -206.5t-152 -76.5t-151 76zM324.5 41q27.5 26 40 81.5t12.5 148.5q0 134 -31 195t-96 61q-46 0 -73 -26t-39.5 -82t-12.5 -148q0 -98 12.5 -153.5t39 -79t73.5 -23.5t74.5 26z" />
    <glyph glyph-name="one.tosf" horiz-adv-x="502" 
d="M115 27h46q38 0 50 9.5t12 39.5v398q-75 -47 -123 -67v33q39 19 76.5 49t61.5 55h57v-468q0 -30 12.5 -39.5t49.5 -9.5h46v-27h-288v27z" />
    <glyph glyph-name="two.tosf" horiz-adv-x="502" 
d="M52 8q0 56 41.5 108.5t133.5 132.5q46 35 76.5 75.5t30.5 98.5q0 47 -24 76t-69 29q-36 0 -63.5 -17t-27.5 -40q0 -10 10 -22q12 -14 12 -32q0 -22 -13.5 -34.5t-35.5 -12.5q-24 0 -38 14.5t-14 43.5q0 39 25.5 68t66.5 44.5t86 15.5q76 0 120.5 -41.5t44.5 -105.5
q0 -53 -29.5 -86.5t-86.5 -70.5q-102 -70 -140 -104t-53 -72h255q54 0 74 64h19l-35 -140l-366 1v7z" />
    <glyph glyph-name="three.tosf" horiz-adv-x="502" 
d="M96 -93.5q-56 34.5 -56 93.5q0 30 14.5 44t39.5 14q22 0 34.5 -11t12.5 -34q0 -11 -2.5 -17.5t-8.5 -15.5q-9 -11 -9 -21q0 -24 30.5 -41.5t74.5 -17.5q74 0 113.5 45t39.5 126q0 80 -39 119.5t-118 39.5q-24 0 -39 -1v32q12 -1 39 -1q59 0 93 35t34 99q0 60 -31.5 97
t-87.5 37q-39 0 -66.5 -17.5t-27.5 -41.5q0 -10 9 -21q6 -9 8.5 -15.5t2.5 -17.5q0 -23 -12.5 -34t-34.5 -11q-25 0 -39.5 14t-14.5 44q0 59 56.5 93.5t136.5 34.5q85 0 133 -41t48 -116q0 -62 -32 -100.5t-93 -48.5v-2q69 -2 112 -50.5t43 -127.5q0 -92 -60.5 -145
t-163.5 -53q-83 0 -139 34.5z" />
    <glyph glyph-name="four.tosf" horiz-adv-x="502" 
d="M236 -83h43q20 0 26.5 9t6.5 30v123h-285v51q140 217 303 428h52v-423h93v-56h-93v-123q0 -22 5.5 -30.5t25.5 -8.5h35v-27h-212v27zM312 135v340h-3q-110 -142 -241 -340h244z" />
    <glyph glyph-name="five.tosf" horiz-adv-x="502" 
d="M96.5 -99q-45.5 29 -45.5 81q0 30 14.5 45.5t39.5 15.5q22 0 34.5 -12.5t12.5 -36.5q0 -20 -12 -34q-8 -12 -8 -21q0 -21 23.5 -30t58.5 -9q73 0 114.5 42t41.5 134q0 84 -36.5 127t-106.5 43q-38 0 -66.5 -13t-56.5 -40h-19l27 351h244q24 0 32.5 5t15.5 19h23l-27 -97
h-264l-20 -230l3 -1q64 51 150 51q87 0 134 -54.5t47 -140.5q0 -66 -28 -117t-81 -79t-125 -28q-74 0 -119.5 29z" />
    <glyph glyph-name="six.tosf" horiz-adv-x="502" 
d="M95.5 65q-57.5 77 -57.5 213q0 118 44 207t125.5 139.5t191.5 54.5v-27q-81 -6 -142.5 -49.5t-98 -119.5t-42.5 -177h1q25 56 68 86t96 30q47 0 89 -25t67.5 -74t25.5 -118q0 -62 -25.5 -111.5t-72.5 -77.5t-110 -28q-102 0 -159.5 77zM353 63q33 47 33 132t-33.5 128
t-96.5 43q-65 0 -103 -43t-38 -121q0 -77 37 -131.5t106 -54.5q62 0 95 47z" />
    <glyph glyph-name="seven.tosf" horiz-adv-x="502" 
d="M172 -111.5q-8 16.5 -8 46.5q0 137 111 326q26 44 67 110.5t67 99.5h-256q-34 0 -47 -10t-26 -40l-7 -17h-27l18 140h393v-63q-30 -38 -70 -103t-67 -114q-36 -66 -53.5 -120.5t-21.5 -100t-5 -112.5q0 -28 -8 -43.5t-30 -15.5t-30 16.5z" />
    <glyph glyph-name="eight.tosf" horiz-adv-x="502" 
d="M97.5 30.5q-51.5 42.5 -51.5 116.5q0 56 34.5 102.5t114.5 89.5q-67 41 -95 81.5t-28 88.5q0 55 29 91.5t73.5 54t92.5 17.5q68 0 118.5 -34.5t50.5 -107.5q0 -49 -27.5 -92.5t-89.5 -82.5q72 -43 104 -85t32 -99q0 -52 -24.5 -93.5t-72.5 -65.5t-117 -24
q-92 0 -143.5 42.5zM368.5 441q23.5 36 23.5 80q0 55 -34 89t-94 34q-55 0 -92.5 -29.5t-37.5 -81.5q0 -31 16 -54t46.5 -45t97.5 -63q51 34 74.5 70zM351.5 50q41.5 34 41.5 94q0 33 -16 57.5t-51.5 51t-109.5 71.5q-56 -33 -91 -77t-35 -98q0 -60 44.5 -96.5t111.5 -36.5
q64 0 105.5 34z" />
    <glyph glyph-name="nine.tosf" horiz-adv-x="502" 
d="M102 -108q81 6 142.5 49.5t98 119.5t42.5 177h-1q-24 -55 -67.5 -85.5t-95.5 -30.5q-47 0 -89 26.5t-68 77t-26 117.5q0 60 25.5 108.5t73 76.5t110.5 28q102 0 159 -77.5t57 -213.5q0 -118 -44 -206.5t-125.5 -139t-191.5 -54.5v27zM348 221.5q38 43.5 38 120.5
t-36.5 131.5t-105.5 54.5q-62 0 -95.5 -47t-33.5 -129q0 -83 34 -128.5t98 -45.5q63 0 101 43.5z" />
    <glyph glyph-name="exclamdown.case" horiz-adv-x="281" 
d="M102.5 593.5q-13.5 13.5 -13.5 33.5q0 19 13 32.5t33 13.5q19 0 32 -13.5t13 -32.5q0 -20 -13 -33.5t-32 -13.5t-32.5 13.5zM89 51q0 14 2.5 43.5t4.5 42.5l23 368h31l24 -368l3 -30q1 -10 2 -22.5t1 -27.5q0 -30 -10 -44.5t-35 -14.5q-46 0 -46 53z" />
    <glyph glyph-name="questiondown.case" horiz-adv-x="443" 
d="M218.5 593q-13.5 14 -13.5 33t13.5 32.5t32.5 13.5q20 0 33 -13.5t13 -32.5t-13 -33t-33 -14q-19 0 -32.5 14zM101.5 21.5q-47.5 33.5 -47.5 104.5q0 41 14 74.5t33.5 57.5t52.5 58q41 41 61 70.5t20 67.5v43h34v-43q0 -52 -17 -86t-50 -74q-34 -42 -51 -77t-17 -90
q0 -53 23.5 -84t67.5 -31q32 0 60.5 11.5t28.5 34.5q0 8 -3 13t-9 11q-8 7 -12 14.5t-4 21.5q0 20 11.5 31.5t32.5 11.5q22 0 34.5 -17t12.5 -44q0 -53 -44 -82.5t-110 -29.5q-74 0 -121.5 33.5z" />
    <glyph glyph-name="braceleft.case" horiz-adv-x="267" 
d="M144.5 -43.5q-25.5 18.5 -32.5 48t-7 77.5v34v97q0 54 -17 81t-48 26v18q30 -1 47.5 27.5t17.5 79.5v97v31q0 46 7 76.5t32.5 50.5t77.5 20h15v-27q-37 -1 -53.5 -16.5t-19.5 -37.5t-3 -65v-98q0 -65 -15 -98t-62 -46v-6q47 -13 62 -46t15 -98v-98q0 -43 3 -65
t19.5 -37.5t53.5 -16.5v-27h-15q-52 0 -77.5 18.5z" />
    <glyph glyph-name="braceright.case" horiz-adv-x="267" 
d="M30 -35q37 1 53.5 16.5t19.5 37.5t3 65v98q0 65 15 98t62 46v6q-47 13 -62 46t-15 98v97q0 44 -3 66t-19.5 37.5t-53.5 16.5v27h15q52 0 77.5 -20t32.5 -50.5t7 -76.5v-31v-97q0 -51 17.5 -79.5t47.5 -27.5v-18q-31 1 -48 -26t-17 -81v-97v-34q0 -48 -7 -77.5t-32.5 -48
t-77.5 -18.5h-15v27z" />
    <glyph glyph-name="bracketleft.case" horiz-adv-x="248" 
d="M99 720h148v-28h-92v-726h92v-28h-148v782z" />
    <glyph glyph-name="bracketright.case" horiz-adv-x="248" 
d="M44 -34h92v726h-92v28h148v-782h-148v28z" />
    <glyph glyph-name="parenleft.case" horiz-adv-x="324" 
d="M137 59q-49 114 -49 267t49 267t175 124v-20q-54 -13 -92 -67.5t-57 -134.5t-19 -169t19.5 -168.5t57.5 -134.5t91 -69v-18q-126 9 -175 123z" />
    <glyph glyph-name="parenright.case" horiz-adv-x="324" 
d="M23 -46q53 14 91 69t57.5 134.5t19.5 168.5t-19 169t-57 134.5t-92 67.5v20q126 -10 175 -124t49 -267t-49 -267t-175 -123v18z" />
    <glyph glyph-name="emdash.case" horiz-adv-x="827" 
d="M0 366h827v-46h-827v46z" />
    <glyph glyph-name="endash.case" horiz-adv-x="414" 
d="M0 366h414v-46h-414v46z" />
    <glyph glyph-name="hyphen.case" horiz-adv-x="319" 
d="M57 372h205v-59h-205v59z" />
    <glyph glyph-name="guilsinglleft.case" horiz-adv-x="299" 
d="M35 343l211 221h20l-138 -221l138 -222h-20z" />
    <glyph glyph-name="guilsinglright.case" horiz-adv-x="299" 
d="M170 343l-138 221h20l211 -221l-211 -222h-20z" />
    <glyph glyph-name="caroncomb.alt" 
d="M-201 543q20 2 35 14t15 26q0 5 -4 7.5t-10 4.5t-10 4q-26 10 -26 34q0 18 11.5 28.5t29.5 10.5q23 0 35.5 -17t12.5 -41q0 -33 -23.5 -59t-61.5 -32z" />
    </font>
</defs>
</svg>
